%TF.GenerationSoftware,KiCad,Pcbnew,9.0.7-9.0.7~ubuntu25.10.1*%
%TF.CreationDate,2026-04-06T13:59:09+05:30*%
%TF.ProjectId,stm32f765-breakout-board,73746d33-3266-4373-9635-2d627265616b,rev?*%
%TF.SameCoordinates,Original*%
%TF.FileFunction,Legend,Top*%
%TF.FilePolarity,Positive*%
%FSLAX46Y46*%
G04 Gerber Fmt 4.6, Leading zero omitted, Abs format (unit mm)*
G04 Created by KiCad (PCBNEW 9.0.7-9.0.7~ubuntu25.10.1) date 2026-04-06 13:59:09*
%MOMM*%
%LPD*%
G01*
G04 APERTURE LIST*
%ADD10C,0.100000*%
%ADD11C,0.150000*%
%ADD12C,0.120000*%
%ADD13C,0.000000*%
G04 APERTURE END LIST*
D10*
X103803884Y-138872419D02*
X103803884Y-137872419D01*
X103803884Y-137872419D02*
X104184836Y-137872419D01*
X104184836Y-137872419D02*
X104280074Y-137920038D01*
X104280074Y-137920038D02*
X104327693Y-137967657D01*
X104327693Y-137967657D02*
X104375312Y-138062895D01*
X104375312Y-138062895D02*
X104375312Y-138205752D01*
X104375312Y-138205752D02*
X104327693Y-138300990D01*
X104327693Y-138300990D02*
X104280074Y-138348609D01*
X104280074Y-138348609D02*
X104184836Y-138396228D01*
X104184836Y-138396228D02*
X103803884Y-138396228D01*
X104756265Y-138586704D02*
X105232455Y-138586704D01*
X104661027Y-138872419D02*
X104994360Y-137872419D01*
X104994360Y-137872419D02*
X105327693Y-138872419D01*
X105565789Y-137872419D02*
X106232455Y-137872419D01*
X106232455Y-137872419D02*
X105803884Y-138872419D01*
X138362919Y-106186115D02*
X137362919Y-106186115D01*
X137362919Y-106186115D02*
X137362919Y-105805163D01*
X137362919Y-105805163D02*
X137410538Y-105709925D01*
X137410538Y-105709925D02*
X137458157Y-105662306D01*
X137458157Y-105662306D02*
X137553395Y-105614687D01*
X137553395Y-105614687D02*
X137696252Y-105614687D01*
X137696252Y-105614687D02*
X137791490Y-105662306D01*
X137791490Y-105662306D02*
X137839109Y-105709925D01*
X137839109Y-105709925D02*
X137886728Y-105805163D01*
X137886728Y-105805163D02*
X137886728Y-106186115D01*
X138362919Y-105186115D02*
X137362919Y-105186115D01*
X137362919Y-105186115D02*
X137362919Y-104948020D01*
X137362919Y-104948020D02*
X137410538Y-104805163D01*
X137410538Y-104805163D02*
X137505776Y-104709925D01*
X137505776Y-104709925D02*
X137601014Y-104662306D01*
X137601014Y-104662306D02*
X137791490Y-104614687D01*
X137791490Y-104614687D02*
X137934347Y-104614687D01*
X137934347Y-104614687D02*
X138124823Y-104662306D01*
X138124823Y-104662306D02*
X138220061Y-104709925D01*
X138220061Y-104709925D02*
X138315300Y-104805163D01*
X138315300Y-104805163D02*
X138362919Y-104948020D01*
X138362919Y-104948020D02*
X138362919Y-105186115D01*
X137696252Y-103757544D02*
X138362919Y-103757544D01*
X137315300Y-103995639D02*
X138029585Y-104233734D01*
X138029585Y-104233734D02*
X138029585Y-103614687D01*
X137368646Y-145792419D02*
X137987693Y-145792419D01*
X137987693Y-145792419D02*
X137654360Y-146173371D01*
X137654360Y-146173371D02*
X137797217Y-146173371D01*
X137797217Y-146173371D02*
X137892455Y-146220990D01*
X137892455Y-146220990D02*
X137940074Y-146268609D01*
X137940074Y-146268609D02*
X137987693Y-146363847D01*
X137987693Y-146363847D02*
X137987693Y-146601942D01*
X137987693Y-146601942D02*
X137940074Y-146697180D01*
X137940074Y-146697180D02*
X137892455Y-146744800D01*
X137892455Y-146744800D02*
X137797217Y-146792419D01*
X137797217Y-146792419D02*
X137511503Y-146792419D01*
X137511503Y-146792419D02*
X137416265Y-146744800D01*
X137416265Y-146744800D02*
X137368646Y-146697180D01*
X138273408Y-145792419D02*
X138606741Y-146792419D01*
X138606741Y-146792419D02*
X138940074Y-145792419D01*
X139178170Y-145792419D02*
X139797217Y-145792419D01*
X139797217Y-145792419D02*
X139463884Y-146173371D01*
X139463884Y-146173371D02*
X139606741Y-146173371D01*
X139606741Y-146173371D02*
X139701979Y-146220990D01*
X139701979Y-146220990D02*
X139749598Y-146268609D01*
X139749598Y-146268609D02*
X139797217Y-146363847D01*
X139797217Y-146363847D02*
X139797217Y-146601942D01*
X139797217Y-146601942D02*
X139749598Y-146697180D01*
X139749598Y-146697180D02*
X139701979Y-146744800D01*
X139701979Y-146744800D02*
X139606741Y-146792419D01*
X139606741Y-146792419D02*
X139321027Y-146792419D01*
X139321027Y-146792419D02*
X139225789Y-146744800D01*
X139225789Y-146744800D02*
X139178170Y-146697180D01*
X112801919Y-145946115D02*
X111801919Y-145946115D01*
X111801919Y-145946115D02*
X111801919Y-145565163D01*
X111801919Y-145565163D02*
X111849538Y-145469925D01*
X111849538Y-145469925D02*
X111897157Y-145422306D01*
X111897157Y-145422306D02*
X111992395Y-145374687D01*
X111992395Y-145374687D02*
X112135252Y-145374687D01*
X112135252Y-145374687D02*
X112230490Y-145422306D01*
X112230490Y-145422306D02*
X112278109Y-145469925D01*
X112278109Y-145469925D02*
X112325728Y-145565163D01*
X112325728Y-145565163D02*
X112325728Y-145946115D01*
X112278109Y-144946115D02*
X112278109Y-144612782D01*
X112801919Y-144469925D02*
X112801919Y-144946115D01*
X112801919Y-144946115D02*
X111801919Y-144946115D01*
X111801919Y-144946115D02*
X111801919Y-144469925D01*
X111801919Y-144136591D02*
X111801919Y-143469925D01*
X111801919Y-143469925D02*
X112801919Y-143898496D01*
X125548419Y-106186115D02*
X124548419Y-106186115D01*
X124548419Y-106186115D02*
X124548419Y-105805163D01*
X124548419Y-105805163D02*
X124596038Y-105709925D01*
X124596038Y-105709925D02*
X124643657Y-105662306D01*
X124643657Y-105662306D02*
X124738895Y-105614687D01*
X124738895Y-105614687D02*
X124881752Y-105614687D01*
X124881752Y-105614687D02*
X124976990Y-105662306D01*
X124976990Y-105662306D02*
X125024609Y-105709925D01*
X125024609Y-105709925D02*
X125072228Y-105805163D01*
X125072228Y-105805163D02*
X125072228Y-106186115D01*
X125024609Y-104852782D02*
X125072228Y-104709925D01*
X125072228Y-104709925D02*
X125119847Y-104662306D01*
X125119847Y-104662306D02*
X125215085Y-104614687D01*
X125215085Y-104614687D02*
X125357942Y-104614687D01*
X125357942Y-104614687D02*
X125453180Y-104662306D01*
X125453180Y-104662306D02*
X125500800Y-104709925D01*
X125500800Y-104709925D02*
X125548419Y-104805163D01*
X125548419Y-104805163D02*
X125548419Y-105186115D01*
X125548419Y-105186115D02*
X124548419Y-105186115D01*
X124548419Y-105186115D02*
X124548419Y-104852782D01*
X124548419Y-104852782D02*
X124596038Y-104757544D01*
X124596038Y-104757544D02*
X124643657Y-104709925D01*
X124643657Y-104709925D02*
X124738895Y-104662306D01*
X124738895Y-104662306D02*
X124834133Y-104662306D01*
X124834133Y-104662306D02*
X124929371Y-104709925D01*
X124929371Y-104709925D02*
X124976990Y-104757544D01*
X124976990Y-104757544D02*
X125024609Y-104852782D01*
X125024609Y-104852782D02*
X125024609Y-105186115D01*
X124881752Y-103757544D02*
X125548419Y-103757544D01*
X124500800Y-103995639D02*
X125215085Y-104233734D01*
X125215085Y-104233734D02*
X125215085Y-103614687D01*
X135303884Y-142572419D02*
X135303884Y-141572419D01*
X135303884Y-141572419D02*
X135684836Y-141572419D01*
X135684836Y-141572419D02*
X135780074Y-141620038D01*
X135780074Y-141620038D02*
X135827693Y-141667657D01*
X135827693Y-141667657D02*
X135875312Y-141762895D01*
X135875312Y-141762895D02*
X135875312Y-141905752D01*
X135875312Y-141905752D02*
X135827693Y-142000990D01*
X135827693Y-142000990D02*
X135780074Y-142048609D01*
X135780074Y-142048609D02*
X135684836Y-142096228D01*
X135684836Y-142096228D02*
X135303884Y-142096228D01*
X136637217Y-142048609D02*
X136780074Y-142096228D01*
X136780074Y-142096228D02*
X136827693Y-142143847D01*
X136827693Y-142143847D02*
X136875312Y-142239085D01*
X136875312Y-142239085D02*
X136875312Y-142381942D01*
X136875312Y-142381942D02*
X136827693Y-142477180D01*
X136827693Y-142477180D02*
X136780074Y-142524800D01*
X136780074Y-142524800D02*
X136684836Y-142572419D01*
X136684836Y-142572419D02*
X136303884Y-142572419D01*
X136303884Y-142572419D02*
X136303884Y-141572419D01*
X136303884Y-141572419D02*
X136637217Y-141572419D01*
X136637217Y-141572419D02*
X136732455Y-141620038D01*
X136732455Y-141620038D02*
X136780074Y-141667657D01*
X136780074Y-141667657D02*
X136827693Y-141762895D01*
X136827693Y-141762895D02*
X136827693Y-141858133D01*
X136827693Y-141858133D02*
X136780074Y-141953371D01*
X136780074Y-141953371D02*
X136732455Y-142000990D01*
X136732455Y-142000990D02*
X136637217Y-142048609D01*
X136637217Y-142048609D02*
X136303884Y-142048609D01*
X137827693Y-142572419D02*
X137256265Y-142572419D01*
X137541979Y-142572419D02*
X137541979Y-141572419D01*
X137541979Y-141572419D02*
X137446741Y-141715276D01*
X137446741Y-141715276D02*
X137351503Y-141810514D01*
X137351503Y-141810514D02*
X137256265Y-141858133D01*
X138780074Y-142572419D02*
X138208646Y-142572419D01*
X138494360Y-142572419D02*
X138494360Y-141572419D01*
X138494360Y-141572419D02*
X138399122Y-141715276D01*
X138399122Y-141715276D02*
X138303884Y-141810514D01*
X138303884Y-141810514D02*
X138208646Y-141858133D01*
X125529419Y-145946115D02*
X124529419Y-145946115D01*
X124529419Y-145946115D02*
X124529419Y-145565163D01*
X124529419Y-145565163D02*
X124577038Y-145469925D01*
X124577038Y-145469925D02*
X124624657Y-145422306D01*
X124624657Y-145422306D02*
X124719895Y-145374687D01*
X124719895Y-145374687D02*
X124862752Y-145374687D01*
X124862752Y-145374687D02*
X124957990Y-145422306D01*
X124957990Y-145422306D02*
X125005609Y-145469925D01*
X125005609Y-145469925D02*
X125053228Y-145565163D01*
X125053228Y-145565163D02*
X125053228Y-145946115D01*
X125005609Y-144946115D02*
X125005609Y-144612782D01*
X125529419Y-144469925D02*
X125529419Y-144946115D01*
X125529419Y-144946115D02*
X124529419Y-144946115D01*
X124529419Y-144946115D02*
X124529419Y-144469925D01*
X125529419Y-143517544D02*
X125529419Y-144088972D01*
X125529419Y-143803258D02*
X124529419Y-143803258D01*
X124529419Y-143803258D02*
X124672276Y-143898496D01*
X124672276Y-143898496D02*
X124767514Y-143993734D01*
X124767514Y-143993734D02*
X124815133Y-144088972D01*
X124624657Y-143136591D02*
X124577038Y-143088972D01*
X124577038Y-143088972D02*
X124529419Y-142993734D01*
X124529419Y-142993734D02*
X124529419Y-142755639D01*
X124529419Y-142755639D02*
X124577038Y-142660401D01*
X124577038Y-142660401D02*
X124624657Y-142612782D01*
X124624657Y-142612782D02*
X124719895Y-142565163D01*
X124719895Y-142565163D02*
X124815133Y-142565163D01*
X124815133Y-142565163D02*
X124957990Y-142612782D01*
X124957990Y-142612782D02*
X125529419Y-143184210D01*
X125529419Y-143184210D02*
X125529419Y-142565163D01*
X128155419Y-106186115D02*
X127155419Y-106186115D01*
X127155419Y-106186115D02*
X127155419Y-105805163D01*
X127155419Y-105805163D02*
X127203038Y-105709925D01*
X127203038Y-105709925D02*
X127250657Y-105662306D01*
X127250657Y-105662306D02*
X127345895Y-105614687D01*
X127345895Y-105614687D02*
X127488752Y-105614687D01*
X127488752Y-105614687D02*
X127583990Y-105662306D01*
X127583990Y-105662306D02*
X127631609Y-105709925D01*
X127631609Y-105709925D02*
X127679228Y-105805163D01*
X127679228Y-105805163D02*
X127679228Y-106186115D01*
X127631609Y-104852782D02*
X127679228Y-104709925D01*
X127679228Y-104709925D02*
X127726847Y-104662306D01*
X127726847Y-104662306D02*
X127822085Y-104614687D01*
X127822085Y-104614687D02*
X127964942Y-104614687D01*
X127964942Y-104614687D02*
X128060180Y-104662306D01*
X128060180Y-104662306D02*
X128107800Y-104709925D01*
X128107800Y-104709925D02*
X128155419Y-104805163D01*
X128155419Y-104805163D02*
X128155419Y-105186115D01*
X128155419Y-105186115D02*
X127155419Y-105186115D01*
X127155419Y-105186115D02*
X127155419Y-104852782D01*
X127155419Y-104852782D02*
X127203038Y-104757544D01*
X127203038Y-104757544D02*
X127250657Y-104709925D01*
X127250657Y-104709925D02*
X127345895Y-104662306D01*
X127345895Y-104662306D02*
X127441133Y-104662306D01*
X127441133Y-104662306D02*
X127536371Y-104709925D01*
X127536371Y-104709925D02*
X127583990Y-104757544D01*
X127583990Y-104757544D02*
X127631609Y-104852782D01*
X127631609Y-104852782D02*
X127631609Y-105186115D01*
X127155419Y-104281353D02*
X127155419Y-103662306D01*
X127155419Y-103662306D02*
X127536371Y-103995639D01*
X127536371Y-103995639D02*
X127536371Y-103852782D01*
X127536371Y-103852782D02*
X127583990Y-103757544D01*
X127583990Y-103757544D02*
X127631609Y-103709925D01*
X127631609Y-103709925D02*
X127726847Y-103662306D01*
X127726847Y-103662306D02*
X127964942Y-103662306D01*
X127964942Y-103662306D02*
X128060180Y-103709925D01*
X128060180Y-103709925D02*
X128107800Y-103757544D01*
X128107800Y-103757544D02*
X128155419Y-103852782D01*
X128155419Y-103852782D02*
X128155419Y-104138496D01*
X128155419Y-104138496D02*
X128107800Y-104233734D01*
X128107800Y-104233734D02*
X128060180Y-104281353D01*
X120510919Y-145946115D02*
X119510919Y-145946115D01*
X119510919Y-145946115D02*
X119510919Y-145565163D01*
X119510919Y-145565163D02*
X119558538Y-145469925D01*
X119558538Y-145469925D02*
X119606157Y-145422306D01*
X119606157Y-145422306D02*
X119701395Y-145374687D01*
X119701395Y-145374687D02*
X119844252Y-145374687D01*
X119844252Y-145374687D02*
X119939490Y-145422306D01*
X119939490Y-145422306D02*
X119987109Y-145469925D01*
X119987109Y-145469925D02*
X120034728Y-145565163D01*
X120034728Y-145565163D02*
X120034728Y-145946115D01*
X119987109Y-144946115D02*
X119987109Y-144612782D01*
X120510919Y-144469925D02*
X120510919Y-144946115D01*
X120510919Y-144946115D02*
X119510919Y-144946115D01*
X119510919Y-144946115D02*
X119510919Y-144469925D01*
X120510919Y-143517544D02*
X120510919Y-144088972D01*
X120510919Y-143803258D02*
X119510919Y-143803258D01*
X119510919Y-143803258D02*
X119653776Y-143898496D01*
X119653776Y-143898496D02*
X119749014Y-143993734D01*
X119749014Y-143993734D02*
X119796633Y-144088972D01*
X119510919Y-142898496D02*
X119510919Y-142803258D01*
X119510919Y-142803258D02*
X119558538Y-142708020D01*
X119558538Y-142708020D02*
X119606157Y-142660401D01*
X119606157Y-142660401D02*
X119701395Y-142612782D01*
X119701395Y-142612782D02*
X119891871Y-142565163D01*
X119891871Y-142565163D02*
X120129966Y-142565163D01*
X120129966Y-142565163D02*
X120320442Y-142612782D01*
X120320442Y-142612782D02*
X120415680Y-142660401D01*
X120415680Y-142660401D02*
X120463300Y-142708020D01*
X120463300Y-142708020D02*
X120510919Y-142803258D01*
X120510919Y-142803258D02*
X120510919Y-142898496D01*
X120510919Y-142898496D02*
X120463300Y-142993734D01*
X120463300Y-142993734D02*
X120415680Y-143041353D01*
X120415680Y-143041353D02*
X120320442Y-143088972D01*
X120320442Y-143088972D02*
X120129966Y-143136591D01*
X120129966Y-143136591D02*
X119891871Y-143136591D01*
X119891871Y-143136591D02*
X119701395Y-143088972D01*
X119701395Y-143088972D02*
X119606157Y-143041353D01*
X119606157Y-143041353D02*
X119558538Y-142993734D01*
X119558538Y-142993734D02*
X119510919Y-142898496D01*
X143381419Y-106186115D02*
X142381419Y-106186115D01*
X142381419Y-106186115D02*
X142381419Y-105805163D01*
X142381419Y-105805163D02*
X142429038Y-105709925D01*
X142429038Y-105709925D02*
X142476657Y-105662306D01*
X142476657Y-105662306D02*
X142571895Y-105614687D01*
X142571895Y-105614687D02*
X142714752Y-105614687D01*
X142714752Y-105614687D02*
X142809990Y-105662306D01*
X142809990Y-105662306D02*
X142857609Y-105709925D01*
X142857609Y-105709925D02*
X142905228Y-105805163D01*
X142905228Y-105805163D02*
X142905228Y-106186115D01*
X143381419Y-105186115D02*
X142381419Y-105186115D01*
X142381419Y-105186115D02*
X142381419Y-104948020D01*
X142381419Y-104948020D02*
X142429038Y-104805163D01*
X142429038Y-104805163D02*
X142524276Y-104709925D01*
X142524276Y-104709925D02*
X142619514Y-104662306D01*
X142619514Y-104662306D02*
X142809990Y-104614687D01*
X142809990Y-104614687D02*
X142952847Y-104614687D01*
X142952847Y-104614687D02*
X143143323Y-104662306D01*
X143143323Y-104662306D02*
X143238561Y-104709925D01*
X143238561Y-104709925D02*
X143333800Y-104805163D01*
X143333800Y-104805163D02*
X143381419Y-104948020D01*
X143381419Y-104948020D02*
X143381419Y-105186115D01*
X142476657Y-104233734D02*
X142429038Y-104186115D01*
X142429038Y-104186115D02*
X142381419Y-104090877D01*
X142381419Y-104090877D02*
X142381419Y-103852782D01*
X142381419Y-103852782D02*
X142429038Y-103757544D01*
X142429038Y-103757544D02*
X142476657Y-103709925D01*
X142476657Y-103709925D02*
X142571895Y-103662306D01*
X142571895Y-103662306D02*
X142667133Y-103662306D01*
X142667133Y-103662306D02*
X142809990Y-103709925D01*
X142809990Y-103709925D02*
X143381419Y-104281353D01*
X143381419Y-104281353D02*
X143381419Y-103662306D01*
X110303419Y-145946115D02*
X109303419Y-145946115D01*
X109303419Y-145946115D02*
X109303419Y-145565163D01*
X109303419Y-145565163D02*
X109351038Y-145469925D01*
X109351038Y-145469925D02*
X109398657Y-145422306D01*
X109398657Y-145422306D02*
X109493895Y-145374687D01*
X109493895Y-145374687D02*
X109636752Y-145374687D01*
X109636752Y-145374687D02*
X109731990Y-145422306D01*
X109731990Y-145422306D02*
X109779609Y-145469925D01*
X109779609Y-145469925D02*
X109827228Y-145565163D01*
X109827228Y-145565163D02*
X109827228Y-145946115D01*
X109779609Y-144612782D02*
X109827228Y-144469925D01*
X109827228Y-144469925D02*
X109874847Y-144422306D01*
X109874847Y-144422306D02*
X109970085Y-144374687D01*
X109970085Y-144374687D02*
X110112942Y-144374687D01*
X110112942Y-144374687D02*
X110208180Y-144422306D01*
X110208180Y-144422306D02*
X110255800Y-144469925D01*
X110255800Y-144469925D02*
X110303419Y-144565163D01*
X110303419Y-144565163D02*
X110303419Y-144946115D01*
X110303419Y-144946115D02*
X109303419Y-144946115D01*
X109303419Y-144946115D02*
X109303419Y-144612782D01*
X109303419Y-144612782D02*
X109351038Y-144517544D01*
X109351038Y-144517544D02*
X109398657Y-144469925D01*
X109398657Y-144469925D02*
X109493895Y-144422306D01*
X109493895Y-144422306D02*
X109589133Y-144422306D01*
X109589133Y-144422306D02*
X109684371Y-144469925D01*
X109684371Y-144469925D02*
X109731990Y-144517544D01*
X109731990Y-144517544D02*
X109779609Y-144612782D01*
X109779609Y-144612782D02*
X109779609Y-144946115D01*
X109398657Y-143993734D02*
X109351038Y-143946115D01*
X109351038Y-143946115D02*
X109303419Y-143850877D01*
X109303419Y-143850877D02*
X109303419Y-143612782D01*
X109303419Y-143612782D02*
X109351038Y-143517544D01*
X109351038Y-143517544D02*
X109398657Y-143469925D01*
X109398657Y-143469925D02*
X109493895Y-143422306D01*
X109493895Y-143422306D02*
X109589133Y-143422306D01*
X109589133Y-143422306D02*
X109731990Y-143469925D01*
X109731990Y-143469925D02*
X110303419Y-144041353D01*
X110303419Y-144041353D02*
X110303419Y-143422306D01*
X103803884Y-131122419D02*
X103803884Y-130122419D01*
X103803884Y-130122419D02*
X104184836Y-130122419D01*
X104184836Y-130122419D02*
X104280074Y-130170038D01*
X104280074Y-130170038D02*
X104327693Y-130217657D01*
X104327693Y-130217657D02*
X104375312Y-130312895D01*
X104375312Y-130312895D02*
X104375312Y-130455752D01*
X104375312Y-130455752D02*
X104327693Y-130550990D01*
X104327693Y-130550990D02*
X104280074Y-130598609D01*
X104280074Y-130598609D02*
X104184836Y-130646228D01*
X104184836Y-130646228D02*
X103803884Y-130646228D01*
X104756265Y-130836704D02*
X105232455Y-130836704D01*
X104661027Y-131122419D02*
X104994360Y-130122419D01*
X104994360Y-130122419D02*
X105327693Y-131122419D01*
X106089598Y-130455752D02*
X106089598Y-131122419D01*
X105851503Y-130074800D02*
X105613408Y-130789085D01*
X105613408Y-130789085D02*
X106232455Y-130789085D01*
X102372419Y-145946115D02*
X101372419Y-145946115D01*
X101372419Y-145946115D02*
X101372419Y-145565163D01*
X101372419Y-145565163D02*
X101420038Y-145469925D01*
X101420038Y-145469925D02*
X101467657Y-145422306D01*
X101467657Y-145422306D02*
X101562895Y-145374687D01*
X101562895Y-145374687D02*
X101705752Y-145374687D01*
X101705752Y-145374687D02*
X101800990Y-145422306D01*
X101800990Y-145422306D02*
X101848609Y-145469925D01*
X101848609Y-145469925D02*
X101896228Y-145565163D01*
X101896228Y-145565163D02*
X101896228Y-145946115D01*
X102277180Y-144374687D02*
X102324800Y-144422306D01*
X102324800Y-144422306D02*
X102372419Y-144565163D01*
X102372419Y-144565163D02*
X102372419Y-144660401D01*
X102372419Y-144660401D02*
X102324800Y-144803258D01*
X102324800Y-144803258D02*
X102229561Y-144898496D01*
X102229561Y-144898496D02*
X102134323Y-144946115D01*
X102134323Y-144946115D02*
X101943847Y-144993734D01*
X101943847Y-144993734D02*
X101800990Y-144993734D01*
X101800990Y-144993734D02*
X101610514Y-144946115D01*
X101610514Y-144946115D02*
X101515276Y-144898496D01*
X101515276Y-144898496D02*
X101420038Y-144803258D01*
X101420038Y-144803258D02*
X101372419Y-144660401D01*
X101372419Y-144660401D02*
X101372419Y-144565163D01*
X101372419Y-144565163D02*
X101420038Y-144422306D01*
X101420038Y-144422306D02*
X101467657Y-144374687D01*
X101372419Y-143469925D02*
X101372419Y-143946115D01*
X101372419Y-143946115D02*
X101848609Y-143993734D01*
X101848609Y-143993734D02*
X101800990Y-143946115D01*
X101800990Y-143946115D02*
X101753371Y-143850877D01*
X101753371Y-143850877D02*
X101753371Y-143612782D01*
X101753371Y-143612782D02*
X101800990Y-143517544D01*
X101800990Y-143517544D02*
X101848609Y-143469925D01*
X101848609Y-143469925D02*
X101943847Y-143422306D01*
X101943847Y-143422306D02*
X102181942Y-143422306D01*
X102181942Y-143422306D02*
X102277180Y-143469925D01*
X102277180Y-143469925D02*
X102324800Y-143517544D01*
X102324800Y-143517544D02*
X102372419Y-143612782D01*
X102372419Y-143612782D02*
X102372419Y-143850877D01*
X102372419Y-143850877D02*
X102324800Y-143946115D01*
X102324800Y-143946115D02*
X102277180Y-143993734D01*
X105284919Y-145946115D02*
X104284919Y-145946115D01*
X104284919Y-145946115D02*
X104284919Y-145565163D01*
X104284919Y-145565163D02*
X104332538Y-145469925D01*
X104332538Y-145469925D02*
X104380157Y-145422306D01*
X104380157Y-145422306D02*
X104475395Y-145374687D01*
X104475395Y-145374687D02*
X104618252Y-145374687D01*
X104618252Y-145374687D02*
X104713490Y-145422306D01*
X104713490Y-145422306D02*
X104761109Y-145469925D01*
X104761109Y-145469925D02*
X104808728Y-145565163D01*
X104808728Y-145565163D02*
X104808728Y-145946115D01*
X104761109Y-144612782D02*
X104808728Y-144469925D01*
X104808728Y-144469925D02*
X104856347Y-144422306D01*
X104856347Y-144422306D02*
X104951585Y-144374687D01*
X104951585Y-144374687D02*
X105094442Y-144374687D01*
X105094442Y-144374687D02*
X105189680Y-144422306D01*
X105189680Y-144422306D02*
X105237300Y-144469925D01*
X105237300Y-144469925D02*
X105284919Y-144565163D01*
X105284919Y-144565163D02*
X105284919Y-144946115D01*
X105284919Y-144946115D02*
X104284919Y-144946115D01*
X104284919Y-144946115D02*
X104284919Y-144612782D01*
X104284919Y-144612782D02*
X104332538Y-144517544D01*
X104332538Y-144517544D02*
X104380157Y-144469925D01*
X104380157Y-144469925D02*
X104475395Y-144422306D01*
X104475395Y-144422306D02*
X104570633Y-144422306D01*
X104570633Y-144422306D02*
X104665871Y-144469925D01*
X104665871Y-144469925D02*
X104713490Y-144517544D01*
X104713490Y-144517544D02*
X104761109Y-144612782D01*
X104761109Y-144612782D02*
X104761109Y-144946115D01*
X104284919Y-143755639D02*
X104284919Y-143660401D01*
X104284919Y-143660401D02*
X104332538Y-143565163D01*
X104332538Y-143565163D02*
X104380157Y-143517544D01*
X104380157Y-143517544D02*
X104475395Y-143469925D01*
X104475395Y-143469925D02*
X104665871Y-143422306D01*
X104665871Y-143422306D02*
X104903966Y-143422306D01*
X104903966Y-143422306D02*
X105094442Y-143469925D01*
X105094442Y-143469925D02*
X105189680Y-143517544D01*
X105189680Y-143517544D02*
X105237300Y-143565163D01*
X105237300Y-143565163D02*
X105284919Y-143660401D01*
X105284919Y-143660401D02*
X105284919Y-143755639D01*
X105284919Y-143755639D02*
X105237300Y-143850877D01*
X105237300Y-143850877D02*
X105189680Y-143898496D01*
X105189680Y-143898496D02*
X105094442Y-143946115D01*
X105094442Y-143946115D02*
X104903966Y-143993734D01*
X104903966Y-143993734D02*
X104665871Y-143993734D01*
X104665871Y-143993734D02*
X104475395Y-143946115D01*
X104475395Y-143946115D02*
X104380157Y-143898496D01*
X104380157Y-143898496D02*
X104332538Y-143850877D01*
X104332538Y-143850877D02*
X104284919Y-143755639D01*
X131303884Y-147872419D02*
X131303884Y-146872419D01*
X131303884Y-146872419D02*
X131684836Y-146872419D01*
X131684836Y-146872419D02*
X131780074Y-146920038D01*
X131780074Y-146920038D02*
X131827693Y-146967657D01*
X131827693Y-146967657D02*
X131875312Y-147062895D01*
X131875312Y-147062895D02*
X131875312Y-147205752D01*
X131875312Y-147205752D02*
X131827693Y-147300990D01*
X131827693Y-147300990D02*
X131780074Y-147348609D01*
X131780074Y-147348609D02*
X131684836Y-147396228D01*
X131684836Y-147396228D02*
X131303884Y-147396228D01*
X132303884Y-147348609D02*
X132637217Y-147348609D01*
X132780074Y-147872419D02*
X132303884Y-147872419D01*
X132303884Y-147872419D02*
X132303884Y-146872419D01*
X132303884Y-146872419D02*
X132780074Y-146872419D01*
X133732455Y-147872419D02*
X133161027Y-147872419D01*
X133446741Y-147872419D02*
X133446741Y-146872419D01*
X133446741Y-146872419D02*
X133351503Y-147015276D01*
X133351503Y-147015276D02*
X133256265Y-147110514D01*
X133256265Y-147110514D02*
X133161027Y-147158133D01*
X134589598Y-147205752D02*
X134589598Y-147872419D01*
X134351503Y-146824800D02*
X134113408Y-147539085D01*
X134113408Y-147539085D02*
X134732455Y-147539085D01*
X145917419Y-106186115D02*
X144917419Y-106186115D01*
X144917419Y-106186115D02*
X144917419Y-105805163D01*
X144917419Y-105805163D02*
X144965038Y-105709925D01*
X144965038Y-105709925D02*
X145012657Y-105662306D01*
X145012657Y-105662306D02*
X145107895Y-105614687D01*
X145107895Y-105614687D02*
X145250752Y-105614687D01*
X145250752Y-105614687D02*
X145345990Y-105662306D01*
X145345990Y-105662306D02*
X145393609Y-105709925D01*
X145393609Y-105709925D02*
X145441228Y-105805163D01*
X145441228Y-105805163D02*
X145441228Y-106186115D01*
X145917419Y-105186115D02*
X144917419Y-105186115D01*
X144917419Y-105186115D02*
X144917419Y-104948020D01*
X144917419Y-104948020D02*
X144965038Y-104805163D01*
X144965038Y-104805163D02*
X145060276Y-104709925D01*
X145060276Y-104709925D02*
X145155514Y-104662306D01*
X145155514Y-104662306D02*
X145345990Y-104614687D01*
X145345990Y-104614687D02*
X145488847Y-104614687D01*
X145488847Y-104614687D02*
X145679323Y-104662306D01*
X145679323Y-104662306D02*
X145774561Y-104709925D01*
X145774561Y-104709925D02*
X145869800Y-104805163D01*
X145869800Y-104805163D02*
X145917419Y-104948020D01*
X145917419Y-104948020D02*
X145917419Y-105186115D01*
X145917419Y-103662306D02*
X145917419Y-104233734D01*
X145917419Y-103948020D02*
X144917419Y-103948020D01*
X144917419Y-103948020D02*
X145060276Y-104043258D01*
X145060276Y-104043258D02*
X145155514Y-104138496D01*
X145155514Y-104138496D02*
X145203133Y-104233734D01*
X135672419Y-106186115D02*
X134672419Y-106186115D01*
X134672419Y-106186115D02*
X134672419Y-105805163D01*
X134672419Y-105805163D02*
X134720038Y-105709925D01*
X134720038Y-105709925D02*
X134767657Y-105662306D01*
X134767657Y-105662306D02*
X134862895Y-105614687D01*
X134862895Y-105614687D02*
X135005752Y-105614687D01*
X135005752Y-105614687D02*
X135100990Y-105662306D01*
X135100990Y-105662306D02*
X135148609Y-105709925D01*
X135148609Y-105709925D02*
X135196228Y-105805163D01*
X135196228Y-105805163D02*
X135196228Y-106186115D01*
X135672419Y-105186115D02*
X134672419Y-105186115D01*
X134672419Y-105186115D02*
X134672419Y-104948020D01*
X134672419Y-104948020D02*
X134720038Y-104805163D01*
X134720038Y-104805163D02*
X134815276Y-104709925D01*
X134815276Y-104709925D02*
X134910514Y-104662306D01*
X134910514Y-104662306D02*
X135100990Y-104614687D01*
X135100990Y-104614687D02*
X135243847Y-104614687D01*
X135243847Y-104614687D02*
X135434323Y-104662306D01*
X135434323Y-104662306D02*
X135529561Y-104709925D01*
X135529561Y-104709925D02*
X135624800Y-104805163D01*
X135624800Y-104805163D02*
X135672419Y-104948020D01*
X135672419Y-104948020D02*
X135672419Y-105186115D01*
X134672419Y-103709925D02*
X134672419Y-104186115D01*
X134672419Y-104186115D02*
X135148609Y-104233734D01*
X135148609Y-104233734D02*
X135100990Y-104186115D01*
X135100990Y-104186115D02*
X135053371Y-104090877D01*
X135053371Y-104090877D02*
X135053371Y-103852782D01*
X135053371Y-103852782D02*
X135100990Y-103757544D01*
X135100990Y-103757544D02*
X135148609Y-103709925D01*
X135148609Y-103709925D02*
X135243847Y-103662306D01*
X135243847Y-103662306D02*
X135481942Y-103662306D01*
X135481942Y-103662306D02*
X135577180Y-103709925D01*
X135577180Y-103709925D02*
X135624800Y-103757544D01*
X135624800Y-103757544D02*
X135672419Y-103852782D01*
X135672419Y-103852782D02*
X135672419Y-104090877D01*
X135672419Y-104090877D02*
X135624800Y-104186115D01*
X135624800Y-104186115D02*
X135577180Y-104233734D01*
X122922419Y-145946115D02*
X121922419Y-145946115D01*
X121922419Y-145946115D02*
X121922419Y-145565163D01*
X121922419Y-145565163D02*
X121970038Y-145469925D01*
X121970038Y-145469925D02*
X122017657Y-145422306D01*
X122017657Y-145422306D02*
X122112895Y-145374687D01*
X122112895Y-145374687D02*
X122255752Y-145374687D01*
X122255752Y-145374687D02*
X122350990Y-145422306D01*
X122350990Y-145422306D02*
X122398609Y-145469925D01*
X122398609Y-145469925D02*
X122446228Y-145565163D01*
X122446228Y-145565163D02*
X122446228Y-145946115D01*
X122398609Y-144946115D02*
X122398609Y-144612782D01*
X122922419Y-144469925D02*
X122922419Y-144946115D01*
X122922419Y-144946115D02*
X121922419Y-144946115D01*
X121922419Y-144946115D02*
X121922419Y-144469925D01*
X122922419Y-143517544D02*
X122922419Y-144088972D01*
X122922419Y-143803258D02*
X121922419Y-143803258D01*
X121922419Y-143803258D02*
X122065276Y-143898496D01*
X122065276Y-143898496D02*
X122160514Y-143993734D01*
X122160514Y-143993734D02*
X122208133Y-144088972D01*
X122922419Y-142565163D02*
X122922419Y-143136591D01*
X122922419Y-142850877D02*
X121922419Y-142850877D01*
X121922419Y-142850877D02*
X122065276Y-142946115D01*
X122065276Y-142946115D02*
X122160514Y-143041353D01*
X122160514Y-143041353D02*
X122208133Y-143136591D01*
X130803884Y-142572419D02*
X130803884Y-141572419D01*
X130803884Y-141572419D02*
X131184836Y-141572419D01*
X131184836Y-141572419D02*
X131280074Y-141620038D01*
X131280074Y-141620038D02*
X131327693Y-141667657D01*
X131327693Y-141667657D02*
X131375312Y-141762895D01*
X131375312Y-141762895D02*
X131375312Y-141905752D01*
X131375312Y-141905752D02*
X131327693Y-142000990D01*
X131327693Y-142000990D02*
X131280074Y-142048609D01*
X131280074Y-142048609D02*
X131184836Y-142096228D01*
X131184836Y-142096228D02*
X130803884Y-142096228D01*
X132137217Y-142048609D02*
X132280074Y-142096228D01*
X132280074Y-142096228D02*
X132327693Y-142143847D01*
X132327693Y-142143847D02*
X132375312Y-142239085D01*
X132375312Y-142239085D02*
X132375312Y-142381942D01*
X132375312Y-142381942D02*
X132327693Y-142477180D01*
X132327693Y-142477180D02*
X132280074Y-142524800D01*
X132280074Y-142524800D02*
X132184836Y-142572419D01*
X132184836Y-142572419D02*
X131803884Y-142572419D01*
X131803884Y-142572419D02*
X131803884Y-141572419D01*
X131803884Y-141572419D02*
X132137217Y-141572419D01*
X132137217Y-141572419D02*
X132232455Y-141620038D01*
X132232455Y-141620038D02*
X132280074Y-141667657D01*
X132280074Y-141667657D02*
X132327693Y-141762895D01*
X132327693Y-141762895D02*
X132327693Y-141858133D01*
X132327693Y-141858133D02*
X132280074Y-141953371D01*
X132280074Y-141953371D02*
X132232455Y-142000990D01*
X132232455Y-142000990D02*
X132137217Y-142048609D01*
X132137217Y-142048609D02*
X131803884Y-142048609D01*
X133327693Y-142572419D02*
X132756265Y-142572419D01*
X133041979Y-142572419D02*
X133041979Y-141572419D01*
X133041979Y-141572419D02*
X132946741Y-141715276D01*
X132946741Y-141715276D02*
X132851503Y-141810514D01*
X132851503Y-141810514D02*
X132756265Y-141858133D01*
X133946741Y-141572419D02*
X134041979Y-141572419D01*
X134041979Y-141572419D02*
X134137217Y-141620038D01*
X134137217Y-141620038D02*
X134184836Y-141667657D01*
X134184836Y-141667657D02*
X134232455Y-141762895D01*
X134232455Y-141762895D02*
X134280074Y-141953371D01*
X134280074Y-141953371D02*
X134280074Y-142191466D01*
X134280074Y-142191466D02*
X134232455Y-142381942D01*
X134232455Y-142381942D02*
X134184836Y-142477180D01*
X134184836Y-142477180D02*
X134137217Y-142524800D01*
X134137217Y-142524800D02*
X134041979Y-142572419D01*
X134041979Y-142572419D02*
X133946741Y-142572419D01*
X133946741Y-142572419D02*
X133851503Y-142524800D01*
X133851503Y-142524800D02*
X133803884Y-142477180D01*
X133803884Y-142477180D02*
X133756265Y-142381942D01*
X133756265Y-142381942D02*
X133708646Y-142191466D01*
X133708646Y-142191466D02*
X133708646Y-141953371D01*
X133708646Y-141953371D02*
X133756265Y-141762895D01*
X133756265Y-141762895D02*
X133803884Y-141667657D01*
X133803884Y-141667657D02*
X133851503Y-141620038D01*
X133851503Y-141620038D02*
X133946741Y-141572419D01*
X133065419Y-106186115D02*
X132065419Y-106186115D01*
X132065419Y-106186115D02*
X132065419Y-105805163D01*
X132065419Y-105805163D02*
X132113038Y-105709925D01*
X132113038Y-105709925D02*
X132160657Y-105662306D01*
X132160657Y-105662306D02*
X132255895Y-105614687D01*
X132255895Y-105614687D02*
X132398752Y-105614687D01*
X132398752Y-105614687D02*
X132493990Y-105662306D01*
X132493990Y-105662306D02*
X132541609Y-105709925D01*
X132541609Y-105709925D02*
X132589228Y-105805163D01*
X132589228Y-105805163D02*
X132589228Y-106186115D01*
X133065419Y-105186115D02*
X132065419Y-105186115D01*
X132065419Y-105186115D02*
X132065419Y-104948020D01*
X132065419Y-104948020D02*
X132113038Y-104805163D01*
X132113038Y-104805163D02*
X132208276Y-104709925D01*
X132208276Y-104709925D02*
X132303514Y-104662306D01*
X132303514Y-104662306D02*
X132493990Y-104614687D01*
X132493990Y-104614687D02*
X132636847Y-104614687D01*
X132636847Y-104614687D02*
X132827323Y-104662306D01*
X132827323Y-104662306D02*
X132922561Y-104709925D01*
X132922561Y-104709925D02*
X133017800Y-104805163D01*
X133017800Y-104805163D02*
X133065419Y-104948020D01*
X133065419Y-104948020D02*
X133065419Y-105186115D01*
X132065419Y-103757544D02*
X132065419Y-103948020D01*
X132065419Y-103948020D02*
X132113038Y-104043258D01*
X132113038Y-104043258D02*
X132160657Y-104090877D01*
X132160657Y-104090877D02*
X132303514Y-104186115D01*
X132303514Y-104186115D02*
X132493990Y-104233734D01*
X132493990Y-104233734D02*
X132874942Y-104233734D01*
X132874942Y-104233734D02*
X132970180Y-104186115D01*
X132970180Y-104186115D02*
X133017800Y-104138496D01*
X133017800Y-104138496D02*
X133065419Y-104043258D01*
X133065419Y-104043258D02*
X133065419Y-103852782D01*
X133065419Y-103852782D02*
X133017800Y-103757544D01*
X133017800Y-103757544D02*
X132970180Y-103709925D01*
X132970180Y-103709925D02*
X132874942Y-103662306D01*
X132874942Y-103662306D02*
X132636847Y-103662306D01*
X132636847Y-103662306D02*
X132541609Y-103709925D01*
X132541609Y-103709925D02*
X132493990Y-103757544D01*
X132493990Y-103757544D02*
X132446371Y-103852782D01*
X132446371Y-103852782D02*
X132446371Y-104043258D01*
X132446371Y-104043258D02*
X132493990Y-104138496D01*
X132493990Y-104138496D02*
X132541609Y-104186115D01*
X132541609Y-104186115D02*
X132636847Y-104233734D01*
X140774419Y-106186115D02*
X139774419Y-106186115D01*
X139774419Y-106186115D02*
X139774419Y-105805163D01*
X139774419Y-105805163D02*
X139822038Y-105709925D01*
X139822038Y-105709925D02*
X139869657Y-105662306D01*
X139869657Y-105662306D02*
X139964895Y-105614687D01*
X139964895Y-105614687D02*
X140107752Y-105614687D01*
X140107752Y-105614687D02*
X140202990Y-105662306D01*
X140202990Y-105662306D02*
X140250609Y-105709925D01*
X140250609Y-105709925D02*
X140298228Y-105805163D01*
X140298228Y-105805163D02*
X140298228Y-106186115D01*
X140774419Y-105186115D02*
X139774419Y-105186115D01*
X139774419Y-105186115D02*
X139774419Y-104948020D01*
X139774419Y-104948020D02*
X139822038Y-104805163D01*
X139822038Y-104805163D02*
X139917276Y-104709925D01*
X139917276Y-104709925D02*
X140012514Y-104662306D01*
X140012514Y-104662306D02*
X140202990Y-104614687D01*
X140202990Y-104614687D02*
X140345847Y-104614687D01*
X140345847Y-104614687D02*
X140536323Y-104662306D01*
X140536323Y-104662306D02*
X140631561Y-104709925D01*
X140631561Y-104709925D02*
X140726800Y-104805163D01*
X140726800Y-104805163D02*
X140774419Y-104948020D01*
X140774419Y-104948020D02*
X140774419Y-105186115D01*
X139774419Y-104281353D02*
X139774419Y-103662306D01*
X139774419Y-103662306D02*
X140155371Y-103995639D01*
X140155371Y-103995639D02*
X140155371Y-103852782D01*
X140155371Y-103852782D02*
X140202990Y-103757544D01*
X140202990Y-103757544D02*
X140250609Y-103709925D01*
X140250609Y-103709925D02*
X140345847Y-103662306D01*
X140345847Y-103662306D02*
X140583942Y-103662306D01*
X140583942Y-103662306D02*
X140679180Y-103709925D01*
X140679180Y-103709925D02*
X140726800Y-103757544D01*
X140726800Y-103757544D02*
X140774419Y-103852782D01*
X140774419Y-103852782D02*
X140774419Y-104138496D01*
X140774419Y-104138496D02*
X140726800Y-104233734D01*
X140726800Y-104233734D02*
X140679180Y-104281353D01*
X103923884Y-115220919D02*
X103923884Y-114220919D01*
X103923884Y-114220919D02*
X104304836Y-114220919D01*
X104304836Y-114220919D02*
X104400074Y-114268538D01*
X104400074Y-114268538D02*
X104447693Y-114316157D01*
X104447693Y-114316157D02*
X104495312Y-114411395D01*
X104495312Y-114411395D02*
X104495312Y-114554252D01*
X104495312Y-114554252D02*
X104447693Y-114649490D01*
X104447693Y-114649490D02*
X104400074Y-114697109D01*
X104400074Y-114697109D02*
X104304836Y-114744728D01*
X104304836Y-114744728D02*
X103923884Y-114744728D01*
X104923884Y-114697109D02*
X105257217Y-114697109D01*
X105400074Y-115220919D02*
X104923884Y-115220919D01*
X104923884Y-115220919D02*
X104923884Y-114220919D01*
X104923884Y-114220919D02*
X105400074Y-114220919D01*
X106304836Y-114220919D02*
X105828646Y-114220919D01*
X105828646Y-114220919D02*
X105781027Y-114697109D01*
X105781027Y-114697109D02*
X105828646Y-114649490D01*
X105828646Y-114649490D02*
X105923884Y-114601871D01*
X105923884Y-114601871D02*
X106161979Y-114601871D01*
X106161979Y-114601871D02*
X106257217Y-114649490D01*
X106257217Y-114649490D02*
X106304836Y-114697109D01*
X106304836Y-114697109D02*
X106352455Y-114792347D01*
X106352455Y-114792347D02*
X106352455Y-115030442D01*
X106352455Y-115030442D02*
X106304836Y-115125680D01*
X106304836Y-115125680D02*
X106257217Y-115173300D01*
X106257217Y-115173300D02*
X106161979Y-115220919D01*
X106161979Y-115220919D02*
X105923884Y-115220919D01*
X105923884Y-115220919D02*
X105828646Y-115173300D01*
X105828646Y-115173300D02*
X105781027Y-115125680D01*
X120224419Y-106090877D02*
X119224419Y-106090877D01*
X119224419Y-106090877D02*
X119224419Y-105709925D01*
X119224419Y-105709925D02*
X119272038Y-105614687D01*
X119272038Y-105614687D02*
X119319657Y-105567068D01*
X119319657Y-105567068D02*
X119414895Y-105519449D01*
X119414895Y-105519449D02*
X119557752Y-105519449D01*
X119557752Y-105519449D02*
X119652990Y-105567068D01*
X119652990Y-105567068D02*
X119700609Y-105614687D01*
X119700609Y-105614687D02*
X119748228Y-105709925D01*
X119748228Y-105709925D02*
X119748228Y-106090877D01*
X119700609Y-105090877D02*
X119700609Y-104757544D01*
X120224419Y-104614687D02*
X120224419Y-105090877D01*
X120224419Y-105090877D02*
X119224419Y-105090877D01*
X119224419Y-105090877D02*
X119224419Y-104614687D01*
X120224419Y-103662306D02*
X120224419Y-104233734D01*
X120224419Y-103948020D02*
X119224419Y-103948020D01*
X119224419Y-103948020D02*
X119367276Y-104043258D01*
X119367276Y-104043258D02*
X119462514Y-104138496D01*
X119462514Y-104138496D02*
X119510133Y-104233734D01*
X133762456Y-137445419D02*
X133762456Y-136445419D01*
X133762456Y-136445419D02*
X134143408Y-136445419D01*
X134143408Y-136445419D02*
X134238646Y-136493038D01*
X134238646Y-136493038D02*
X134286265Y-136540657D01*
X134286265Y-136540657D02*
X134333884Y-136635895D01*
X134333884Y-136635895D02*
X134333884Y-136778752D01*
X134333884Y-136778752D02*
X134286265Y-136873990D01*
X134286265Y-136873990D02*
X134238646Y-136921609D01*
X134238646Y-136921609D02*
X134143408Y-136969228D01*
X134143408Y-136969228D02*
X133762456Y-136969228D01*
X135333884Y-137350180D02*
X135286265Y-137397800D01*
X135286265Y-137397800D02*
X135143408Y-137445419D01*
X135143408Y-137445419D02*
X135048170Y-137445419D01*
X135048170Y-137445419D02*
X134905313Y-137397800D01*
X134905313Y-137397800D02*
X134810075Y-137302561D01*
X134810075Y-137302561D02*
X134762456Y-137207323D01*
X134762456Y-137207323D02*
X134714837Y-137016847D01*
X134714837Y-137016847D02*
X134714837Y-136873990D01*
X134714837Y-136873990D02*
X134762456Y-136683514D01*
X134762456Y-136683514D02*
X134810075Y-136588276D01*
X134810075Y-136588276D02*
X134905313Y-136493038D01*
X134905313Y-136493038D02*
X135048170Y-136445419D01*
X135048170Y-136445419D02*
X135143408Y-136445419D01*
X135143408Y-136445419D02*
X135286265Y-136493038D01*
X135286265Y-136493038D02*
X135333884Y-136540657D01*
X136191027Y-136445419D02*
X136000551Y-136445419D01*
X136000551Y-136445419D02*
X135905313Y-136493038D01*
X135905313Y-136493038D02*
X135857694Y-136540657D01*
X135857694Y-136540657D02*
X135762456Y-136683514D01*
X135762456Y-136683514D02*
X135714837Y-136873990D01*
X135714837Y-136873990D02*
X135714837Y-137254942D01*
X135714837Y-137254942D02*
X135762456Y-137350180D01*
X135762456Y-137350180D02*
X135810075Y-137397800D01*
X135810075Y-137397800D02*
X135905313Y-137445419D01*
X135905313Y-137445419D02*
X136095789Y-137445419D01*
X136095789Y-137445419D02*
X136191027Y-137397800D01*
X136191027Y-137397800D02*
X136238646Y-137350180D01*
X136238646Y-137350180D02*
X136286265Y-137254942D01*
X136286265Y-137254942D02*
X136286265Y-137016847D01*
X136286265Y-137016847D02*
X136238646Y-136921609D01*
X136238646Y-136921609D02*
X136191027Y-136873990D01*
X136191027Y-136873990D02*
X136095789Y-136826371D01*
X136095789Y-136826371D02*
X135905313Y-136826371D01*
X135905313Y-136826371D02*
X135810075Y-136873990D01*
X135810075Y-136873990D02*
X135762456Y-136921609D01*
X135762456Y-136921609D02*
X135714837Y-137016847D01*
X103803884Y-136372419D02*
X103803884Y-135372419D01*
X103803884Y-135372419D02*
X104184836Y-135372419D01*
X104184836Y-135372419D02*
X104280074Y-135420038D01*
X104280074Y-135420038D02*
X104327693Y-135467657D01*
X104327693Y-135467657D02*
X104375312Y-135562895D01*
X104375312Y-135562895D02*
X104375312Y-135705752D01*
X104375312Y-135705752D02*
X104327693Y-135800990D01*
X104327693Y-135800990D02*
X104280074Y-135848609D01*
X104280074Y-135848609D02*
X104184836Y-135896228D01*
X104184836Y-135896228D02*
X103803884Y-135896228D01*
X104756265Y-136086704D02*
X105232455Y-136086704D01*
X104661027Y-136372419D02*
X104994360Y-135372419D01*
X104994360Y-135372419D02*
X105327693Y-136372419D01*
X106089598Y-135372419D02*
X105899122Y-135372419D01*
X105899122Y-135372419D02*
X105803884Y-135420038D01*
X105803884Y-135420038D02*
X105756265Y-135467657D01*
X105756265Y-135467657D02*
X105661027Y-135610514D01*
X105661027Y-135610514D02*
X105613408Y-135800990D01*
X105613408Y-135800990D02*
X105613408Y-136181942D01*
X105613408Y-136181942D02*
X105661027Y-136277180D01*
X105661027Y-136277180D02*
X105708646Y-136324800D01*
X105708646Y-136324800D02*
X105803884Y-136372419D01*
X105803884Y-136372419D02*
X105994360Y-136372419D01*
X105994360Y-136372419D02*
X106089598Y-136324800D01*
X106089598Y-136324800D02*
X106137217Y-136277180D01*
X106137217Y-136277180D02*
X106184836Y-136181942D01*
X106184836Y-136181942D02*
X106184836Y-135943847D01*
X106184836Y-135943847D02*
X106137217Y-135848609D01*
X106137217Y-135848609D02*
X106089598Y-135800990D01*
X106089598Y-135800990D02*
X105994360Y-135753371D01*
X105994360Y-135753371D02*
X105803884Y-135753371D01*
X105803884Y-135753371D02*
X105708646Y-135800990D01*
X105708646Y-135800990D02*
X105661027Y-135848609D01*
X105661027Y-135848609D02*
X105613408Y-135943847D01*
X103803884Y-141622419D02*
X103803884Y-140622419D01*
X103803884Y-140622419D02*
X104184836Y-140622419D01*
X104184836Y-140622419D02*
X104280074Y-140670038D01*
X104280074Y-140670038D02*
X104327693Y-140717657D01*
X104327693Y-140717657D02*
X104375312Y-140812895D01*
X104375312Y-140812895D02*
X104375312Y-140955752D01*
X104375312Y-140955752D02*
X104327693Y-141050990D01*
X104327693Y-141050990D02*
X104280074Y-141098609D01*
X104280074Y-141098609D02*
X104184836Y-141146228D01*
X104184836Y-141146228D02*
X103803884Y-141146228D01*
X105375312Y-141527180D02*
X105327693Y-141574800D01*
X105327693Y-141574800D02*
X105184836Y-141622419D01*
X105184836Y-141622419D02*
X105089598Y-141622419D01*
X105089598Y-141622419D02*
X104946741Y-141574800D01*
X104946741Y-141574800D02*
X104851503Y-141479561D01*
X104851503Y-141479561D02*
X104803884Y-141384323D01*
X104803884Y-141384323D02*
X104756265Y-141193847D01*
X104756265Y-141193847D02*
X104756265Y-141050990D01*
X104756265Y-141050990D02*
X104803884Y-140860514D01*
X104803884Y-140860514D02*
X104851503Y-140765276D01*
X104851503Y-140765276D02*
X104946741Y-140670038D01*
X104946741Y-140670038D02*
X105089598Y-140622419D01*
X105089598Y-140622419D02*
X105184836Y-140622419D01*
X105184836Y-140622419D02*
X105327693Y-140670038D01*
X105327693Y-140670038D02*
X105375312Y-140717657D01*
X106232455Y-140955752D02*
X106232455Y-141622419D01*
X105994360Y-140574800D02*
X105756265Y-141289085D01*
X105756265Y-141289085D02*
X106375312Y-141289085D01*
X141739123Y-113864800D02*
X141881980Y-113912419D01*
X141881980Y-113912419D02*
X142120075Y-113912419D01*
X142120075Y-113912419D02*
X142215313Y-113864800D01*
X142215313Y-113864800D02*
X142262932Y-113817180D01*
X142262932Y-113817180D02*
X142310551Y-113721942D01*
X142310551Y-113721942D02*
X142310551Y-113626704D01*
X142310551Y-113626704D02*
X142262932Y-113531466D01*
X142262932Y-113531466D02*
X142215313Y-113483847D01*
X142215313Y-113483847D02*
X142120075Y-113436228D01*
X142120075Y-113436228D02*
X141929599Y-113388609D01*
X141929599Y-113388609D02*
X141834361Y-113340990D01*
X141834361Y-113340990D02*
X141786742Y-113293371D01*
X141786742Y-113293371D02*
X141739123Y-113198133D01*
X141739123Y-113198133D02*
X141739123Y-113102895D01*
X141739123Y-113102895D02*
X141786742Y-113007657D01*
X141786742Y-113007657D02*
X141834361Y-112960038D01*
X141834361Y-112960038D02*
X141929599Y-112912419D01*
X141929599Y-112912419D02*
X142167694Y-112912419D01*
X142167694Y-112912419D02*
X142310551Y-112960038D01*
X142643885Y-112912419D02*
X142881980Y-113912419D01*
X142881980Y-113912419D02*
X143072456Y-113198133D01*
X143072456Y-113198133D02*
X143262932Y-113912419D01*
X143262932Y-113912419D02*
X143501028Y-112912419D01*
X143881980Y-113912419D02*
X143881980Y-112912419D01*
X143881980Y-112912419D02*
X144120075Y-112912419D01*
X144120075Y-112912419D02*
X144262932Y-112960038D01*
X144262932Y-112960038D02*
X144358170Y-113055276D01*
X144358170Y-113055276D02*
X144405789Y-113150514D01*
X144405789Y-113150514D02*
X144453408Y-113340990D01*
X144453408Y-113340990D02*
X144453408Y-113483847D01*
X144453408Y-113483847D02*
X144405789Y-113674323D01*
X144405789Y-113674323D02*
X144358170Y-113769561D01*
X144358170Y-113769561D02*
X144262932Y-113864800D01*
X144262932Y-113864800D02*
X144120075Y-113912419D01*
X144120075Y-113912419D02*
X143881980Y-113912419D01*
X144881980Y-113912419D02*
X144881980Y-112912419D01*
X145548646Y-112912419D02*
X145739122Y-112912419D01*
X145739122Y-112912419D02*
X145834360Y-112960038D01*
X145834360Y-112960038D02*
X145929598Y-113055276D01*
X145929598Y-113055276D02*
X145977217Y-113245752D01*
X145977217Y-113245752D02*
X145977217Y-113579085D01*
X145977217Y-113579085D02*
X145929598Y-113769561D01*
X145929598Y-113769561D02*
X145834360Y-113864800D01*
X145834360Y-113864800D02*
X145739122Y-113912419D01*
X145739122Y-113912419D02*
X145548646Y-113912419D01*
X145548646Y-113912419D02*
X145453408Y-113864800D01*
X145453408Y-113864800D02*
X145358170Y-113769561D01*
X145358170Y-113769561D02*
X145310551Y-113579085D01*
X145310551Y-113579085D02*
X145310551Y-113245752D01*
X145310551Y-113245752D02*
X145358170Y-113055276D01*
X145358170Y-113055276D02*
X145453408Y-112960038D01*
X145453408Y-112960038D02*
X145548646Y-112912419D01*
X140453408Y-111154800D02*
X140596265Y-111202419D01*
X140596265Y-111202419D02*
X140834360Y-111202419D01*
X140834360Y-111202419D02*
X140929598Y-111154800D01*
X140929598Y-111154800D02*
X140977217Y-111107180D01*
X140977217Y-111107180D02*
X141024836Y-111011942D01*
X141024836Y-111011942D02*
X141024836Y-110916704D01*
X141024836Y-110916704D02*
X140977217Y-110821466D01*
X140977217Y-110821466D02*
X140929598Y-110773847D01*
X140929598Y-110773847D02*
X140834360Y-110726228D01*
X140834360Y-110726228D02*
X140643884Y-110678609D01*
X140643884Y-110678609D02*
X140548646Y-110630990D01*
X140548646Y-110630990D02*
X140501027Y-110583371D01*
X140501027Y-110583371D02*
X140453408Y-110488133D01*
X140453408Y-110488133D02*
X140453408Y-110392895D01*
X140453408Y-110392895D02*
X140501027Y-110297657D01*
X140501027Y-110297657D02*
X140548646Y-110250038D01*
X140548646Y-110250038D02*
X140643884Y-110202419D01*
X140643884Y-110202419D02*
X140881979Y-110202419D01*
X140881979Y-110202419D02*
X141024836Y-110250038D01*
X141358170Y-110202419D02*
X141596265Y-111202419D01*
X141596265Y-111202419D02*
X141786741Y-110488133D01*
X141786741Y-110488133D02*
X141977217Y-111202419D01*
X141977217Y-111202419D02*
X142215313Y-110202419D01*
X142596265Y-111202419D02*
X142596265Y-110202419D01*
X142596265Y-110202419D02*
X142834360Y-110202419D01*
X142834360Y-110202419D02*
X142977217Y-110250038D01*
X142977217Y-110250038D02*
X143072455Y-110345276D01*
X143072455Y-110345276D02*
X143120074Y-110440514D01*
X143120074Y-110440514D02*
X143167693Y-110630990D01*
X143167693Y-110630990D02*
X143167693Y-110773847D01*
X143167693Y-110773847D02*
X143120074Y-110964323D01*
X143120074Y-110964323D02*
X143072455Y-111059561D01*
X143072455Y-111059561D02*
X142977217Y-111154800D01*
X142977217Y-111154800D02*
X142834360Y-111202419D01*
X142834360Y-111202419D02*
X142596265Y-111202419D01*
X144167693Y-111107180D02*
X144120074Y-111154800D01*
X144120074Y-111154800D02*
X143977217Y-111202419D01*
X143977217Y-111202419D02*
X143881979Y-111202419D01*
X143881979Y-111202419D02*
X143739122Y-111154800D01*
X143739122Y-111154800D02*
X143643884Y-111059561D01*
X143643884Y-111059561D02*
X143596265Y-110964323D01*
X143596265Y-110964323D02*
X143548646Y-110773847D01*
X143548646Y-110773847D02*
X143548646Y-110630990D01*
X143548646Y-110630990D02*
X143596265Y-110440514D01*
X143596265Y-110440514D02*
X143643884Y-110345276D01*
X143643884Y-110345276D02*
X143739122Y-110250038D01*
X143739122Y-110250038D02*
X143881979Y-110202419D01*
X143881979Y-110202419D02*
X143977217Y-110202419D01*
X143977217Y-110202419D02*
X144120074Y-110250038D01*
X144120074Y-110250038D02*
X144167693Y-110297657D01*
X145072455Y-111202419D02*
X144596265Y-111202419D01*
X144596265Y-111202419D02*
X144596265Y-110202419D01*
X145405789Y-111202419D02*
X145405789Y-110202419D01*
X145977217Y-111202419D02*
X145548646Y-110630990D01*
X145977217Y-110202419D02*
X145405789Y-110773847D01*
X133833884Y-129731419D02*
X133833884Y-128731419D01*
X133833884Y-128731419D02*
X134214836Y-128731419D01*
X134214836Y-128731419D02*
X134310074Y-128779038D01*
X134310074Y-128779038D02*
X134357693Y-128826657D01*
X134357693Y-128826657D02*
X134405312Y-128921895D01*
X134405312Y-128921895D02*
X134405312Y-129064752D01*
X134405312Y-129064752D02*
X134357693Y-129159990D01*
X134357693Y-129159990D02*
X134310074Y-129207609D01*
X134310074Y-129207609D02*
X134214836Y-129255228D01*
X134214836Y-129255228D02*
X133833884Y-129255228D01*
X134786265Y-129445704D02*
X135262455Y-129445704D01*
X134691027Y-129731419D02*
X135024360Y-128731419D01*
X135024360Y-128731419D02*
X135357693Y-129731419D01*
X135833884Y-129159990D02*
X135738646Y-129112371D01*
X135738646Y-129112371D02*
X135691027Y-129064752D01*
X135691027Y-129064752D02*
X135643408Y-128969514D01*
X135643408Y-128969514D02*
X135643408Y-128921895D01*
X135643408Y-128921895D02*
X135691027Y-128826657D01*
X135691027Y-128826657D02*
X135738646Y-128779038D01*
X135738646Y-128779038D02*
X135833884Y-128731419D01*
X135833884Y-128731419D02*
X136024360Y-128731419D01*
X136024360Y-128731419D02*
X136119598Y-128779038D01*
X136119598Y-128779038D02*
X136167217Y-128826657D01*
X136167217Y-128826657D02*
X136214836Y-128921895D01*
X136214836Y-128921895D02*
X136214836Y-128969514D01*
X136214836Y-128969514D02*
X136167217Y-129064752D01*
X136167217Y-129064752D02*
X136119598Y-129112371D01*
X136119598Y-129112371D02*
X136024360Y-129159990D01*
X136024360Y-129159990D02*
X135833884Y-129159990D01*
X135833884Y-129159990D02*
X135738646Y-129207609D01*
X135738646Y-129207609D02*
X135691027Y-129255228D01*
X135691027Y-129255228D02*
X135643408Y-129350466D01*
X135643408Y-129350466D02*
X135643408Y-129540942D01*
X135643408Y-129540942D02*
X135691027Y-129636180D01*
X135691027Y-129636180D02*
X135738646Y-129683800D01*
X135738646Y-129683800D02*
X135833884Y-129731419D01*
X135833884Y-129731419D02*
X136024360Y-129731419D01*
X136024360Y-129731419D02*
X136119598Y-129683800D01*
X136119598Y-129683800D02*
X136167217Y-129636180D01*
X136167217Y-129636180D02*
X136214836Y-129540942D01*
X136214836Y-129540942D02*
X136214836Y-129350466D01*
X136214836Y-129350466D02*
X136167217Y-129255228D01*
X136167217Y-129255228D02*
X136119598Y-129207609D01*
X136119598Y-129207609D02*
X136024360Y-129159990D01*
X130653919Y-106186115D02*
X129653919Y-106186115D01*
X129653919Y-106186115D02*
X129653919Y-105805163D01*
X129653919Y-105805163D02*
X129701538Y-105709925D01*
X129701538Y-105709925D02*
X129749157Y-105662306D01*
X129749157Y-105662306D02*
X129844395Y-105614687D01*
X129844395Y-105614687D02*
X129987252Y-105614687D01*
X129987252Y-105614687D02*
X130082490Y-105662306D01*
X130082490Y-105662306D02*
X130130109Y-105709925D01*
X130130109Y-105709925D02*
X130177728Y-105805163D01*
X130177728Y-105805163D02*
X130177728Y-106186115D01*
X130653919Y-105186115D02*
X129653919Y-105186115D01*
X129653919Y-105186115D02*
X129653919Y-104948020D01*
X129653919Y-104948020D02*
X129701538Y-104805163D01*
X129701538Y-104805163D02*
X129796776Y-104709925D01*
X129796776Y-104709925D02*
X129892014Y-104662306D01*
X129892014Y-104662306D02*
X130082490Y-104614687D01*
X130082490Y-104614687D02*
X130225347Y-104614687D01*
X130225347Y-104614687D02*
X130415823Y-104662306D01*
X130415823Y-104662306D02*
X130511061Y-104709925D01*
X130511061Y-104709925D02*
X130606300Y-104805163D01*
X130606300Y-104805163D02*
X130653919Y-104948020D01*
X130653919Y-104948020D02*
X130653919Y-105186115D01*
X129653919Y-104281353D02*
X129653919Y-103614687D01*
X129653919Y-103614687D02*
X130653919Y-104043258D01*
X143548646Y-107582419D02*
X144167693Y-107582419D01*
X144167693Y-107582419D02*
X143834360Y-107963371D01*
X143834360Y-107963371D02*
X143977217Y-107963371D01*
X143977217Y-107963371D02*
X144072455Y-108010990D01*
X144072455Y-108010990D02*
X144120074Y-108058609D01*
X144120074Y-108058609D02*
X144167693Y-108153847D01*
X144167693Y-108153847D02*
X144167693Y-108391942D01*
X144167693Y-108391942D02*
X144120074Y-108487180D01*
X144120074Y-108487180D02*
X144072455Y-108534800D01*
X144072455Y-108534800D02*
X143977217Y-108582419D01*
X143977217Y-108582419D02*
X143691503Y-108582419D01*
X143691503Y-108582419D02*
X143596265Y-108534800D01*
X143596265Y-108534800D02*
X143548646Y-108487180D01*
X144453408Y-107582419D02*
X144786741Y-108582419D01*
X144786741Y-108582419D02*
X145120074Y-107582419D01*
X145358170Y-107582419D02*
X145977217Y-107582419D01*
X145977217Y-107582419D02*
X145643884Y-107963371D01*
X145643884Y-107963371D02*
X145786741Y-107963371D01*
X145786741Y-107963371D02*
X145881979Y-108010990D01*
X145881979Y-108010990D02*
X145929598Y-108058609D01*
X145929598Y-108058609D02*
X145977217Y-108153847D01*
X145977217Y-108153847D02*
X145977217Y-108391942D01*
X145977217Y-108391942D02*
X145929598Y-108487180D01*
X145929598Y-108487180D02*
X145881979Y-108534800D01*
X145881979Y-108534800D02*
X145786741Y-108582419D01*
X145786741Y-108582419D02*
X145501027Y-108582419D01*
X145501027Y-108582419D02*
X145405789Y-108534800D01*
X145405789Y-108534800D02*
X145358170Y-108487180D01*
X143881979Y-115660038D02*
X143786741Y-115612419D01*
X143786741Y-115612419D02*
X143643884Y-115612419D01*
X143643884Y-115612419D02*
X143501027Y-115660038D01*
X143501027Y-115660038D02*
X143405789Y-115755276D01*
X143405789Y-115755276D02*
X143358170Y-115850514D01*
X143358170Y-115850514D02*
X143310551Y-116040990D01*
X143310551Y-116040990D02*
X143310551Y-116183847D01*
X143310551Y-116183847D02*
X143358170Y-116374323D01*
X143358170Y-116374323D02*
X143405789Y-116469561D01*
X143405789Y-116469561D02*
X143501027Y-116564800D01*
X143501027Y-116564800D02*
X143643884Y-116612419D01*
X143643884Y-116612419D02*
X143739122Y-116612419D01*
X143739122Y-116612419D02*
X143881979Y-116564800D01*
X143881979Y-116564800D02*
X143929598Y-116517180D01*
X143929598Y-116517180D02*
X143929598Y-116183847D01*
X143929598Y-116183847D02*
X143739122Y-116183847D01*
X144358170Y-116612419D02*
X144358170Y-115612419D01*
X144358170Y-115612419D02*
X144929598Y-116612419D01*
X144929598Y-116612419D02*
X144929598Y-115612419D01*
X145405789Y-116612419D02*
X145405789Y-115612419D01*
X145405789Y-115612419D02*
X145643884Y-115612419D01*
X145643884Y-115612419D02*
X145786741Y-115660038D01*
X145786741Y-115660038D02*
X145881979Y-115755276D01*
X145881979Y-115755276D02*
X145929598Y-115850514D01*
X145929598Y-115850514D02*
X145977217Y-116040990D01*
X145977217Y-116040990D02*
X145977217Y-116183847D01*
X145977217Y-116183847D02*
X145929598Y-116374323D01*
X145929598Y-116374323D02*
X145881979Y-116469561D01*
X145881979Y-116469561D02*
X145786741Y-116564800D01*
X145786741Y-116564800D02*
X145643884Y-116612419D01*
X145643884Y-116612419D02*
X145405789Y-116612419D01*
X107696419Y-145946115D02*
X106696419Y-145946115D01*
X106696419Y-145946115D02*
X106696419Y-145565163D01*
X106696419Y-145565163D02*
X106744038Y-145469925D01*
X106744038Y-145469925D02*
X106791657Y-145422306D01*
X106791657Y-145422306D02*
X106886895Y-145374687D01*
X106886895Y-145374687D02*
X107029752Y-145374687D01*
X107029752Y-145374687D02*
X107124990Y-145422306D01*
X107124990Y-145422306D02*
X107172609Y-145469925D01*
X107172609Y-145469925D02*
X107220228Y-145565163D01*
X107220228Y-145565163D02*
X107220228Y-145946115D01*
X107172609Y-144612782D02*
X107220228Y-144469925D01*
X107220228Y-144469925D02*
X107267847Y-144422306D01*
X107267847Y-144422306D02*
X107363085Y-144374687D01*
X107363085Y-144374687D02*
X107505942Y-144374687D01*
X107505942Y-144374687D02*
X107601180Y-144422306D01*
X107601180Y-144422306D02*
X107648800Y-144469925D01*
X107648800Y-144469925D02*
X107696419Y-144565163D01*
X107696419Y-144565163D02*
X107696419Y-144946115D01*
X107696419Y-144946115D02*
X106696419Y-144946115D01*
X106696419Y-144946115D02*
X106696419Y-144612782D01*
X106696419Y-144612782D02*
X106744038Y-144517544D01*
X106744038Y-144517544D02*
X106791657Y-144469925D01*
X106791657Y-144469925D02*
X106886895Y-144422306D01*
X106886895Y-144422306D02*
X106982133Y-144422306D01*
X106982133Y-144422306D02*
X107077371Y-144469925D01*
X107077371Y-144469925D02*
X107124990Y-144517544D01*
X107124990Y-144517544D02*
X107172609Y-144612782D01*
X107172609Y-144612782D02*
X107172609Y-144946115D01*
X107696419Y-143422306D02*
X107696419Y-143993734D01*
X107696419Y-143708020D02*
X106696419Y-143708020D01*
X106696419Y-143708020D02*
X106839276Y-143803258D01*
X106839276Y-143803258D02*
X106934514Y-143898496D01*
X106934514Y-143898496D02*
X106982133Y-143993734D01*
X123136919Y-106186115D02*
X122136919Y-106186115D01*
X122136919Y-106186115D02*
X122136919Y-105805163D01*
X122136919Y-105805163D02*
X122184538Y-105709925D01*
X122184538Y-105709925D02*
X122232157Y-105662306D01*
X122232157Y-105662306D02*
X122327395Y-105614687D01*
X122327395Y-105614687D02*
X122470252Y-105614687D01*
X122470252Y-105614687D02*
X122565490Y-105662306D01*
X122565490Y-105662306D02*
X122613109Y-105709925D01*
X122613109Y-105709925D02*
X122660728Y-105805163D01*
X122660728Y-105805163D02*
X122660728Y-106186115D01*
X122613109Y-104852782D02*
X122660728Y-104709925D01*
X122660728Y-104709925D02*
X122708347Y-104662306D01*
X122708347Y-104662306D02*
X122803585Y-104614687D01*
X122803585Y-104614687D02*
X122946442Y-104614687D01*
X122946442Y-104614687D02*
X123041680Y-104662306D01*
X123041680Y-104662306D02*
X123089300Y-104709925D01*
X123089300Y-104709925D02*
X123136919Y-104805163D01*
X123136919Y-104805163D02*
X123136919Y-105186115D01*
X123136919Y-105186115D02*
X122136919Y-105186115D01*
X122136919Y-105186115D02*
X122136919Y-104852782D01*
X122136919Y-104852782D02*
X122184538Y-104757544D01*
X122184538Y-104757544D02*
X122232157Y-104709925D01*
X122232157Y-104709925D02*
X122327395Y-104662306D01*
X122327395Y-104662306D02*
X122422633Y-104662306D01*
X122422633Y-104662306D02*
X122517871Y-104709925D01*
X122517871Y-104709925D02*
X122565490Y-104757544D01*
X122565490Y-104757544D02*
X122613109Y-104852782D01*
X122613109Y-104852782D02*
X122613109Y-105186115D01*
X122136919Y-104281353D02*
X122136919Y-103614687D01*
X122136919Y-103614687D02*
X123136919Y-104043258D01*
X148494419Y-106186115D02*
X147494419Y-106186115D01*
X147494419Y-106186115D02*
X147494419Y-105805163D01*
X147494419Y-105805163D02*
X147542038Y-105709925D01*
X147542038Y-105709925D02*
X147589657Y-105662306D01*
X147589657Y-105662306D02*
X147684895Y-105614687D01*
X147684895Y-105614687D02*
X147827752Y-105614687D01*
X147827752Y-105614687D02*
X147922990Y-105662306D01*
X147922990Y-105662306D02*
X147970609Y-105709925D01*
X147970609Y-105709925D02*
X148018228Y-105805163D01*
X148018228Y-105805163D02*
X148018228Y-106186115D01*
X148494419Y-105186115D02*
X147494419Y-105186115D01*
X147494419Y-105186115D02*
X147494419Y-104948020D01*
X147494419Y-104948020D02*
X147542038Y-104805163D01*
X147542038Y-104805163D02*
X147637276Y-104709925D01*
X147637276Y-104709925D02*
X147732514Y-104662306D01*
X147732514Y-104662306D02*
X147922990Y-104614687D01*
X147922990Y-104614687D02*
X148065847Y-104614687D01*
X148065847Y-104614687D02*
X148256323Y-104662306D01*
X148256323Y-104662306D02*
X148351561Y-104709925D01*
X148351561Y-104709925D02*
X148446800Y-104805163D01*
X148446800Y-104805163D02*
X148494419Y-104948020D01*
X148494419Y-104948020D02*
X148494419Y-105186115D01*
X147494419Y-103995639D02*
X147494419Y-103900401D01*
X147494419Y-103900401D02*
X147542038Y-103805163D01*
X147542038Y-103805163D02*
X147589657Y-103757544D01*
X147589657Y-103757544D02*
X147684895Y-103709925D01*
X147684895Y-103709925D02*
X147875371Y-103662306D01*
X147875371Y-103662306D02*
X148113466Y-103662306D01*
X148113466Y-103662306D02*
X148303942Y-103709925D01*
X148303942Y-103709925D02*
X148399180Y-103757544D01*
X148399180Y-103757544D02*
X148446800Y-103805163D01*
X148446800Y-103805163D02*
X148494419Y-103900401D01*
X148494419Y-103900401D02*
X148494419Y-103995639D01*
X148494419Y-103995639D02*
X148446800Y-104090877D01*
X148446800Y-104090877D02*
X148399180Y-104138496D01*
X148399180Y-104138496D02*
X148303942Y-104186115D01*
X148303942Y-104186115D02*
X148113466Y-104233734D01*
X148113466Y-104233734D02*
X147875371Y-104233734D01*
X147875371Y-104233734D02*
X147684895Y-104186115D01*
X147684895Y-104186115D02*
X147589657Y-104138496D01*
X147589657Y-104138496D02*
X147542038Y-104090877D01*
X147542038Y-104090877D02*
X147494419Y-103995639D01*
X103923884Y-117632419D02*
X103923884Y-116632419D01*
X103923884Y-116632419D02*
X104304836Y-116632419D01*
X104304836Y-116632419D02*
X104400074Y-116680038D01*
X104400074Y-116680038D02*
X104447693Y-116727657D01*
X104447693Y-116727657D02*
X104495312Y-116822895D01*
X104495312Y-116822895D02*
X104495312Y-116965752D01*
X104495312Y-116965752D02*
X104447693Y-117060990D01*
X104447693Y-117060990D02*
X104400074Y-117108609D01*
X104400074Y-117108609D02*
X104304836Y-117156228D01*
X104304836Y-117156228D02*
X103923884Y-117156228D01*
X104923884Y-117108609D02*
X105257217Y-117108609D01*
X105400074Y-117632419D02*
X104923884Y-117632419D01*
X104923884Y-117632419D02*
X104923884Y-116632419D01*
X104923884Y-116632419D02*
X105400074Y-116632419D01*
X106257217Y-116632419D02*
X106066741Y-116632419D01*
X106066741Y-116632419D02*
X105971503Y-116680038D01*
X105971503Y-116680038D02*
X105923884Y-116727657D01*
X105923884Y-116727657D02*
X105828646Y-116870514D01*
X105828646Y-116870514D02*
X105781027Y-117060990D01*
X105781027Y-117060990D02*
X105781027Y-117441942D01*
X105781027Y-117441942D02*
X105828646Y-117537180D01*
X105828646Y-117537180D02*
X105876265Y-117584800D01*
X105876265Y-117584800D02*
X105971503Y-117632419D01*
X105971503Y-117632419D02*
X106161979Y-117632419D01*
X106161979Y-117632419D02*
X106257217Y-117584800D01*
X106257217Y-117584800D02*
X106304836Y-117537180D01*
X106304836Y-117537180D02*
X106352455Y-117441942D01*
X106352455Y-117441942D02*
X106352455Y-117203847D01*
X106352455Y-117203847D02*
X106304836Y-117108609D01*
X106304836Y-117108609D02*
X106257217Y-117060990D01*
X106257217Y-117060990D02*
X106161979Y-117013371D01*
X106161979Y-117013371D02*
X105971503Y-117013371D01*
X105971503Y-117013371D02*
X105876265Y-117060990D01*
X105876265Y-117060990D02*
X105828646Y-117108609D01*
X105828646Y-117108609D02*
X105781027Y-117203847D01*
X104637217Y-101848609D02*
X104780074Y-101896228D01*
X104780074Y-101896228D02*
X104827693Y-101943847D01*
X104827693Y-101943847D02*
X104875312Y-102039085D01*
X104875312Y-102039085D02*
X104875312Y-102181942D01*
X104875312Y-102181942D02*
X104827693Y-102277180D01*
X104827693Y-102277180D02*
X104780074Y-102324800D01*
X104780074Y-102324800D02*
X104684836Y-102372419D01*
X104684836Y-102372419D02*
X104303884Y-102372419D01*
X104303884Y-102372419D02*
X104303884Y-101372419D01*
X104303884Y-101372419D02*
X104637217Y-101372419D01*
X104637217Y-101372419D02*
X104732455Y-101420038D01*
X104732455Y-101420038D02*
X104780074Y-101467657D01*
X104780074Y-101467657D02*
X104827693Y-101562895D01*
X104827693Y-101562895D02*
X104827693Y-101658133D01*
X104827693Y-101658133D02*
X104780074Y-101753371D01*
X104780074Y-101753371D02*
X104732455Y-101800990D01*
X104732455Y-101800990D02*
X104637217Y-101848609D01*
X104637217Y-101848609D02*
X104303884Y-101848609D01*
X105494360Y-101372419D02*
X105684836Y-101372419D01*
X105684836Y-101372419D02*
X105780074Y-101420038D01*
X105780074Y-101420038D02*
X105875312Y-101515276D01*
X105875312Y-101515276D02*
X105922931Y-101705752D01*
X105922931Y-101705752D02*
X105922931Y-102039085D01*
X105922931Y-102039085D02*
X105875312Y-102229561D01*
X105875312Y-102229561D02*
X105780074Y-102324800D01*
X105780074Y-102324800D02*
X105684836Y-102372419D01*
X105684836Y-102372419D02*
X105494360Y-102372419D01*
X105494360Y-102372419D02*
X105399122Y-102324800D01*
X105399122Y-102324800D02*
X105303884Y-102229561D01*
X105303884Y-102229561D02*
X105256265Y-102039085D01*
X105256265Y-102039085D02*
X105256265Y-101705752D01*
X105256265Y-101705752D02*
X105303884Y-101515276D01*
X105303884Y-101515276D02*
X105399122Y-101420038D01*
X105399122Y-101420038D02*
X105494360Y-101372419D01*
X106541979Y-101372419D02*
X106732455Y-101372419D01*
X106732455Y-101372419D02*
X106827693Y-101420038D01*
X106827693Y-101420038D02*
X106922931Y-101515276D01*
X106922931Y-101515276D02*
X106970550Y-101705752D01*
X106970550Y-101705752D02*
X106970550Y-102039085D01*
X106970550Y-102039085D02*
X106922931Y-102229561D01*
X106922931Y-102229561D02*
X106827693Y-102324800D01*
X106827693Y-102324800D02*
X106732455Y-102372419D01*
X106732455Y-102372419D02*
X106541979Y-102372419D01*
X106541979Y-102372419D02*
X106446741Y-102324800D01*
X106446741Y-102324800D02*
X106351503Y-102229561D01*
X106351503Y-102229561D02*
X106303884Y-102039085D01*
X106303884Y-102039085D02*
X106303884Y-101705752D01*
X106303884Y-101705752D02*
X106351503Y-101515276D01*
X106351503Y-101515276D02*
X106446741Y-101420038D01*
X106446741Y-101420038D02*
X106541979Y-101372419D01*
X107256265Y-101372419D02*
X107827693Y-101372419D01*
X107541979Y-102372419D02*
X107541979Y-101372419D01*
X108351503Y-101372419D02*
X108446741Y-101372419D01*
X108446741Y-101372419D02*
X108541979Y-101420038D01*
X108541979Y-101420038D02*
X108589598Y-101467657D01*
X108589598Y-101467657D02*
X108637217Y-101562895D01*
X108637217Y-101562895D02*
X108684836Y-101753371D01*
X108684836Y-101753371D02*
X108684836Y-101991466D01*
X108684836Y-101991466D02*
X108637217Y-102181942D01*
X108637217Y-102181942D02*
X108589598Y-102277180D01*
X108589598Y-102277180D02*
X108541979Y-102324800D01*
X108541979Y-102324800D02*
X108446741Y-102372419D01*
X108446741Y-102372419D02*
X108351503Y-102372419D01*
X108351503Y-102372419D02*
X108256265Y-102324800D01*
X108256265Y-102324800D02*
X108208646Y-102277180D01*
X108208646Y-102277180D02*
X108161027Y-102181942D01*
X108161027Y-102181942D02*
X108113408Y-101991466D01*
X108113408Y-101991466D02*
X108113408Y-101753371D01*
X108113408Y-101753371D02*
X108161027Y-101562895D01*
X108161027Y-101562895D02*
X108208646Y-101467657D01*
X108208646Y-101467657D02*
X108256265Y-101420038D01*
X108256265Y-101420038D02*
X108351503Y-101372419D01*
X103803884Y-133872419D02*
X103803884Y-132872419D01*
X103803884Y-132872419D02*
X104184836Y-132872419D01*
X104184836Y-132872419D02*
X104280074Y-132920038D01*
X104280074Y-132920038D02*
X104327693Y-132967657D01*
X104327693Y-132967657D02*
X104375312Y-133062895D01*
X104375312Y-133062895D02*
X104375312Y-133205752D01*
X104375312Y-133205752D02*
X104327693Y-133300990D01*
X104327693Y-133300990D02*
X104280074Y-133348609D01*
X104280074Y-133348609D02*
X104184836Y-133396228D01*
X104184836Y-133396228D02*
X103803884Y-133396228D01*
X104756265Y-133586704D02*
X105232455Y-133586704D01*
X104661027Y-133872419D02*
X104994360Y-132872419D01*
X104994360Y-132872419D02*
X105327693Y-133872419D01*
X106137217Y-132872419D02*
X105661027Y-132872419D01*
X105661027Y-132872419D02*
X105613408Y-133348609D01*
X105613408Y-133348609D02*
X105661027Y-133300990D01*
X105661027Y-133300990D02*
X105756265Y-133253371D01*
X105756265Y-133253371D02*
X105994360Y-133253371D01*
X105994360Y-133253371D02*
X106089598Y-133300990D01*
X106089598Y-133300990D02*
X106137217Y-133348609D01*
X106137217Y-133348609D02*
X106184836Y-133443847D01*
X106184836Y-133443847D02*
X106184836Y-133681942D01*
X106184836Y-133681942D02*
X106137217Y-133777180D01*
X106137217Y-133777180D02*
X106089598Y-133824800D01*
X106089598Y-133824800D02*
X105994360Y-133872419D01*
X105994360Y-133872419D02*
X105756265Y-133872419D01*
X105756265Y-133872419D02*
X105661027Y-133824800D01*
X105661027Y-133824800D02*
X105613408Y-133777180D01*
X104019122Y-112308419D02*
X104019122Y-111308419D01*
X104019122Y-111308419D02*
X104400074Y-111308419D01*
X104400074Y-111308419D02*
X104495312Y-111356038D01*
X104495312Y-111356038D02*
X104542931Y-111403657D01*
X104542931Y-111403657D02*
X104590550Y-111498895D01*
X104590550Y-111498895D02*
X104590550Y-111641752D01*
X104590550Y-111641752D02*
X104542931Y-111736990D01*
X104542931Y-111736990D02*
X104495312Y-111784609D01*
X104495312Y-111784609D02*
X104400074Y-111832228D01*
X104400074Y-111832228D02*
X104019122Y-111832228D01*
X105019122Y-111784609D02*
X105352455Y-111784609D01*
X105495312Y-112308419D02*
X105019122Y-112308419D01*
X105019122Y-112308419D02*
X105019122Y-111308419D01*
X105019122Y-111308419D02*
X105495312Y-111308419D01*
X106352455Y-111641752D02*
X106352455Y-112308419D01*
X106114360Y-111260800D02*
X105876265Y-111975085D01*
X105876265Y-111975085D02*
X106495312Y-111975085D01*
X133762456Y-134749419D02*
X133762456Y-133749419D01*
X133762456Y-133749419D02*
X134143408Y-133749419D01*
X134143408Y-133749419D02*
X134238646Y-133797038D01*
X134238646Y-133797038D02*
X134286265Y-133844657D01*
X134286265Y-133844657D02*
X134333884Y-133939895D01*
X134333884Y-133939895D02*
X134333884Y-134082752D01*
X134333884Y-134082752D02*
X134286265Y-134177990D01*
X134286265Y-134177990D02*
X134238646Y-134225609D01*
X134238646Y-134225609D02*
X134143408Y-134273228D01*
X134143408Y-134273228D02*
X133762456Y-134273228D01*
X135333884Y-134654180D02*
X135286265Y-134701800D01*
X135286265Y-134701800D02*
X135143408Y-134749419D01*
X135143408Y-134749419D02*
X135048170Y-134749419D01*
X135048170Y-134749419D02*
X134905313Y-134701800D01*
X134905313Y-134701800D02*
X134810075Y-134606561D01*
X134810075Y-134606561D02*
X134762456Y-134511323D01*
X134762456Y-134511323D02*
X134714837Y-134320847D01*
X134714837Y-134320847D02*
X134714837Y-134177990D01*
X134714837Y-134177990D02*
X134762456Y-133987514D01*
X134762456Y-133987514D02*
X134810075Y-133892276D01*
X134810075Y-133892276D02*
X134905313Y-133797038D01*
X134905313Y-133797038D02*
X135048170Y-133749419D01*
X135048170Y-133749419D02*
X135143408Y-133749419D01*
X135143408Y-133749419D02*
X135286265Y-133797038D01*
X135286265Y-133797038D02*
X135333884Y-133844657D01*
X135667218Y-133749419D02*
X136333884Y-133749419D01*
X136333884Y-133749419D02*
X135905313Y-134749419D01*
X117820419Y-145946115D02*
X116820419Y-145946115D01*
X116820419Y-145946115D02*
X116820419Y-145565163D01*
X116820419Y-145565163D02*
X116868038Y-145469925D01*
X116868038Y-145469925D02*
X116915657Y-145422306D01*
X116915657Y-145422306D02*
X117010895Y-145374687D01*
X117010895Y-145374687D02*
X117153752Y-145374687D01*
X117153752Y-145374687D02*
X117248990Y-145422306D01*
X117248990Y-145422306D02*
X117296609Y-145469925D01*
X117296609Y-145469925D02*
X117344228Y-145565163D01*
X117344228Y-145565163D02*
X117344228Y-145946115D01*
X117296609Y-144946115D02*
X117296609Y-144612782D01*
X117820419Y-144469925D02*
X117820419Y-144946115D01*
X117820419Y-144946115D02*
X116820419Y-144946115D01*
X116820419Y-144946115D02*
X116820419Y-144469925D01*
X117820419Y-143993734D02*
X117820419Y-143803258D01*
X117820419Y-143803258D02*
X117772800Y-143708020D01*
X117772800Y-143708020D02*
X117725180Y-143660401D01*
X117725180Y-143660401D02*
X117582323Y-143565163D01*
X117582323Y-143565163D02*
X117391847Y-143517544D01*
X117391847Y-143517544D02*
X117010895Y-143517544D01*
X117010895Y-143517544D02*
X116915657Y-143565163D01*
X116915657Y-143565163D02*
X116868038Y-143612782D01*
X116868038Y-143612782D02*
X116820419Y-143708020D01*
X116820419Y-143708020D02*
X116820419Y-143898496D01*
X116820419Y-143898496D02*
X116868038Y-143993734D01*
X116868038Y-143993734D02*
X116915657Y-144041353D01*
X116915657Y-144041353D02*
X117010895Y-144088972D01*
X117010895Y-144088972D02*
X117248990Y-144088972D01*
X117248990Y-144088972D02*
X117344228Y-144041353D01*
X117344228Y-144041353D02*
X117391847Y-143993734D01*
X117391847Y-143993734D02*
X117439466Y-143898496D01*
X117439466Y-143898496D02*
X117439466Y-143708020D01*
X117439466Y-143708020D02*
X117391847Y-143612782D01*
X117391847Y-143612782D02*
X117344228Y-143565163D01*
X117344228Y-143565163D02*
X117248990Y-143517544D01*
X133762456Y-132185419D02*
X133762456Y-131185419D01*
X133762456Y-131185419D02*
X134143408Y-131185419D01*
X134143408Y-131185419D02*
X134238646Y-131233038D01*
X134238646Y-131233038D02*
X134286265Y-131280657D01*
X134286265Y-131280657D02*
X134333884Y-131375895D01*
X134333884Y-131375895D02*
X134333884Y-131518752D01*
X134333884Y-131518752D02*
X134286265Y-131613990D01*
X134286265Y-131613990D02*
X134238646Y-131661609D01*
X134238646Y-131661609D02*
X134143408Y-131709228D01*
X134143408Y-131709228D02*
X133762456Y-131709228D01*
X135333884Y-132090180D02*
X135286265Y-132137800D01*
X135286265Y-132137800D02*
X135143408Y-132185419D01*
X135143408Y-132185419D02*
X135048170Y-132185419D01*
X135048170Y-132185419D02*
X134905313Y-132137800D01*
X134905313Y-132137800D02*
X134810075Y-132042561D01*
X134810075Y-132042561D02*
X134762456Y-131947323D01*
X134762456Y-131947323D02*
X134714837Y-131756847D01*
X134714837Y-131756847D02*
X134714837Y-131613990D01*
X134714837Y-131613990D02*
X134762456Y-131423514D01*
X134762456Y-131423514D02*
X134810075Y-131328276D01*
X134810075Y-131328276D02*
X134905313Y-131233038D01*
X134905313Y-131233038D02*
X135048170Y-131185419D01*
X135048170Y-131185419D02*
X135143408Y-131185419D01*
X135143408Y-131185419D02*
X135286265Y-131233038D01*
X135286265Y-131233038D02*
X135333884Y-131280657D01*
X135905313Y-131613990D02*
X135810075Y-131566371D01*
X135810075Y-131566371D02*
X135762456Y-131518752D01*
X135762456Y-131518752D02*
X135714837Y-131423514D01*
X135714837Y-131423514D02*
X135714837Y-131375895D01*
X135714837Y-131375895D02*
X135762456Y-131280657D01*
X135762456Y-131280657D02*
X135810075Y-131233038D01*
X135810075Y-131233038D02*
X135905313Y-131185419D01*
X135905313Y-131185419D02*
X136095789Y-131185419D01*
X136095789Y-131185419D02*
X136191027Y-131233038D01*
X136191027Y-131233038D02*
X136238646Y-131280657D01*
X136238646Y-131280657D02*
X136286265Y-131375895D01*
X136286265Y-131375895D02*
X136286265Y-131423514D01*
X136286265Y-131423514D02*
X136238646Y-131518752D01*
X136238646Y-131518752D02*
X136191027Y-131566371D01*
X136191027Y-131566371D02*
X136095789Y-131613990D01*
X136095789Y-131613990D02*
X135905313Y-131613990D01*
X135905313Y-131613990D02*
X135810075Y-131661609D01*
X135810075Y-131661609D02*
X135762456Y-131709228D01*
X135762456Y-131709228D02*
X135714837Y-131804466D01*
X135714837Y-131804466D02*
X135714837Y-131994942D01*
X135714837Y-131994942D02*
X135762456Y-132090180D01*
X135762456Y-132090180D02*
X135810075Y-132137800D01*
X135810075Y-132137800D02*
X135905313Y-132185419D01*
X135905313Y-132185419D02*
X136095789Y-132185419D01*
X136095789Y-132185419D02*
X136191027Y-132137800D01*
X136191027Y-132137800D02*
X136238646Y-132090180D01*
X136238646Y-132090180D02*
X136286265Y-131994942D01*
X136286265Y-131994942D02*
X136286265Y-131804466D01*
X136286265Y-131804466D02*
X136238646Y-131709228D01*
X136238646Y-131709228D02*
X136191027Y-131661609D01*
X136191027Y-131661609D02*
X136095789Y-131613990D01*
X115213419Y-145946115D02*
X114213419Y-145946115D01*
X114213419Y-145946115D02*
X114213419Y-145565163D01*
X114213419Y-145565163D02*
X114261038Y-145469925D01*
X114261038Y-145469925D02*
X114308657Y-145422306D01*
X114308657Y-145422306D02*
X114403895Y-145374687D01*
X114403895Y-145374687D02*
X114546752Y-145374687D01*
X114546752Y-145374687D02*
X114641990Y-145422306D01*
X114641990Y-145422306D02*
X114689609Y-145469925D01*
X114689609Y-145469925D02*
X114737228Y-145565163D01*
X114737228Y-145565163D02*
X114737228Y-145946115D01*
X114689609Y-144946115D02*
X114689609Y-144612782D01*
X115213419Y-144469925D02*
X115213419Y-144946115D01*
X115213419Y-144946115D02*
X114213419Y-144946115D01*
X114213419Y-144946115D02*
X114213419Y-144469925D01*
X114641990Y-143898496D02*
X114594371Y-143993734D01*
X114594371Y-143993734D02*
X114546752Y-144041353D01*
X114546752Y-144041353D02*
X114451514Y-144088972D01*
X114451514Y-144088972D02*
X114403895Y-144088972D01*
X114403895Y-144088972D02*
X114308657Y-144041353D01*
X114308657Y-144041353D02*
X114261038Y-143993734D01*
X114261038Y-143993734D02*
X114213419Y-143898496D01*
X114213419Y-143898496D02*
X114213419Y-143708020D01*
X114213419Y-143708020D02*
X114261038Y-143612782D01*
X114261038Y-143612782D02*
X114308657Y-143565163D01*
X114308657Y-143565163D02*
X114403895Y-143517544D01*
X114403895Y-143517544D02*
X114451514Y-143517544D01*
X114451514Y-143517544D02*
X114546752Y-143565163D01*
X114546752Y-143565163D02*
X114594371Y-143612782D01*
X114594371Y-143612782D02*
X114641990Y-143708020D01*
X114641990Y-143708020D02*
X114641990Y-143898496D01*
X114641990Y-143898496D02*
X114689609Y-143993734D01*
X114689609Y-143993734D02*
X114737228Y-144041353D01*
X114737228Y-144041353D02*
X114832466Y-144088972D01*
X114832466Y-144088972D02*
X115022942Y-144088972D01*
X115022942Y-144088972D02*
X115118180Y-144041353D01*
X115118180Y-144041353D02*
X115165800Y-143993734D01*
X115165800Y-143993734D02*
X115213419Y-143898496D01*
X115213419Y-143898496D02*
X115213419Y-143708020D01*
X115213419Y-143708020D02*
X115165800Y-143612782D01*
X115165800Y-143612782D02*
X115118180Y-143565163D01*
X115118180Y-143565163D02*
X115022942Y-143517544D01*
X115022942Y-143517544D02*
X114832466Y-143517544D01*
X114832466Y-143517544D02*
X114737228Y-143565163D01*
X114737228Y-143565163D02*
X114689609Y-143612782D01*
X114689609Y-143612782D02*
X114641990Y-143708020D01*
X128065419Y-145946115D02*
X127065419Y-145946115D01*
X127065419Y-145946115D02*
X127065419Y-145565163D01*
X127065419Y-145565163D02*
X127113038Y-145469925D01*
X127113038Y-145469925D02*
X127160657Y-145422306D01*
X127160657Y-145422306D02*
X127255895Y-145374687D01*
X127255895Y-145374687D02*
X127398752Y-145374687D01*
X127398752Y-145374687D02*
X127493990Y-145422306D01*
X127493990Y-145422306D02*
X127541609Y-145469925D01*
X127541609Y-145469925D02*
X127589228Y-145565163D01*
X127589228Y-145565163D02*
X127589228Y-145946115D01*
X127541609Y-144946115D02*
X127541609Y-144612782D01*
X128065419Y-144469925D02*
X128065419Y-144946115D01*
X128065419Y-144946115D02*
X127065419Y-144946115D01*
X127065419Y-144946115D02*
X127065419Y-144469925D01*
X128065419Y-143517544D02*
X128065419Y-144088972D01*
X128065419Y-143803258D02*
X127065419Y-143803258D01*
X127065419Y-143803258D02*
X127208276Y-143898496D01*
X127208276Y-143898496D02*
X127303514Y-143993734D01*
X127303514Y-143993734D02*
X127351133Y-144088972D01*
X127065419Y-143184210D02*
X127065419Y-142565163D01*
X127065419Y-142565163D02*
X127446371Y-142898496D01*
X127446371Y-142898496D02*
X127446371Y-142755639D01*
X127446371Y-142755639D02*
X127493990Y-142660401D01*
X127493990Y-142660401D02*
X127541609Y-142612782D01*
X127541609Y-142612782D02*
X127636847Y-142565163D01*
X127636847Y-142565163D02*
X127874942Y-142565163D01*
X127874942Y-142565163D02*
X127970180Y-142612782D01*
X127970180Y-142612782D02*
X128017800Y-142660401D01*
X128017800Y-142660401D02*
X128065419Y-142755639D01*
X128065419Y-142755639D02*
X128065419Y-143041353D01*
X128065419Y-143041353D02*
X128017800Y-143136591D01*
X128017800Y-143136591D02*
X127970180Y-143184210D01*
D11*
X141238095Y-145204819D02*
X141238095Y-146014342D01*
X141238095Y-146014342D02*
X141285714Y-146109580D01*
X141285714Y-146109580D02*
X141333333Y-146157200D01*
X141333333Y-146157200D02*
X141428571Y-146204819D01*
X141428571Y-146204819D02*
X141619047Y-146204819D01*
X141619047Y-146204819D02*
X141714285Y-146157200D01*
X141714285Y-146157200D02*
X141761904Y-146109580D01*
X141761904Y-146109580D02*
X141809523Y-146014342D01*
X141809523Y-146014342D02*
X141809523Y-145204819D01*
X142714285Y-145538152D02*
X142714285Y-146204819D01*
X142476190Y-145157200D02*
X142238095Y-145871485D01*
X142238095Y-145871485D02*
X142857142Y-145871485D01*
X143857142Y-144609580D02*
X143809523Y-144657200D01*
X143809523Y-144657200D02*
X143666666Y-144704819D01*
X143666666Y-144704819D02*
X143571428Y-144704819D01*
X143571428Y-144704819D02*
X143428571Y-144657200D01*
X143428571Y-144657200D02*
X143333333Y-144561961D01*
X143333333Y-144561961D02*
X143285714Y-144466723D01*
X143285714Y-144466723D02*
X143238095Y-144276247D01*
X143238095Y-144276247D02*
X143238095Y-144133390D01*
X143238095Y-144133390D02*
X143285714Y-143942914D01*
X143285714Y-143942914D02*
X143333333Y-143847676D01*
X143333333Y-143847676D02*
X143428571Y-143752438D01*
X143428571Y-143752438D02*
X143571428Y-143704819D01*
X143571428Y-143704819D02*
X143666666Y-143704819D01*
X143666666Y-143704819D02*
X143809523Y-143752438D01*
X143809523Y-143752438D02*
X143857142Y-143800057D01*
X144809523Y-144704819D02*
X144238095Y-144704819D01*
X144523809Y-144704819D02*
X144523809Y-143704819D01*
X144523809Y-143704819D02*
X144428571Y-143847676D01*
X144428571Y-143847676D02*
X144333333Y-143942914D01*
X144333333Y-143942914D02*
X144238095Y-143990533D01*
X145380952Y-144133390D02*
X145285714Y-144085771D01*
X145285714Y-144085771D02*
X145238095Y-144038152D01*
X145238095Y-144038152D02*
X145190476Y-143942914D01*
X145190476Y-143942914D02*
X145190476Y-143895295D01*
X145190476Y-143895295D02*
X145238095Y-143800057D01*
X145238095Y-143800057D02*
X145285714Y-143752438D01*
X145285714Y-143752438D02*
X145380952Y-143704819D01*
X145380952Y-143704819D02*
X145571428Y-143704819D01*
X145571428Y-143704819D02*
X145666666Y-143752438D01*
X145666666Y-143752438D02*
X145714285Y-143800057D01*
X145714285Y-143800057D02*
X145761904Y-143895295D01*
X145761904Y-143895295D02*
X145761904Y-143942914D01*
X145761904Y-143942914D02*
X145714285Y-144038152D01*
X145714285Y-144038152D02*
X145666666Y-144085771D01*
X145666666Y-144085771D02*
X145571428Y-144133390D01*
X145571428Y-144133390D02*
X145380952Y-144133390D01*
X145380952Y-144133390D02*
X145285714Y-144181009D01*
X145285714Y-144181009D02*
X145238095Y-144228628D01*
X145238095Y-144228628D02*
X145190476Y-144323866D01*
X145190476Y-144323866D02*
X145190476Y-144514342D01*
X145190476Y-144514342D02*
X145238095Y-144609580D01*
X145238095Y-144609580D02*
X145285714Y-144657200D01*
X145285714Y-144657200D02*
X145380952Y-144704819D01*
X145380952Y-144704819D02*
X145571428Y-144704819D01*
X145571428Y-144704819D02*
X145666666Y-144657200D01*
X145666666Y-144657200D02*
X145714285Y-144609580D01*
X145714285Y-144609580D02*
X145761904Y-144514342D01*
X145761904Y-144514342D02*
X145761904Y-144323866D01*
X145761904Y-144323866D02*
X145714285Y-144228628D01*
X145714285Y-144228628D02*
X145666666Y-144181009D01*
X145666666Y-144181009D02*
X145571428Y-144133390D01*
X132607142Y-149359580D02*
X132559523Y-149407200D01*
X132559523Y-149407200D02*
X132416666Y-149454819D01*
X132416666Y-149454819D02*
X132321428Y-149454819D01*
X132321428Y-149454819D02*
X132178571Y-149407200D01*
X132178571Y-149407200D02*
X132083333Y-149311961D01*
X132083333Y-149311961D02*
X132035714Y-149216723D01*
X132035714Y-149216723D02*
X131988095Y-149026247D01*
X131988095Y-149026247D02*
X131988095Y-148883390D01*
X131988095Y-148883390D02*
X132035714Y-148692914D01*
X132035714Y-148692914D02*
X132083333Y-148597676D01*
X132083333Y-148597676D02*
X132178571Y-148502438D01*
X132178571Y-148502438D02*
X132321428Y-148454819D01*
X132321428Y-148454819D02*
X132416666Y-148454819D01*
X132416666Y-148454819D02*
X132559523Y-148502438D01*
X132559523Y-148502438D02*
X132607142Y-148550057D01*
X133559523Y-149454819D02*
X132988095Y-149454819D01*
X133273809Y-149454819D02*
X133273809Y-148454819D01*
X133273809Y-148454819D02*
X133178571Y-148597676D01*
X133178571Y-148597676D02*
X133083333Y-148692914D01*
X133083333Y-148692914D02*
X132988095Y-148740533D01*
X134035714Y-149454819D02*
X134226190Y-149454819D01*
X134226190Y-149454819D02*
X134321428Y-149407200D01*
X134321428Y-149407200D02*
X134369047Y-149359580D01*
X134369047Y-149359580D02*
X134464285Y-149216723D01*
X134464285Y-149216723D02*
X134511904Y-149026247D01*
X134511904Y-149026247D02*
X134511904Y-148645295D01*
X134511904Y-148645295D02*
X134464285Y-148550057D01*
X134464285Y-148550057D02*
X134416666Y-148502438D01*
X134416666Y-148502438D02*
X134321428Y-148454819D01*
X134321428Y-148454819D02*
X134130952Y-148454819D01*
X134130952Y-148454819D02*
X134035714Y-148502438D01*
X134035714Y-148502438D02*
X133988095Y-148550057D01*
X133988095Y-148550057D02*
X133940476Y-148645295D01*
X133940476Y-148645295D02*
X133940476Y-148883390D01*
X133940476Y-148883390D02*
X133988095Y-148978628D01*
X133988095Y-148978628D02*
X134035714Y-149026247D01*
X134035714Y-149026247D02*
X134130952Y-149073866D01*
X134130952Y-149073866D02*
X134321428Y-149073866D01*
X134321428Y-149073866D02*
X134416666Y-149026247D01*
X134416666Y-149026247D02*
X134464285Y-148978628D01*
X134464285Y-148978628D02*
X134511904Y-148883390D01*
X117174819Y-102383333D02*
X117889104Y-102383333D01*
X117889104Y-102383333D02*
X118031961Y-102430952D01*
X118031961Y-102430952D02*
X118127200Y-102526190D01*
X118127200Y-102526190D02*
X118174819Y-102669047D01*
X118174819Y-102669047D02*
X118174819Y-102764285D01*
X117174819Y-102002380D02*
X117174819Y-101335714D01*
X117174819Y-101335714D02*
X118174819Y-101764285D01*
X139333333Y-141054819D02*
X139000000Y-140578628D01*
X138761905Y-141054819D02*
X138761905Y-140054819D01*
X138761905Y-140054819D02*
X139142857Y-140054819D01*
X139142857Y-140054819D02*
X139238095Y-140102438D01*
X139238095Y-140102438D02*
X139285714Y-140150057D01*
X139285714Y-140150057D02*
X139333333Y-140245295D01*
X139333333Y-140245295D02*
X139333333Y-140388152D01*
X139333333Y-140388152D02*
X139285714Y-140483390D01*
X139285714Y-140483390D02*
X139238095Y-140531009D01*
X139238095Y-140531009D02*
X139142857Y-140578628D01*
X139142857Y-140578628D02*
X138761905Y-140578628D01*
X140190476Y-140054819D02*
X140000000Y-140054819D01*
X140000000Y-140054819D02*
X139904762Y-140102438D01*
X139904762Y-140102438D02*
X139857143Y-140150057D01*
X139857143Y-140150057D02*
X139761905Y-140292914D01*
X139761905Y-140292914D02*
X139714286Y-140483390D01*
X139714286Y-140483390D02*
X139714286Y-140864342D01*
X139714286Y-140864342D02*
X139761905Y-140959580D01*
X139761905Y-140959580D02*
X139809524Y-141007200D01*
X139809524Y-141007200D02*
X139904762Y-141054819D01*
X139904762Y-141054819D02*
X140095238Y-141054819D01*
X140095238Y-141054819D02*
X140190476Y-141007200D01*
X140190476Y-141007200D02*
X140238095Y-140959580D01*
X140238095Y-140959580D02*
X140285714Y-140864342D01*
X140285714Y-140864342D02*
X140285714Y-140626247D01*
X140285714Y-140626247D02*
X140238095Y-140531009D01*
X140238095Y-140531009D02*
X140190476Y-140483390D01*
X140190476Y-140483390D02*
X140095238Y-140435771D01*
X140095238Y-140435771D02*
X139904762Y-140435771D01*
X139904762Y-140435771D02*
X139809524Y-140483390D01*
X139809524Y-140483390D02*
X139761905Y-140531009D01*
X139761905Y-140531009D02*
X139714286Y-140626247D01*
X108237142Y-130949580D02*
X108189523Y-130997200D01*
X108189523Y-130997200D02*
X108046666Y-131044819D01*
X108046666Y-131044819D02*
X107951428Y-131044819D01*
X107951428Y-131044819D02*
X107808571Y-130997200D01*
X107808571Y-130997200D02*
X107713333Y-130901961D01*
X107713333Y-130901961D02*
X107665714Y-130806723D01*
X107665714Y-130806723D02*
X107618095Y-130616247D01*
X107618095Y-130616247D02*
X107618095Y-130473390D01*
X107618095Y-130473390D02*
X107665714Y-130282914D01*
X107665714Y-130282914D02*
X107713333Y-130187676D01*
X107713333Y-130187676D02*
X107808571Y-130092438D01*
X107808571Y-130092438D02*
X107951428Y-130044819D01*
X107951428Y-130044819D02*
X108046666Y-130044819D01*
X108046666Y-130044819D02*
X108189523Y-130092438D01*
X108189523Y-130092438D02*
X108237142Y-130140057D01*
X109189523Y-131044819D02*
X108618095Y-131044819D01*
X108903809Y-131044819D02*
X108903809Y-130044819D01*
X108903809Y-130044819D02*
X108808571Y-130187676D01*
X108808571Y-130187676D02*
X108713333Y-130282914D01*
X108713333Y-130282914D02*
X108618095Y-130330533D01*
X110141904Y-131044819D02*
X109570476Y-131044819D01*
X109856190Y-131044819D02*
X109856190Y-130044819D01*
X109856190Y-130044819D02*
X109760952Y-130187676D01*
X109760952Y-130187676D02*
X109665714Y-130282914D01*
X109665714Y-130282914D02*
X109570476Y-130330533D01*
X114943333Y-115419580D02*
X114895714Y-115467200D01*
X114895714Y-115467200D02*
X114752857Y-115514819D01*
X114752857Y-115514819D02*
X114657619Y-115514819D01*
X114657619Y-115514819D02*
X114514762Y-115467200D01*
X114514762Y-115467200D02*
X114419524Y-115371961D01*
X114419524Y-115371961D02*
X114371905Y-115276723D01*
X114371905Y-115276723D02*
X114324286Y-115086247D01*
X114324286Y-115086247D02*
X114324286Y-114943390D01*
X114324286Y-114943390D02*
X114371905Y-114752914D01*
X114371905Y-114752914D02*
X114419524Y-114657676D01*
X114419524Y-114657676D02*
X114514762Y-114562438D01*
X114514762Y-114562438D02*
X114657619Y-114514819D01*
X114657619Y-114514819D02*
X114752857Y-114514819D01*
X114752857Y-114514819D02*
X114895714Y-114562438D01*
X114895714Y-114562438D02*
X114943333Y-114610057D01*
X115514762Y-114943390D02*
X115419524Y-114895771D01*
X115419524Y-114895771D02*
X115371905Y-114848152D01*
X115371905Y-114848152D02*
X115324286Y-114752914D01*
X115324286Y-114752914D02*
X115324286Y-114705295D01*
X115324286Y-114705295D02*
X115371905Y-114610057D01*
X115371905Y-114610057D02*
X115419524Y-114562438D01*
X115419524Y-114562438D02*
X115514762Y-114514819D01*
X115514762Y-114514819D02*
X115705238Y-114514819D01*
X115705238Y-114514819D02*
X115800476Y-114562438D01*
X115800476Y-114562438D02*
X115848095Y-114610057D01*
X115848095Y-114610057D02*
X115895714Y-114705295D01*
X115895714Y-114705295D02*
X115895714Y-114752914D01*
X115895714Y-114752914D02*
X115848095Y-114848152D01*
X115848095Y-114848152D02*
X115800476Y-114895771D01*
X115800476Y-114895771D02*
X115705238Y-114943390D01*
X115705238Y-114943390D02*
X115514762Y-114943390D01*
X115514762Y-114943390D02*
X115419524Y-114991009D01*
X115419524Y-114991009D02*
X115371905Y-115038628D01*
X115371905Y-115038628D02*
X115324286Y-115133866D01*
X115324286Y-115133866D02*
X115324286Y-115324342D01*
X115324286Y-115324342D02*
X115371905Y-115419580D01*
X115371905Y-115419580D02*
X115419524Y-115467200D01*
X115419524Y-115467200D02*
X115514762Y-115514819D01*
X115514762Y-115514819D02*
X115705238Y-115514819D01*
X115705238Y-115514819D02*
X115800476Y-115467200D01*
X115800476Y-115467200D02*
X115848095Y-115419580D01*
X115848095Y-115419580D02*
X115895714Y-115324342D01*
X115895714Y-115324342D02*
X115895714Y-115133866D01*
X115895714Y-115133866D02*
X115848095Y-115038628D01*
X115848095Y-115038628D02*
X115800476Y-114991009D01*
X115800476Y-114991009D02*
X115705238Y-114943390D01*
X134033333Y-116179580D02*
X133985714Y-116227200D01*
X133985714Y-116227200D02*
X133842857Y-116274819D01*
X133842857Y-116274819D02*
X133747619Y-116274819D01*
X133747619Y-116274819D02*
X133604762Y-116227200D01*
X133604762Y-116227200D02*
X133509524Y-116131961D01*
X133509524Y-116131961D02*
X133461905Y-116036723D01*
X133461905Y-116036723D02*
X133414286Y-115846247D01*
X133414286Y-115846247D02*
X133414286Y-115703390D01*
X133414286Y-115703390D02*
X133461905Y-115512914D01*
X133461905Y-115512914D02*
X133509524Y-115417676D01*
X133509524Y-115417676D02*
X133604762Y-115322438D01*
X133604762Y-115322438D02*
X133747619Y-115274819D01*
X133747619Y-115274819D02*
X133842857Y-115274819D01*
X133842857Y-115274819D02*
X133985714Y-115322438D01*
X133985714Y-115322438D02*
X134033333Y-115370057D01*
X134366667Y-115274819D02*
X134985714Y-115274819D01*
X134985714Y-115274819D02*
X134652381Y-115655771D01*
X134652381Y-115655771D02*
X134795238Y-115655771D01*
X134795238Y-115655771D02*
X134890476Y-115703390D01*
X134890476Y-115703390D02*
X134938095Y-115751009D01*
X134938095Y-115751009D02*
X134985714Y-115846247D01*
X134985714Y-115846247D02*
X134985714Y-116084342D01*
X134985714Y-116084342D02*
X134938095Y-116179580D01*
X134938095Y-116179580D02*
X134890476Y-116227200D01*
X134890476Y-116227200D02*
X134795238Y-116274819D01*
X134795238Y-116274819D02*
X134509524Y-116274819D01*
X134509524Y-116274819D02*
X134414286Y-116227200D01*
X134414286Y-116227200D02*
X134366667Y-116179580D01*
X114267142Y-125829580D02*
X114219523Y-125877200D01*
X114219523Y-125877200D02*
X114076666Y-125924819D01*
X114076666Y-125924819D02*
X113981428Y-125924819D01*
X113981428Y-125924819D02*
X113838571Y-125877200D01*
X113838571Y-125877200D02*
X113743333Y-125781961D01*
X113743333Y-125781961D02*
X113695714Y-125686723D01*
X113695714Y-125686723D02*
X113648095Y-125496247D01*
X113648095Y-125496247D02*
X113648095Y-125353390D01*
X113648095Y-125353390D02*
X113695714Y-125162914D01*
X113695714Y-125162914D02*
X113743333Y-125067676D01*
X113743333Y-125067676D02*
X113838571Y-124972438D01*
X113838571Y-124972438D02*
X113981428Y-124924819D01*
X113981428Y-124924819D02*
X114076666Y-124924819D01*
X114076666Y-124924819D02*
X114219523Y-124972438D01*
X114219523Y-124972438D02*
X114267142Y-125020057D01*
X115219523Y-125924819D02*
X114648095Y-125924819D01*
X114933809Y-125924819D02*
X114933809Y-124924819D01*
X114933809Y-124924819D02*
X114838571Y-125067676D01*
X114838571Y-125067676D02*
X114743333Y-125162914D01*
X114743333Y-125162914D02*
X114648095Y-125210533D01*
X115838571Y-124924819D02*
X115933809Y-124924819D01*
X115933809Y-124924819D02*
X116029047Y-124972438D01*
X116029047Y-124972438D02*
X116076666Y-125020057D01*
X116076666Y-125020057D02*
X116124285Y-125115295D01*
X116124285Y-125115295D02*
X116171904Y-125305771D01*
X116171904Y-125305771D02*
X116171904Y-125543866D01*
X116171904Y-125543866D02*
X116124285Y-125734342D01*
X116124285Y-125734342D02*
X116076666Y-125829580D01*
X116076666Y-125829580D02*
X116029047Y-125877200D01*
X116029047Y-125877200D02*
X115933809Y-125924819D01*
X115933809Y-125924819D02*
X115838571Y-125924819D01*
X115838571Y-125924819D02*
X115743333Y-125877200D01*
X115743333Y-125877200D02*
X115695714Y-125829580D01*
X115695714Y-125829580D02*
X115648095Y-125734342D01*
X115648095Y-125734342D02*
X115600476Y-125543866D01*
X115600476Y-125543866D02*
X115600476Y-125305771D01*
X115600476Y-125305771D02*
X115648095Y-125115295D01*
X115648095Y-125115295D02*
X115695714Y-125020057D01*
X115695714Y-125020057D02*
X115743333Y-124972438D01*
X115743333Y-124972438D02*
X115838571Y-124924819D01*
X138458789Y-121956656D02*
X138458789Y-122766179D01*
X138458789Y-122766179D02*
X138506408Y-122861417D01*
X138506408Y-122861417D02*
X138554027Y-122909037D01*
X138554027Y-122909037D02*
X138649265Y-122956656D01*
X138649265Y-122956656D02*
X138839741Y-122956656D01*
X138839741Y-122956656D02*
X138934979Y-122909037D01*
X138934979Y-122909037D02*
X138982598Y-122861417D01*
X138982598Y-122861417D02*
X139030217Y-122766179D01*
X139030217Y-122766179D02*
X139030217Y-121956656D01*
X139411170Y-121956656D02*
X140030217Y-121956656D01*
X140030217Y-121956656D02*
X139696884Y-122337608D01*
X139696884Y-122337608D02*
X139839741Y-122337608D01*
X139839741Y-122337608D02*
X139934979Y-122385227D01*
X139934979Y-122385227D02*
X139982598Y-122432846D01*
X139982598Y-122432846D02*
X140030217Y-122528084D01*
X140030217Y-122528084D02*
X140030217Y-122766179D01*
X140030217Y-122766179D02*
X139982598Y-122861417D01*
X139982598Y-122861417D02*
X139934979Y-122909037D01*
X139934979Y-122909037D02*
X139839741Y-122956656D01*
X139839741Y-122956656D02*
X139554027Y-122956656D01*
X139554027Y-122956656D02*
X139458789Y-122909037D01*
X139458789Y-122909037D02*
X139411170Y-122861417D01*
D10*
X101603884Y-108772419D02*
X101603884Y-107772419D01*
X101603884Y-107772419D02*
X102175312Y-108772419D01*
X102175312Y-108772419D02*
X102175312Y-107772419D01*
X102508646Y-107772419D02*
X102841979Y-108772419D01*
X102841979Y-108772419D02*
X103175312Y-107772419D01*
X103508646Y-108772419D02*
X103508646Y-107772419D01*
X103508646Y-107772419D02*
X103889598Y-107772419D01*
X103889598Y-107772419D02*
X103984836Y-107820038D01*
X103984836Y-107820038D02*
X104032455Y-107867657D01*
X104032455Y-107867657D02*
X104080074Y-107962895D01*
X104080074Y-107962895D02*
X104080074Y-108105752D01*
X104080074Y-108105752D02*
X104032455Y-108200990D01*
X104032455Y-108200990D02*
X103984836Y-108248609D01*
X103984836Y-108248609D02*
X103889598Y-108296228D01*
X103889598Y-108296228D02*
X103508646Y-108296228D01*
X105080074Y-108677180D02*
X105032455Y-108724800D01*
X105032455Y-108724800D02*
X104889598Y-108772419D01*
X104889598Y-108772419D02*
X104794360Y-108772419D01*
X104794360Y-108772419D02*
X104651503Y-108724800D01*
X104651503Y-108724800D02*
X104556265Y-108629561D01*
X104556265Y-108629561D02*
X104508646Y-108534323D01*
X104508646Y-108534323D02*
X104461027Y-108343847D01*
X104461027Y-108343847D02*
X104461027Y-108200990D01*
X104461027Y-108200990D02*
X104508646Y-108010514D01*
X104508646Y-108010514D02*
X104556265Y-107915276D01*
X104556265Y-107915276D02*
X104651503Y-107820038D01*
X104651503Y-107820038D02*
X104794360Y-107772419D01*
X104794360Y-107772419D02*
X104889598Y-107772419D01*
X104889598Y-107772419D02*
X105032455Y-107820038D01*
X105032455Y-107820038D02*
X105080074Y-107867657D01*
D11*
X129133333Y-141154819D02*
X128800000Y-140678628D01*
X128561905Y-141154819D02*
X128561905Y-140154819D01*
X128561905Y-140154819D02*
X128942857Y-140154819D01*
X128942857Y-140154819D02*
X129038095Y-140202438D01*
X129038095Y-140202438D02*
X129085714Y-140250057D01*
X129085714Y-140250057D02*
X129133333Y-140345295D01*
X129133333Y-140345295D02*
X129133333Y-140488152D01*
X129133333Y-140488152D02*
X129085714Y-140583390D01*
X129085714Y-140583390D02*
X129038095Y-140631009D01*
X129038095Y-140631009D02*
X128942857Y-140678628D01*
X128942857Y-140678628D02*
X128561905Y-140678628D01*
X129466667Y-140154819D02*
X130133333Y-140154819D01*
X130133333Y-140154819D02*
X129704762Y-141154819D01*
X108137142Y-133959580D02*
X108089523Y-134007200D01*
X108089523Y-134007200D02*
X107946666Y-134054819D01*
X107946666Y-134054819D02*
X107851428Y-134054819D01*
X107851428Y-134054819D02*
X107708571Y-134007200D01*
X107708571Y-134007200D02*
X107613333Y-133911961D01*
X107613333Y-133911961D02*
X107565714Y-133816723D01*
X107565714Y-133816723D02*
X107518095Y-133626247D01*
X107518095Y-133626247D02*
X107518095Y-133483390D01*
X107518095Y-133483390D02*
X107565714Y-133292914D01*
X107565714Y-133292914D02*
X107613333Y-133197676D01*
X107613333Y-133197676D02*
X107708571Y-133102438D01*
X107708571Y-133102438D02*
X107851428Y-133054819D01*
X107851428Y-133054819D02*
X107946666Y-133054819D01*
X107946666Y-133054819D02*
X108089523Y-133102438D01*
X108089523Y-133102438D02*
X108137142Y-133150057D01*
X109089523Y-134054819D02*
X108518095Y-134054819D01*
X108803809Y-134054819D02*
X108803809Y-133054819D01*
X108803809Y-133054819D02*
X108708571Y-133197676D01*
X108708571Y-133197676D02*
X108613333Y-133292914D01*
X108613333Y-133292914D02*
X108518095Y-133340533D01*
X109470476Y-133150057D02*
X109518095Y-133102438D01*
X109518095Y-133102438D02*
X109613333Y-133054819D01*
X109613333Y-133054819D02*
X109851428Y-133054819D01*
X109851428Y-133054819D02*
X109946666Y-133102438D01*
X109946666Y-133102438D02*
X109994285Y-133150057D01*
X109994285Y-133150057D02*
X110041904Y-133245295D01*
X110041904Y-133245295D02*
X110041904Y-133340533D01*
X110041904Y-133340533D02*
X109994285Y-133483390D01*
X109994285Y-133483390D02*
X109422857Y-134054819D01*
X109422857Y-134054819D02*
X110041904Y-134054819D01*
X146259333Y-142853819D02*
X145926000Y-142377628D01*
X145687905Y-142853819D02*
X145687905Y-141853819D01*
X145687905Y-141853819D02*
X146068857Y-141853819D01*
X146068857Y-141853819D02*
X146164095Y-141901438D01*
X146164095Y-141901438D02*
X146211714Y-141949057D01*
X146211714Y-141949057D02*
X146259333Y-142044295D01*
X146259333Y-142044295D02*
X146259333Y-142187152D01*
X146259333Y-142187152D02*
X146211714Y-142282390D01*
X146211714Y-142282390D02*
X146164095Y-142330009D01*
X146164095Y-142330009D02*
X146068857Y-142377628D01*
X146068857Y-142377628D02*
X145687905Y-142377628D01*
X146592667Y-141853819D02*
X147211714Y-141853819D01*
X147211714Y-141853819D02*
X146878381Y-142234771D01*
X146878381Y-142234771D02*
X147021238Y-142234771D01*
X147021238Y-142234771D02*
X147116476Y-142282390D01*
X147116476Y-142282390D02*
X147164095Y-142330009D01*
X147164095Y-142330009D02*
X147211714Y-142425247D01*
X147211714Y-142425247D02*
X147211714Y-142663342D01*
X147211714Y-142663342D02*
X147164095Y-142758580D01*
X147164095Y-142758580D02*
X147116476Y-142806200D01*
X147116476Y-142806200D02*
X147021238Y-142853819D01*
X147021238Y-142853819D02*
X146735524Y-142853819D01*
X146735524Y-142853819D02*
X146640286Y-142806200D01*
X146640286Y-142806200D02*
X146592667Y-142758580D01*
X116363333Y-137059580D02*
X116315714Y-137107200D01*
X116315714Y-137107200D02*
X116172857Y-137154819D01*
X116172857Y-137154819D02*
X116077619Y-137154819D01*
X116077619Y-137154819D02*
X115934762Y-137107200D01*
X115934762Y-137107200D02*
X115839524Y-137011961D01*
X115839524Y-137011961D02*
X115791905Y-136916723D01*
X115791905Y-136916723D02*
X115744286Y-136726247D01*
X115744286Y-136726247D02*
X115744286Y-136583390D01*
X115744286Y-136583390D02*
X115791905Y-136392914D01*
X115791905Y-136392914D02*
X115839524Y-136297676D01*
X115839524Y-136297676D02*
X115934762Y-136202438D01*
X115934762Y-136202438D02*
X116077619Y-136154819D01*
X116077619Y-136154819D02*
X116172857Y-136154819D01*
X116172857Y-136154819D02*
X116315714Y-136202438D01*
X116315714Y-136202438D02*
X116363333Y-136250057D01*
X117268095Y-136154819D02*
X116791905Y-136154819D01*
X116791905Y-136154819D02*
X116744286Y-136631009D01*
X116744286Y-136631009D02*
X116791905Y-136583390D01*
X116791905Y-136583390D02*
X116887143Y-136535771D01*
X116887143Y-136535771D02*
X117125238Y-136535771D01*
X117125238Y-136535771D02*
X117220476Y-136583390D01*
X117220476Y-136583390D02*
X117268095Y-136631009D01*
X117268095Y-136631009D02*
X117315714Y-136726247D01*
X117315714Y-136726247D02*
X117315714Y-136964342D01*
X117315714Y-136964342D02*
X117268095Y-137059580D01*
X117268095Y-137059580D02*
X117220476Y-137107200D01*
X117220476Y-137107200D02*
X117125238Y-137154819D01*
X117125238Y-137154819D02*
X116887143Y-137154819D01*
X116887143Y-137154819D02*
X116791905Y-137107200D01*
X116791905Y-137107200D02*
X116744286Y-137059580D01*
X116973333Y-111394819D02*
X116640000Y-110918628D01*
X116401905Y-111394819D02*
X116401905Y-110394819D01*
X116401905Y-110394819D02*
X116782857Y-110394819D01*
X116782857Y-110394819D02*
X116878095Y-110442438D01*
X116878095Y-110442438D02*
X116925714Y-110490057D01*
X116925714Y-110490057D02*
X116973333Y-110585295D01*
X116973333Y-110585295D02*
X116973333Y-110728152D01*
X116973333Y-110728152D02*
X116925714Y-110823390D01*
X116925714Y-110823390D02*
X116878095Y-110871009D01*
X116878095Y-110871009D02*
X116782857Y-110918628D01*
X116782857Y-110918628D02*
X116401905Y-110918628D01*
X117354286Y-110490057D02*
X117401905Y-110442438D01*
X117401905Y-110442438D02*
X117497143Y-110394819D01*
X117497143Y-110394819D02*
X117735238Y-110394819D01*
X117735238Y-110394819D02*
X117830476Y-110442438D01*
X117830476Y-110442438D02*
X117878095Y-110490057D01*
X117878095Y-110490057D02*
X117925714Y-110585295D01*
X117925714Y-110585295D02*
X117925714Y-110680533D01*
X117925714Y-110680533D02*
X117878095Y-110823390D01*
X117878095Y-110823390D02*
X117306667Y-111394819D01*
X117306667Y-111394819D02*
X117925714Y-111394819D01*
X147677142Y-136199580D02*
X147629523Y-136247200D01*
X147629523Y-136247200D02*
X147486666Y-136294819D01*
X147486666Y-136294819D02*
X147391428Y-136294819D01*
X147391428Y-136294819D02*
X147248571Y-136247200D01*
X147248571Y-136247200D02*
X147153333Y-136151961D01*
X147153333Y-136151961D02*
X147105714Y-136056723D01*
X147105714Y-136056723D02*
X147058095Y-135866247D01*
X147058095Y-135866247D02*
X147058095Y-135723390D01*
X147058095Y-135723390D02*
X147105714Y-135532914D01*
X147105714Y-135532914D02*
X147153333Y-135437676D01*
X147153333Y-135437676D02*
X147248571Y-135342438D01*
X147248571Y-135342438D02*
X147391428Y-135294819D01*
X147391428Y-135294819D02*
X147486666Y-135294819D01*
X147486666Y-135294819D02*
X147629523Y-135342438D01*
X147629523Y-135342438D02*
X147677142Y-135390057D01*
X148629523Y-136294819D02*
X148058095Y-136294819D01*
X148343809Y-136294819D02*
X148343809Y-135294819D01*
X148343809Y-135294819D02*
X148248571Y-135437676D01*
X148248571Y-135437676D02*
X148153333Y-135532914D01*
X148153333Y-135532914D02*
X148058095Y-135580533D01*
X149486666Y-135628152D02*
X149486666Y-136294819D01*
X149248571Y-135247200D02*
X149010476Y-135961485D01*
X149010476Y-135961485D02*
X149629523Y-135961485D01*
X115003333Y-113449580D02*
X114955714Y-113497200D01*
X114955714Y-113497200D02*
X114812857Y-113544819D01*
X114812857Y-113544819D02*
X114717619Y-113544819D01*
X114717619Y-113544819D02*
X114574762Y-113497200D01*
X114574762Y-113497200D02*
X114479524Y-113401961D01*
X114479524Y-113401961D02*
X114431905Y-113306723D01*
X114431905Y-113306723D02*
X114384286Y-113116247D01*
X114384286Y-113116247D02*
X114384286Y-112973390D01*
X114384286Y-112973390D02*
X114431905Y-112782914D01*
X114431905Y-112782914D02*
X114479524Y-112687676D01*
X114479524Y-112687676D02*
X114574762Y-112592438D01*
X114574762Y-112592438D02*
X114717619Y-112544819D01*
X114717619Y-112544819D02*
X114812857Y-112544819D01*
X114812857Y-112544819D02*
X114955714Y-112592438D01*
X114955714Y-112592438D02*
X115003333Y-112640057D01*
X115479524Y-113544819D02*
X115670000Y-113544819D01*
X115670000Y-113544819D02*
X115765238Y-113497200D01*
X115765238Y-113497200D02*
X115812857Y-113449580D01*
X115812857Y-113449580D02*
X115908095Y-113306723D01*
X115908095Y-113306723D02*
X115955714Y-113116247D01*
X115955714Y-113116247D02*
X115955714Y-112735295D01*
X115955714Y-112735295D02*
X115908095Y-112640057D01*
X115908095Y-112640057D02*
X115860476Y-112592438D01*
X115860476Y-112592438D02*
X115765238Y-112544819D01*
X115765238Y-112544819D02*
X115574762Y-112544819D01*
X115574762Y-112544819D02*
X115479524Y-112592438D01*
X115479524Y-112592438D02*
X115431905Y-112640057D01*
X115431905Y-112640057D02*
X115384286Y-112735295D01*
X115384286Y-112735295D02*
X115384286Y-112973390D01*
X115384286Y-112973390D02*
X115431905Y-113068628D01*
X115431905Y-113068628D02*
X115479524Y-113116247D01*
X115479524Y-113116247D02*
X115574762Y-113163866D01*
X115574762Y-113163866D02*
X115765238Y-113163866D01*
X115765238Y-113163866D02*
X115860476Y-113116247D01*
X115860476Y-113116247D02*
X115908095Y-113068628D01*
X115908095Y-113068628D02*
X115955714Y-112973390D01*
X110803333Y-121389580D02*
X110755714Y-121437200D01*
X110755714Y-121437200D02*
X110612857Y-121484819D01*
X110612857Y-121484819D02*
X110517619Y-121484819D01*
X110517619Y-121484819D02*
X110374762Y-121437200D01*
X110374762Y-121437200D02*
X110279524Y-121341961D01*
X110279524Y-121341961D02*
X110231905Y-121246723D01*
X110231905Y-121246723D02*
X110184286Y-121056247D01*
X110184286Y-121056247D02*
X110184286Y-120913390D01*
X110184286Y-120913390D02*
X110231905Y-120722914D01*
X110231905Y-120722914D02*
X110279524Y-120627676D01*
X110279524Y-120627676D02*
X110374762Y-120532438D01*
X110374762Y-120532438D02*
X110517619Y-120484819D01*
X110517619Y-120484819D02*
X110612857Y-120484819D01*
X110612857Y-120484819D02*
X110755714Y-120532438D01*
X110755714Y-120532438D02*
X110803333Y-120580057D01*
X111136667Y-120484819D02*
X111803333Y-120484819D01*
X111803333Y-120484819D02*
X111374762Y-121484819D01*
X107353333Y-121359580D02*
X107305714Y-121407200D01*
X107305714Y-121407200D02*
X107162857Y-121454819D01*
X107162857Y-121454819D02*
X107067619Y-121454819D01*
X107067619Y-121454819D02*
X106924762Y-121407200D01*
X106924762Y-121407200D02*
X106829524Y-121311961D01*
X106829524Y-121311961D02*
X106781905Y-121216723D01*
X106781905Y-121216723D02*
X106734286Y-121026247D01*
X106734286Y-121026247D02*
X106734286Y-120883390D01*
X106734286Y-120883390D02*
X106781905Y-120692914D01*
X106781905Y-120692914D02*
X106829524Y-120597676D01*
X106829524Y-120597676D02*
X106924762Y-120502438D01*
X106924762Y-120502438D02*
X107067619Y-120454819D01*
X107067619Y-120454819D02*
X107162857Y-120454819D01*
X107162857Y-120454819D02*
X107305714Y-120502438D01*
X107305714Y-120502438D02*
X107353333Y-120550057D01*
X108305714Y-121454819D02*
X107734286Y-121454819D01*
X108020000Y-121454819D02*
X108020000Y-120454819D01*
X108020000Y-120454819D02*
X107924762Y-120597676D01*
X107924762Y-120597676D02*
X107829524Y-120692914D01*
X107829524Y-120692914D02*
X107734286Y-120740533D01*
X145277142Y-133969580D02*
X145229523Y-134017200D01*
X145229523Y-134017200D02*
X145086666Y-134064819D01*
X145086666Y-134064819D02*
X144991428Y-134064819D01*
X144991428Y-134064819D02*
X144848571Y-134017200D01*
X144848571Y-134017200D02*
X144753333Y-133921961D01*
X144753333Y-133921961D02*
X144705714Y-133826723D01*
X144705714Y-133826723D02*
X144658095Y-133636247D01*
X144658095Y-133636247D02*
X144658095Y-133493390D01*
X144658095Y-133493390D02*
X144705714Y-133302914D01*
X144705714Y-133302914D02*
X144753333Y-133207676D01*
X144753333Y-133207676D02*
X144848571Y-133112438D01*
X144848571Y-133112438D02*
X144991428Y-133064819D01*
X144991428Y-133064819D02*
X145086666Y-133064819D01*
X145086666Y-133064819D02*
X145229523Y-133112438D01*
X145229523Y-133112438D02*
X145277142Y-133160057D01*
X146229523Y-134064819D02*
X145658095Y-134064819D01*
X145943809Y-134064819D02*
X145943809Y-133064819D01*
X145943809Y-133064819D02*
X145848571Y-133207676D01*
X145848571Y-133207676D02*
X145753333Y-133302914D01*
X145753333Y-133302914D02*
X145658095Y-133350533D01*
X146562857Y-133064819D02*
X147181904Y-133064819D01*
X147181904Y-133064819D02*
X146848571Y-133445771D01*
X146848571Y-133445771D02*
X146991428Y-133445771D01*
X146991428Y-133445771D02*
X147086666Y-133493390D01*
X147086666Y-133493390D02*
X147134285Y-133541009D01*
X147134285Y-133541009D02*
X147181904Y-133636247D01*
X147181904Y-133636247D02*
X147181904Y-133874342D01*
X147181904Y-133874342D02*
X147134285Y-133969580D01*
X147134285Y-133969580D02*
X147086666Y-134017200D01*
X147086666Y-134017200D02*
X146991428Y-134064819D01*
X146991428Y-134064819D02*
X146705714Y-134064819D01*
X146705714Y-134064819D02*
X146610476Y-134017200D01*
X146610476Y-134017200D02*
X146562857Y-133969580D01*
X130445333Y-134865580D02*
X130397714Y-134913200D01*
X130397714Y-134913200D02*
X130254857Y-134960819D01*
X130254857Y-134960819D02*
X130159619Y-134960819D01*
X130159619Y-134960819D02*
X130016762Y-134913200D01*
X130016762Y-134913200D02*
X129921524Y-134817961D01*
X129921524Y-134817961D02*
X129873905Y-134722723D01*
X129873905Y-134722723D02*
X129826286Y-134532247D01*
X129826286Y-134532247D02*
X129826286Y-134389390D01*
X129826286Y-134389390D02*
X129873905Y-134198914D01*
X129873905Y-134198914D02*
X129921524Y-134103676D01*
X129921524Y-134103676D02*
X130016762Y-134008438D01*
X130016762Y-134008438D02*
X130159619Y-133960819D01*
X130159619Y-133960819D02*
X130254857Y-133960819D01*
X130254857Y-133960819D02*
X130397714Y-134008438D01*
X130397714Y-134008438D02*
X130445333Y-134056057D01*
X131302476Y-134294152D02*
X131302476Y-134960819D01*
X131064381Y-133913200D02*
X130826286Y-134627485D01*
X130826286Y-134627485D02*
X131445333Y-134627485D01*
X110967142Y-125459580D02*
X110919523Y-125507200D01*
X110919523Y-125507200D02*
X110776666Y-125554819D01*
X110776666Y-125554819D02*
X110681428Y-125554819D01*
X110681428Y-125554819D02*
X110538571Y-125507200D01*
X110538571Y-125507200D02*
X110443333Y-125411961D01*
X110443333Y-125411961D02*
X110395714Y-125316723D01*
X110395714Y-125316723D02*
X110348095Y-125126247D01*
X110348095Y-125126247D02*
X110348095Y-124983390D01*
X110348095Y-124983390D02*
X110395714Y-124792914D01*
X110395714Y-124792914D02*
X110443333Y-124697676D01*
X110443333Y-124697676D02*
X110538571Y-124602438D01*
X110538571Y-124602438D02*
X110681428Y-124554819D01*
X110681428Y-124554819D02*
X110776666Y-124554819D01*
X110776666Y-124554819D02*
X110919523Y-124602438D01*
X110919523Y-124602438D02*
X110967142Y-124650057D01*
X111919523Y-125554819D02*
X111348095Y-125554819D01*
X111633809Y-125554819D02*
X111633809Y-124554819D01*
X111633809Y-124554819D02*
X111538571Y-124697676D01*
X111538571Y-124697676D02*
X111443333Y-124792914D01*
X111443333Y-124792914D02*
X111348095Y-124840533D01*
X112824285Y-124554819D02*
X112348095Y-124554819D01*
X112348095Y-124554819D02*
X112300476Y-125031009D01*
X112300476Y-125031009D02*
X112348095Y-124983390D01*
X112348095Y-124983390D02*
X112443333Y-124935771D01*
X112443333Y-124935771D02*
X112681428Y-124935771D01*
X112681428Y-124935771D02*
X112776666Y-124983390D01*
X112776666Y-124983390D02*
X112824285Y-125031009D01*
X112824285Y-125031009D02*
X112871904Y-125126247D01*
X112871904Y-125126247D02*
X112871904Y-125364342D01*
X112871904Y-125364342D02*
X112824285Y-125459580D01*
X112824285Y-125459580D02*
X112776666Y-125507200D01*
X112776666Y-125507200D02*
X112681428Y-125554819D01*
X112681428Y-125554819D02*
X112443333Y-125554819D01*
X112443333Y-125554819D02*
X112348095Y-125507200D01*
X112348095Y-125507200D02*
X112300476Y-125459580D01*
X101753809Y-121478628D02*
X101753809Y-121954819D01*
X101420476Y-120954819D02*
X101753809Y-121478628D01*
X101753809Y-121478628D02*
X102087142Y-120954819D01*
X102944285Y-121954819D02*
X102372857Y-121954819D01*
X102658571Y-121954819D02*
X102658571Y-120954819D01*
X102658571Y-120954819D02*
X102563333Y-121097676D01*
X102563333Y-121097676D02*
X102468095Y-121192914D01*
X102468095Y-121192914D02*
X102372857Y-121240533D01*
X127588142Y-137514580D02*
X127540523Y-137562200D01*
X127540523Y-137562200D02*
X127397666Y-137609819D01*
X127397666Y-137609819D02*
X127302428Y-137609819D01*
X127302428Y-137609819D02*
X127159571Y-137562200D01*
X127159571Y-137562200D02*
X127064333Y-137466961D01*
X127064333Y-137466961D02*
X127016714Y-137371723D01*
X127016714Y-137371723D02*
X126969095Y-137181247D01*
X126969095Y-137181247D02*
X126969095Y-137038390D01*
X126969095Y-137038390D02*
X127016714Y-136847914D01*
X127016714Y-136847914D02*
X127064333Y-136752676D01*
X127064333Y-136752676D02*
X127159571Y-136657438D01*
X127159571Y-136657438D02*
X127302428Y-136609819D01*
X127302428Y-136609819D02*
X127397666Y-136609819D01*
X127397666Y-136609819D02*
X127540523Y-136657438D01*
X127540523Y-136657438D02*
X127588142Y-136705057D01*
X128540523Y-137609819D02*
X127969095Y-137609819D01*
X128254809Y-137609819D02*
X128254809Y-136609819D01*
X128254809Y-136609819D02*
X128159571Y-136752676D01*
X128159571Y-136752676D02*
X128064333Y-136847914D01*
X128064333Y-136847914D02*
X127969095Y-136895533D01*
X128873857Y-136609819D02*
X129540523Y-136609819D01*
X129540523Y-136609819D02*
X129111952Y-137609819D01*
X146576666Y-124474819D02*
X146576666Y-125189104D01*
X146576666Y-125189104D02*
X146529047Y-125331961D01*
X146529047Y-125331961D02*
X146433809Y-125427200D01*
X146433809Y-125427200D02*
X146290952Y-125474819D01*
X146290952Y-125474819D02*
X146195714Y-125474819D01*
X147576666Y-125474819D02*
X147005238Y-125474819D01*
X147290952Y-125474819D02*
X147290952Y-124474819D01*
X147290952Y-124474819D02*
X147195714Y-124617676D01*
X147195714Y-124617676D02*
X147100476Y-124712914D01*
X147100476Y-124712914D02*
X147005238Y-124760533D01*
X114206666Y-134641009D02*
X113873333Y-134641009D01*
X113873333Y-135164819D02*
X113873333Y-134164819D01*
X113873333Y-134164819D02*
X114349523Y-134164819D01*
X115063809Y-134641009D02*
X115206666Y-134688628D01*
X115206666Y-134688628D02*
X115254285Y-134736247D01*
X115254285Y-134736247D02*
X115301904Y-134831485D01*
X115301904Y-134831485D02*
X115301904Y-134974342D01*
X115301904Y-134974342D02*
X115254285Y-135069580D01*
X115254285Y-135069580D02*
X115206666Y-135117200D01*
X115206666Y-135117200D02*
X115111428Y-135164819D01*
X115111428Y-135164819D02*
X114730476Y-135164819D01*
X114730476Y-135164819D02*
X114730476Y-134164819D01*
X114730476Y-134164819D02*
X115063809Y-134164819D01*
X115063809Y-134164819D02*
X115159047Y-134212438D01*
X115159047Y-134212438D02*
X115206666Y-134260057D01*
X115206666Y-134260057D02*
X115254285Y-134355295D01*
X115254285Y-134355295D02*
X115254285Y-134450533D01*
X115254285Y-134450533D02*
X115206666Y-134545771D01*
X115206666Y-134545771D02*
X115159047Y-134593390D01*
X115159047Y-134593390D02*
X115063809Y-134641009D01*
X115063809Y-134641009D02*
X114730476Y-134641009D01*
X116254285Y-135164819D02*
X115682857Y-135164819D01*
X115968571Y-135164819D02*
X115968571Y-134164819D01*
X115968571Y-134164819D02*
X115873333Y-134307676D01*
X115873333Y-134307676D02*
X115778095Y-134402914D01*
X115778095Y-134402914D02*
X115682857Y-134450533D01*
X110893333Y-123589580D02*
X110845714Y-123637200D01*
X110845714Y-123637200D02*
X110702857Y-123684819D01*
X110702857Y-123684819D02*
X110607619Y-123684819D01*
X110607619Y-123684819D02*
X110464762Y-123637200D01*
X110464762Y-123637200D02*
X110369524Y-123541961D01*
X110369524Y-123541961D02*
X110321905Y-123446723D01*
X110321905Y-123446723D02*
X110274286Y-123256247D01*
X110274286Y-123256247D02*
X110274286Y-123113390D01*
X110274286Y-123113390D02*
X110321905Y-122922914D01*
X110321905Y-122922914D02*
X110369524Y-122827676D01*
X110369524Y-122827676D02*
X110464762Y-122732438D01*
X110464762Y-122732438D02*
X110607619Y-122684819D01*
X110607619Y-122684819D02*
X110702857Y-122684819D01*
X110702857Y-122684819D02*
X110845714Y-122732438D01*
X110845714Y-122732438D02*
X110893333Y-122780057D01*
X111750476Y-122684819D02*
X111560000Y-122684819D01*
X111560000Y-122684819D02*
X111464762Y-122732438D01*
X111464762Y-122732438D02*
X111417143Y-122780057D01*
X111417143Y-122780057D02*
X111321905Y-122922914D01*
X111321905Y-122922914D02*
X111274286Y-123113390D01*
X111274286Y-123113390D02*
X111274286Y-123494342D01*
X111274286Y-123494342D02*
X111321905Y-123589580D01*
X111321905Y-123589580D02*
X111369524Y-123637200D01*
X111369524Y-123637200D02*
X111464762Y-123684819D01*
X111464762Y-123684819D02*
X111655238Y-123684819D01*
X111655238Y-123684819D02*
X111750476Y-123637200D01*
X111750476Y-123637200D02*
X111798095Y-123589580D01*
X111798095Y-123589580D02*
X111845714Y-123494342D01*
X111845714Y-123494342D02*
X111845714Y-123256247D01*
X111845714Y-123256247D02*
X111798095Y-123161009D01*
X111798095Y-123161009D02*
X111750476Y-123113390D01*
X111750476Y-123113390D02*
X111655238Y-123065771D01*
X111655238Y-123065771D02*
X111464762Y-123065771D01*
X111464762Y-123065771D02*
X111369524Y-123113390D01*
X111369524Y-123113390D02*
X111321905Y-123161009D01*
X111321905Y-123161009D02*
X111274286Y-123256247D01*
X142738095Y-138954819D02*
X142738095Y-139764342D01*
X142738095Y-139764342D02*
X142785714Y-139859580D01*
X142785714Y-139859580D02*
X142833333Y-139907200D01*
X142833333Y-139907200D02*
X142928571Y-139954819D01*
X142928571Y-139954819D02*
X143119047Y-139954819D01*
X143119047Y-139954819D02*
X143214285Y-139907200D01*
X143214285Y-139907200D02*
X143261904Y-139859580D01*
X143261904Y-139859580D02*
X143309523Y-139764342D01*
X143309523Y-139764342D02*
X143309523Y-138954819D01*
X143738095Y-139050057D02*
X143785714Y-139002438D01*
X143785714Y-139002438D02*
X143880952Y-138954819D01*
X143880952Y-138954819D02*
X144119047Y-138954819D01*
X144119047Y-138954819D02*
X144214285Y-139002438D01*
X144214285Y-139002438D02*
X144261904Y-139050057D01*
X144261904Y-139050057D02*
X144309523Y-139145295D01*
X144309523Y-139145295D02*
X144309523Y-139240533D01*
X144309523Y-139240533D02*
X144261904Y-139383390D01*
X144261904Y-139383390D02*
X143690476Y-139954819D01*
X143690476Y-139954819D02*
X144309523Y-139954819D01*
X136737142Y-116209580D02*
X136689523Y-116257200D01*
X136689523Y-116257200D02*
X136546666Y-116304819D01*
X136546666Y-116304819D02*
X136451428Y-116304819D01*
X136451428Y-116304819D02*
X136308571Y-116257200D01*
X136308571Y-116257200D02*
X136213333Y-116161961D01*
X136213333Y-116161961D02*
X136165714Y-116066723D01*
X136165714Y-116066723D02*
X136118095Y-115876247D01*
X136118095Y-115876247D02*
X136118095Y-115733390D01*
X136118095Y-115733390D02*
X136165714Y-115542914D01*
X136165714Y-115542914D02*
X136213333Y-115447676D01*
X136213333Y-115447676D02*
X136308571Y-115352438D01*
X136308571Y-115352438D02*
X136451428Y-115304819D01*
X136451428Y-115304819D02*
X136546666Y-115304819D01*
X136546666Y-115304819D02*
X136689523Y-115352438D01*
X136689523Y-115352438D02*
X136737142Y-115400057D01*
X137689523Y-116304819D02*
X137118095Y-116304819D01*
X137403809Y-116304819D02*
X137403809Y-115304819D01*
X137403809Y-115304819D02*
X137308571Y-115447676D01*
X137308571Y-115447676D02*
X137213333Y-115542914D01*
X137213333Y-115542914D02*
X137118095Y-115590533D01*
X138546666Y-115304819D02*
X138356190Y-115304819D01*
X138356190Y-115304819D02*
X138260952Y-115352438D01*
X138260952Y-115352438D02*
X138213333Y-115400057D01*
X138213333Y-115400057D02*
X138118095Y-115542914D01*
X138118095Y-115542914D02*
X138070476Y-115733390D01*
X138070476Y-115733390D02*
X138070476Y-116114342D01*
X138070476Y-116114342D02*
X138118095Y-116209580D01*
X138118095Y-116209580D02*
X138165714Y-116257200D01*
X138165714Y-116257200D02*
X138260952Y-116304819D01*
X138260952Y-116304819D02*
X138451428Y-116304819D01*
X138451428Y-116304819D02*
X138546666Y-116257200D01*
X138546666Y-116257200D02*
X138594285Y-116209580D01*
X138594285Y-116209580D02*
X138641904Y-116114342D01*
X138641904Y-116114342D02*
X138641904Y-115876247D01*
X138641904Y-115876247D02*
X138594285Y-115781009D01*
X138594285Y-115781009D02*
X138546666Y-115733390D01*
X138546666Y-115733390D02*
X138451428Y-115685771D01*
X138451428Y-115685771D02*
X138260952Y-115685771D01*
X138260952Y-115685771D02*
X138165714Y-115733390D01*
X138165714Y-115733390D02*
X138118095Y-115781009D01*
X138118095Y-115781009D02*
X138070476Y-115876247D01*
X109163333Y-128919580D02*
X109115714Y-128967200D01*
X109115714Y-128967200D02*
X108972857Y-129014819D01*
X108972857Y-129014819D02*
X108877619Y-129014819D01*
X108877619Y-129014819D02*
X108734762Y-128967200D01*
X108734762Y-128967200D02*
X108639524Y-128871961D01*
X108639524Y-128871961D02*
X108591905Y-128776723D01*
X108591905Y-128776723D02*
X108544286Y-128586247D01*
X108544286Y-128586247D02*
X108544286Y-128443390D01*
X108544286Y-128443390D02*
X108591905Y-128252914D01*
X108591905Y-128252914D02*
X108639524Y-128157676D01*
X108639524Y-128157676D02*
X108734762Y-128062438D01*
X108734762Y-128062438D02*
X108877619Y-128014819D01*
X108877619Y-128014819D02*
X108972857Y-128014819D01*
X108972857Y-128014819D02*
X109115714Y-128062438D01*
X109115714Y-128062438D02*
X109163333Y-128110057D01*
X109544286Y-128110057D02*
X109591905Y-128062438D01*
X109591905Y-128062438D02*
X109687143Y-128014819D01*
X109687143Y-128014819D02*
X109925238Y-128014819D01*
X109925238Y-128014819D02*
X110020476Y-128062438D01*
X110020476Y-128062438D02*
X110068095Y-128110057D01*
X110068095Y-128110057D02*
X110115714Y-128205295D01*
X110115714Y-128205295D02*
X110115714Y-128300533D01*
X110115714Y-128300533D02*
X110068095Y-128443390D01*
X110068095Y-128443390D02*
X109496667Y-129014819D01*
X109496667Y-129014819D02*
X110115714Y-129014819D01*
X147511905Y-149454819D02*
X147511905Y-148454819D01*
X147511905Y-148454819D02*
X147750000Y-148454819D01*
X147750000Y-148454819D02*
X147892857Y-148502438D01*
X147892857Y-148502438D02*
X147988095Y-148597676D01*
X147988095Y-148597676D02*
X148035714Y-148692914D01*
X148035714Y-148692914D02*
X148083333Y-148883390D01*
X148083333Y-148883390D02*
X148083333Y-149026247D01*
X148083333Y-149026247D02*
X148035714Y-149216723D01*
X148035714Y-149216723D02*
X147988095Y-149311961D01*
X147988095Y-149311961D02*
X147892857Y-149407200D01*
X147892857Y-149407200D02*
X147750000Y-149454819D01*
X147750000Y-149454819D02*
X147511905Y-149454819D01*
X149035714Y-149454819D02*
X148464286Y-149454819D01*
X148750000Y-149454819D02*
X148750000Y-148454819D01*
X148750000Y-148454819D02*
X148654762Y-148597676D01*
X148654762Y-148597676D02*
X148559524Y-148692914D01*
X148559524Y-148692914D02*
X148464286Y-148740533D01*
D12*
%TO.C,U4*%
X138760000Y-147250000D02*
X138430000Y-147490000D01*
X138430000Y-147010000D01*
X138760000Y-147250000D01*
G36*
X138760000Y-147250000D02*
G01*
X138430000Y-147490000D01*
X138430000Y-147010000D01*
X138760000Y-147250000D01*
G37*
X142110000Y-149360000D02*
X141435000Y-149360000D01*
X142110000Y-149185000D02*
X142110000Y-149360000D01*
X142110000Y-146640000D02*
X142110000Y-146815000D01*
X141435000Y-146640000D02*
X142110000Y-146640000D01*
X139565000Y-149360000D02*
X138890000Y-149360000D01*
X138890000Y-149360000D02*
X138890000Y-149185000D01*
X138890000Y-146815000D02*
X138890000Y-146640000D01*
X138890000Y-146640000D02*
X139565000Y-146640000D01*
%TO.C,C18*%
X143765000Y-147761252D02*
X143765000Y-147238748D01*
X145235000Y-147761252D02*
X145235000Y-147238748D01*
%TO.C,C19*%
X136761252Y-149235000D02*
X136238748Y-149235000D01*
X136761252Y-147765000D02*
X136238748Y-147765000D01*
%TO.C,J7*%
X118720000Y-103430000D02*
X118720000Y-102050000D01*
X120100000Y-103430000D02*
X118720000Y-103430000D01*
X121370000Y-100670000D02*
X149420000Y-100670000D01*
X121370000Y-103430000D02*
X121370000Y-100670000D01*
X121370000Y-103430000D02*
X149420000Y-103430000D01*
X149420000Y-103430000D02*
X149420000Y-100670000D01*
%TO.C,R6*%
X136372936Y-139865000D02*
X136827064Y-139865000D01*
X136372936Y-141335000D02*
X136827064Y-141335000D01*
%TO.C,C11*%
X112261252Y-129765000D02*
X111738748Y-129765000D01*
X112261252Y-131235000D02*
X111738748Y-131235000D01*
%TO.C,C8*%
X117738748Y-114265000D02*
X118261252Y-114265000D01*
X117738748Y-115735000D02*
X118261252Y-115735000D01*
%TO.C,C3*%
X133938748Y-116765000D02*
X134461252Y-116765000D01*
X133938748Y-118235000D02*
X134461252Y-118235000D01*
%TO.C,R5*%
X143722936Y-117865000D02*
X144177064Y-117865000D01*
X143722936Y-119335000D02*
X144177064Y-119335000D01*
%TO.C,C10*%
X114265000Y-128311252D02*
X114265000Y-127788748D01*
X115735000Y-128311252D02*
X115735000Y-127788748D01*
%TO.C,U1*%
X117890000Y-117890000D02*
X118590000Y-117890000D01*
X117890000Y-118590000D02*
X117890000Y-117890000D01*
X117890000Y-132110000D02*
X117890000Y-131410000D01*
X118590000Y-132110000D02*
X117890000Y-132110000D01*
X131410000Y-117890000D02*
X132110000Y-117890000D01*
X132110000Y-117890000D02*
X132110000Y-118590000D01*
X132110000Y-131410000D02*
X132110000Y-132110000D01*
X132110000Y-132110000D02*
X131410000Y-132110000D01*
X117250000Y-118590000D02*
X116910000Y-118120000D01*
X117590000Y-118120000D01*
X117250000Y-118590000D01*
G36*
X117250000Y-118590000D02*
G01*
X116910000Y-118120000D01*
X117590000Y-118120000D01*
X117250000Y-118590000D01*
G37*
%TO.C,J9*%
X129000000Y-145480000D02*
X129000000Y-144100000D01*
X130380000Y-145480000D02*
X129000000Y-145480000D01*
X131650000Y-142720000D02*
X139380000Y-142720000D01*
X131650000Y-145480000D02*
X131650000Y-142720000D01*
X131650000Y-145480000D02*
X139380000Y-145480000D01*
X139380000Y-145480000D02*
X139380000Y-142720000D01*
%TO.C,U3*%
X138310694Y-123341837D02*
X140130694Y-123341837D01*
X138310694Y-123391837D02*
X138310694Y-123341837D01*
X138310694Y-126461837D02*
X138310694Y-126411837D01*
X140130694Y-123341837D02*
X140130694Y-123391837D01*
X140130694Y-126411837D02*
X140130694Y-126461837D01*
X140130694Y-126461837D02*
X138310694Y-126461837D01*
X137770694Y-123391837D02*
X137530694Y-123061837D01*
X138010694Y-123061837D01*
X137770694Y-123391837D01*
G36*
X137770694Y-123391837D02*
G01*
X137530694Y-123061837D01*
X138010694Y-123061837D01*
X137770694Y-123391837D01*
G37*
D13*
%TO.C,G\u002A\u002A\u002A*%
G36*
X103591295Y-103333117D02*
G01*
X103660472Y-103334022D01*
X103713258Y-103335391D01*
X103744744Y-103337108D01*
X103751485Y-103338432D01*
X103744313Y-103351882D01*
X103723598Y-103388872D01*
X103690546Y-103447289D01*
X103646360Y-103525022D01*
X103592244Y-103619962D01*
X103529402Y-103729995D01*
X103459038Y-103853013D01*
X103382356Y-103986903D01*
X103300560Y-104129554D01*
X103255911Y-104207354D01*
X103171851Y-104353973D01*
X103092280Y-104493130D01*
X103018403Y-104622689D01*
X102951427Y-104740519D01*
X102892559Y-104844486D01*
X102843006Y-104932456D01*
X102803973Y-105002296D01*
X102776669Y-105051872D01*
X102762298Y-105079051D01*
X102760338Y-105083623D01*
X102774435Y-105085689D01*
X102813965Y-105087084D01*
X102874780Y-105087862D01*
X102952734Y-105088078D01*
X103043681Y-105087784D01*
X103143476Y-105087034D01*
X103247972Y-105085881D01*
X103353023Y-105084381D01*
X103454483Y-105082585D01*
X103548206Y-105080549D01*
X103630046Y-105078325D01*
X103695856Y-105075967D01*
X103741492Y-105073529D01*
X103762806Y-105071065D01*
X103763728Y-105070633D01*
X103758300Y-105057060D01*
X103740238Y-105022146D01*
X103711829Y-104970095D01*
X103675363Y-104905113D01*
X103640195Y-104843638D01*
X103511816Y-104621043D01*
X103627952Y-104418468D01*
X103668303Y-104349315D01*
X103704184Y-104290124D01*
X103732820Y-104245297D01*
X103751433Y-104219237D01*
X103756634Y-104214440D01*
X103766283Y-104226568D01*
X103789246Y-104261925D01*
X103824074Y-104318102D01*
X103869318Y-104392688D01*
X103923530Y-104483273D01*
X103985260Y-104587446D01*
X104053059Y-104702797D01*
X104125478Y-104826916D01*
X104144204Y-104859152D01*
X104519228Y-105505317D01*
X104146452Y-106156978D01*
X104073776Y-106283720D01*
X104005423Y-106402339D01*
X103942809Y-106510414D01*
X103887353Y-106605527D01*
X103840471Y-106685258D01*
X103803583Y-106747188D01*
X103778105Y-106788898D01*
X103765456Y-106807967D01*
X103764422Y-106808921D01*
X103754286Y-106796867D01*
X103732250Y-106763380D01*
X103700996Y-106712767D01*
X103663207Y-106649336D01*
X103636856Y-106604048D01*
X103518543Y-106398894D01*
X103648938Y-106171345D01*
X103779333Y-105943797D01*
X103266137Y-105939726D01*
X102752941Y-105935654D01*
X102634595Y-105728963D01*
X102594253Y-105659267D01*
X102558887Y-105599600D01*
X102531115Y-105554269D01*
X102513558Y-105527579D01*
X102508852Y-105522266D01*
X102499756Y-105534648D01*
X102477898Y-105569835D01*
X102444958Y-105624881D01*
X102402616Y-105696843D01*
X102352551Y-105782775D01*
X102296445Y-105879732D01*
X102235976Y-105984770D01*
X102172824Y-106094943D01*
X102108670Y-106207308D01*
X102045194Y-106318918D01*
X101984075Y-106426830D01*
X101926993Y-106528098D01*
X101875628Y-106619778D01*
X101831661Y-106698925D01*
X101796770Y-106762593D01*
X101772637Y-106807839D01*
X101760940Y-106831717D01*
X101760159Y-106834688D01*
X101776198Y-106836096D01*
X101818345Y-106836686D01*
X101883134Y-106836493D01*
X101967099Y-106835553D01*
X102066775Y-106833903D01*
X102178695Y-106831579D01*
X102269578Y-106829390D01*
X102771504Y-106816598D01*
X102639737Y-106590737D01*
X102507971Y-106364876D01*
X102627871Y-106158035D01*
X102668830Y-106088418D01*
X102705025Y-106028858D01*
X102733762Y-105983633D01*
X102752349Y-105957020D01*
X102757753Y-105951730D01*
X102766871Y-105964263D01*
X102789292Y-106000040D01*
X102823584Y-106056646D01*
X102868319Y-106131666D01*
X102922065Y-106222686D01*
X102983393Y-106327293D01*
X103050872Y-106443070D01*
X103123073Y-106567605D01*
X103143475Y-106602909D01*
X103519217Y-107253553D01*
X103545058Y-107211061D01*
X103562169Y-107182212D01*
X103590231Y-107134127D01*
X103625498Y-107073251D01*
X103664226Y-107006028D01*
X103668307Y-106998922D01*
X103765716Y-106829276D01*
X104271324Y-106826745D01*
X104390509Y-106826032D01*
X104499926Y-106825154D01*
X104596149Y-106824155D01*
X104675754Y-106823081D01*
X104735316Y-106821977D01*
X104771410Y-106820887D01*
X104781076Y-106820068D01*
X104775325Y-106806628D01*
X104756812Y-106771855D01*
X104727838Y-106719881D01*
X104690703Y-106654839D01*
X104652203Y-106588538D01*
X104519184Y-106361154D01*
X104641296Y-106148810D01*
X104682358Y-106079027D01*
X104718754Y-106020224D01*
X104747875Y-105976375D01*
X104767111Y-105951454D01*
X104773442Y-105947528D01*
X104782796Y-105962345D01*
X104805307Y-106000054D01*
X104839487Y-106058080D01*
X104883845Y-106133850D01*
X104936895Y-106224789D01*
X104997146Y-106328324D01*
X105063110Y-106441881D01*
X105133298Y-106562885D01*
X105206222Y-106688763D01*
X105280393Y-106816941D01*
X105354322Y-106944844D01*
X105426520Y-107069899D01*
X105495499Y-107189532D01*
X105559769Y-107301168D01*
X105617842Y-107402234D01*
X105668230Y-107490156D01*
X105709443Y-107562360D01*
X105739993Y-107616272D01*
X105758391Y-107649318D01*
X105763366Y-107659054D01*
X105748840Y-107659978D01*
X105706330Y-107660873D01*
X105637437Y-107661732D01*
X105543766Y-107662551D01*
X105426917Y-107663322D01*
X105288493Y-107664041D01*
X105130097Y-107664701D01*
X104953330Y-107665298D01*
X104759795Y-107665824D01*
X104551095Y-107666274D01*
X104328832Y-107666643D01*
X104094607Y-107666925D01*
X103850024Y-107667113D01*
X103596685Y-107667203D01*
X103503256Y-107667210D01*
X101243145Y-107667210D01*
X101127672Y-107467651D01*
X101012198Y-107268092D01*
X102140991Y-105300441D01*
X103269784Y-103332790D01*
X103510635Y-103332790D01*
X103591295Y-103333117D01*
G37*
D12*
%TO.C,R7*%
X132227064Y-139865000D02*
X131772936Y-139865000D01*
X132227064Y-141335000D02*
X131772936Y-141335000D01*
%TO.C,C12*%
X112261252Y-132765000D02*
X111738748Y-132765000D01*
X112261252Y-134235000D02*
X111738748Y-134235000D01*
%TO.C,R3*%
X147391000Y-142771936D02*
X147391000Y-143226064D01*
X148861000Y-142771936D02*
X148861000Y-143226064D01*
%TO.C,J3*%
X146620000Y-114540000D02*
X146620000Y-106810000D01*
X149380000Y-106810000D02*
X146620000Y-106810000D01*
X149380000Y-114540000D02*
X146620000Y-114540000D01*
X149380000Y-114540000D02*
X149380000Y-106810000D01*
X149380000Y-115810000D02*
X149380000Y-117190000D01*
X149380000Y-117190000D02*
X148000000Y-117190000D01*
%TO.C,C5*%
X118223752Y-134265000D02*
X117701248Y-134265000D01*
X118223752Y-135735000D02*
X117701248Y-135735000D01*
%TO.C,R2*%
X120237064Y-110235000D02*
X119782936Y-110235000D01*
X120237064Y-111705000D02*
X119782936Y-111705000D01*
%TO.C,C14*%
X147665000Y-139361252D02*
X147665000Y-138838748D01*
X149135000Y-139361252D02*
X149135000Y-138838748D01*
%TO.C,C9*%
X117738748Y-112265000D02*
X118261252Y-112265000D01*
X117738748Y-113735000D02*
X118261252Y-113735000D01*
%TO.C,J5*%
X136460000Y-127890000D02*
X137840000Y-127890000D01*
X136460000Y-129270000D02*
X136460000Y-127890000D01*
X136460000Y-130540000D02*
X136460000Y-138270000D01*
X136460000Y-130540000D02*
X139220000Y-130540000D01*
X136460000Y-138270000D02*
X139220000Y-138270000D01*
X139220000Y-130540000D02*
X139220000Y-138270000D01*
%TO.C,C7*%
X114073752Y-120165000D02*
X113551248Y-120165000D01*
X114073752Y-121635000D02*
X113551248Y-121635000D01*
%TO.C,J4*%
X100620000Y-139810000D02*
X100620000Y-129540000D01*
X103380000Y-129540000D02*
X100620000Y-129540000D01*
X103380000Y-139810000D02*
X100620000Y-139810000D01*
X103380000Y-139810000D02*
X103380000Y-129540000D01*
X103380000Y-141080000D02*
X103380000Y-142460000D01*
X103380000Y-142460000D02*
X102000000Y-142460000D01*
%TO.C,C1*%
X106765000Y-123823752D02*
X106765000Y-123301248D01*
X108235000Y-123823752D02*
X108235000Y-123301248D01*
%TO.C,C13*%
X141538748Y-132865000D02*
X142061252Y-132865000D01*
X141538748Y-134335000D02*
X142061252Y-134335000D01*
%TO.C,C4*%
X131765000Y-133938748D02*
X131765000Y-134461252D01*
X133235000Y-133938748D02*
X133235000Y-134461252D01*
%TO.C,C15*%
X110965000Y-127338748D02*
X110965000Y-127861252D01*
X112435000Y-127338748D02*
X112435000Y-127861252D01*
%TO.C,SW2*%
D10*
X109200000Y-101540000D02*
X109900000Y-101540000D01*
X109900000Y-100740000D01*
X109200000Y-100740000D01*
X109200000Y-101540000D01*
X109200000Y-110040000D02*
X117100000Y-110040000D01*
X117100000Y-100740000D01*
X109200000Y-100740000D01*
X109200000Y-110040000D01*
D12*
%TO.C,Y1*%
X101690000Y-122202500D02*
X101690000Y-127722500D01*
X106310000Y-122202500D02*
X101690000Y-122202500D01*
%TO.C,C17*%
X131338748Y-136465000D02*
X131861252Y-136465000D01*
X131338748Y-137935000D02*
X131861252Y-137935000D01*
%TO.C,J8*%
X100700000Y-110690000D02*
X102080000Y-110690000D01*
X100700000Y-112070000D02*
X100700000Y-110690000D01*
X100700000Y-113340000D02*
X100700000Y-118530000D01*
X100700000Y-113340000D02*
X103460000Y-113340000D01*
X100700000Y-118530000D02*
X103460000Y-118530000D01*
X103460000Y-113340000D02*
X103460000Y-118530000D01*
%TO.C,J6*%
X100650000Y-146520000D02*
X100650000Y-149280000D01*
X128700000Y-146520000D02*
X100650000Y-146520000D01*
X128700000Y-146520000D02*
X128700000Y-149280000D01*
X128700000Y-149280000D02*
X100650000Y-149280000D01*
X129970000Y-146520000D02*
X131350000Y-146520000D01*
X131350000Y-146520000D02*
X131350000Y-147900000D01*
%TO.C,J1*%
X145085000Y-129580000D02*
X147005000Y-129580000D01*
X147005000Y-120420000D02*
X145085000Y-120420000D01*
X149015000Y-120420000D02*
X150720000Y-120420000D01*
X150720000Y-120420000D02*
X150720000Y-129580000D01*
X150720000Y-129580000D02*
X149015000Y-129580000D01*
%TO.C,FB1*%
X114440000Y-131589758D02*
X114440000Y-132410242D01*
X115560000Y-131589758D02*
X115560000Y-132410242D01*
%TO.C,C6*%
X114073752Y-122465000D02*
X113551248Y-122465000D01*
X114073752Y-123935000D02*
X113551248Y-123935000D01*
%TO.C,U2*%
X140090000Y-137350000D02*
X140090000Y-141110000D01*
X140090000Y-141110000D02*
X141350000Y-141110000D01*
X146910000Y-137350000D02*
X146910000Y-141110000D01*
X146910000Y-141110000D02*
X145650000Y-141110000D01*
X147140000Y-136310000D02*
X146810000Y-136070000D01*
X147140000Y-135830000D01*
X147140000Y-136310000D01*
G36*
X147140000Y-136310000D02*
G01*
X146810000Y-136070000D01*
X147140000Y-135830000D01*
X147140000Y-136310000D01*
G37*
%TO.C,C16*%
X136465000Y-118661252D02*
X136465000Y-118138748D01*
X137935000Y-118661252D02*
X137935000Y-118138748D01*
%TO.C,R4*%
X143672936Y-130765000D02*
X144127064Y-130765000D01*
X143672936Y-132235000D02*
X144127064Y-132235000D01*
%TO.C,C2*%
X106765000Y-127201248D02*
X106765000Y-127723752D01*
X108235000Y-127201248D02*
X108235000Y-127723752D01*
%TO.C,D1*%
X147166000Y-144838000D02*
X147166000Y-147698000D01*
X149086000Y-144838000D02*
X147166000Y-144838000D01*
X149086000Y-147698000D02*
X149086000Y-144838000D01*
%TD*%
M02*
