%TF.GenerationSoftware,KiCad,Pcbnew,9.0.7-9.0.7~ubuntu25.10.1*%
%TF.CreationDate,2026-04-07T10:04:49+05:30*%
%TF.ProjectId,stm32f765-breakout-board,73746d33-3266-4373-9635-2d627265616b,rev?*%
%TF.SameCoordinates,Original*%
%TF.FileFunction,Paste,Top*%
%TF.FilePolarity,Positive*%
%FSLAX46Y46*%
G04 Gerber Fmt 4.6, Leading zero omitted, Abs format (unit mm)*
G04 Created by KiCad (PCBNEW 9.0.7-9.0.7~ubuntu25.10.1) date 2026-04-07 10:04:49*
%MOMM*%
%LPD*%
G01*
G04 APERTURE LIST*
G04 Aperture macros list*
%AMRoundRect*
0 Rectangle with rounded corners*
0 $1 Rounding radius*
0 $2 $3 $4 $5 $6 $7 $8 $9 X,Y pos of 4 corners*
0 Add a 4 corners polygon primitive as box body*
4,1,4,$2,$3,$4,$5,$6,$7,$8,$9,$2,$3,0*
0 Add four circle primitives for the rounded corners*
1,1,$1+$1,$2,$3*
1,1,$1+$1,$4,$5*
1,1,$1+$1,$6,$7*
1,1,$1+$1,$8,$9*
0 Add four rect primitives between the rounded corners*
20,1,$1+$1,$2,$3,$4,$5,0*
20,1,$1+$1,$4,$5,$6,$7,0*
20,1,$1+$1,$6,$7,$8,$9,0*
20,1,$1+$1,$8,$9,$2,$3,0*%
G04 Aperture macros list end*
%ADD10RoundRect,0.250000X-0.350000X-0.450000X0.350000X-0.450000X0.350000X0.450000X-0.350000X0.450000X0*%
%ADD11RoundRect,0.250000X0.337500X0.475000X-0.337500X0.475000X-0.337500X-0.475000X0.337500X-0.475000X0*%
%ADD12RoundRect,0.250000X-0.337500X-0.475000X0.337500X-0.475000X0.337500X0.475000X-0.337500X0.475000X0*%
%ADD13RoundRect,0.250000X0.475000X-0.337500X0.475000X0.337500X-0.475000X0.337500X-0.475000X-0.337500X0*%
%ADD14RoundRect,0.075000X-0.725000X-0.075000X0.725000X-0.075000X0.725000X0.075000X-0.725000X0.075000X0*%
%ADD15RoundRect,0.075000X-0.075000X-0.725000X0.075000X-0.725000X0.075000X0.725000X-0.075000X0.725000X0*%
%ADD16RoundRect,0.150000X-0.512500X-0.150000X0.512500X-0.150000X0.512500X0.150000X-0.512500X0.150000X0*%
%ADD17RoundRect,0.250000X0.350000X0.450000X-0.350000X0.450000X-0.350000X-0.450000X0.350000X-0.450000X0*%
%ADD18RoundRect,0.250000X-0.450000X0.350000X-0.450000X-0.350000X0.450000X-0.350000X0.450000X0.350000X0*%
%ADD19RoundRect,0.250000X-0.475000X0.337500X-0.475000X-0.337500X0.475000X-0.337500X0.475000X0.337500X0*%
%ADD20RoundRect,0.300000X0.700000X-0.700000X0.700000X0.700000X-0.700000X0.700000X-0.700000X-0.700000X0*%
%ADD21RoundRect,0.087500X-0.225000X-0.087500X0.225000X-0.087500X0.225000X0.087500X-0.225000X0.087500X0*%
%ADD22RoundRect,0.087500X-0.087500X-0.225000X0.087500X-0.225000X0.087500X0.225000X-0.087500X0.225000X0*%
%ADD23RoundRect,0.250000X-0.650000X0.800000X-0.650000X-0.800000X0.650000X-0.800000X0.650000X0.800000X0*%
%ADD24R,1.240000X0.600000*%
%ADD25R,1.240000X0.300000*%
%ADD26RoundRect,0.250000X-0.350000X0.275000X-0.350000X-0.275000X0.350000X-0.275000X0.350000X0.275000X0*%
%ADD27RoundRect,0.375000X-0.375000X0.625000X-0.375000X-0.625000X0.375000X-0.625000X0.375000X0.625000X0*%
%ADD28RoundRect,0.500000X-1.400000X0.500000X-1.400000X-0.500000X1.400000X-0.500000X1.400000X0.500000X0*%
%ADD29RoundRect,0.250000X-0.450000X0.325000X-0.450000X-0.325000X0.450000X-0.325000X0.450000X0.325000X0*%
G04 APERTURE END LIST*
D10*
%TO.C,R6*%
X135600000Y-140600000D03*
X137600000Y-140600000D03*
%TD*%
D11*
%TO.C,C11*%
X113037500Y-130500000D03*
X110962500Y-130500000D03*
%TD*%
D12*
%TO.C,C8*%
X116962500Y-115000000D03*
X119037500Y-115000000D03*
%TD*%
%TO.C,C3*%
X133162500Y-117500000D03*
X135237500Y-117500000D03*
%TD*%
D10*
%TO.C,R5*%
X142950000Y-118600000D03*
X144950000Y-118600000D03*
%TD*%
D13*
%TO.C,C10*%
X115000000Y-129087500D03*
X115000000Y-127012500D03*
%TD*%
D14*
%TO.C,U1*%
X117325000Y-119000000D03*
X117325000Y-119500000D03*
X117325000Y-120000000D03*
X117325000Y-120500000D03*
X117325000Y-121000000D03*
X117325000Y-121500000D03*
X117325000Y-122000000D03*
X117325000Y-122500000D03*
X117325000Y-123000000D03*
X117325000Y-123500000D03*
X117325000Y-124000000D03*
X117325000Y-124500000D03*
X117325000Y-125000000D03*
X117325000Y-125500000D03*
X117325000Y-126000000D03*
X117325000Y-126500000D03*
X117325000Y-127000000D03*
X117325000Y-127500000D03*
X117325000Y-128000000D03*
X117325000Y-128500000D03*
X117325000Y-129000000D03*
X117325000Y-129500000D03*
X117325000Y-130000000D03*
X117325000Y-130500000D03*
X117325000Y-131000000D03*
D15*
X119000000Y-132675000D03*
X119500000Y-132675000D03*
X120000000Y-132675000D03*
X120500000Y-132675000D03*
X121000000Y-132675000D03*
X121500000Y-132675000D03*
X122000000Y-132675000D03*
X122500000Y-132675000D03*
X123000000Y-132675000D03*
X123500000Y-132675000D03*
X124000000Y-132675000D03*
X124500000Y-132675000D03*
X125000000Y-132675000D03*
X125500000Y-132675000D03*
X126000000Y-132675000D03*
X126500000Y-132675000D03*
X127000000Y-132675000D03*
X127500000Y-132675000D03*
X128000000Y-132675000D03*
X128500000Y-132675000D03*
X129000000Y-132675000D03*
X129500000Y-132675000D03*
X130000000Y-132675000D03*
X130500000Y-132675000D03*
X131000000Y-132675000D03*
D14*
X132675000Y-131000000D03*
X132675000Y-130500000D03*
X132675000Y-130000000D03*
X132675000Y-129500000D03*
X132675000Y-129000000D03*
X132675000Y-128500000D03*
X132675000Y-128000000D03*
X132675000Y-127500000D03*
X132675000Y-127000000D03*
X132675000Y-126500000D03*
X132675000Y-126000000D03*
X132675000Y-125500000D03*
X132675000Y-125000000D03*
X132675000Y-124500000D03*
X132675000Y-124000000D03*
X132675000Y-123500000D03*
X132675000Y-123000000D03*
X132675000Y-122500000D03*
X132675000Y-122000000D03*
X132675000Y-121500000D03*
X132675000Y-121000000D03*
X132675000Y-120500000D03*
X132675000Y-120000000D03*
X132675000Y-119500000D03*
X132675000Y-119000000D03*
D15*
X131000000Y-117325000D03*
X130500000Y-117325000D03*
X130000000Y-117325000D03*
X129500000Y-117325000D03*
X129000000Y-117325000D03*
X128500000Y-117325000D03*
X128000000Y-117325000D03*
X127500000Y-117325000D03*
X127000000Y-117325000D03*
X126500000Y-117325000D03*
X126000000Y-117325000D03*
X125500000Y-117325000D03*
X125000000Y-117325000D03*
X124500000Y-117325000D03*
X124000000Y-117325000D03*
X123500000Y-117325000D03*
X123000000Y-117325000D03*
X122500000Y-117325000D03*
X122000000Y-117325000D03*
X121500000Y-117325000D03*
X121000000Y-117325000D03*
X120500000Y-117325000D03*
X120000000Y-117325000D03*
X119500000Y-117325000D03*
X119000000Y-117325000D03*
%TD*%
D16*
%TO.C,U3*%
X138083194Y-123951837D03*
X138083194Y-124901837D03*
X138083194Y-125851837D03*
X140358194Y-125851837D03*
X140358194Y-124901837D03*
X140358194Y-123951837D03*
%TD*%
D17*
%TO.C,R7*%
X133000000Y-140600000D03*
X131000000Y-140600000D03*
%TD*%
D11*
%TO.C,C12*%
X113037500Y-133500000D03*
X110962500Y-133500000D03*
%TD*%
D18*
%TO.C,R3*%
X148126000Y-141999000D03*
X148126000Y-143999000D03*
%TD*%
D11*
%TO.C,C5*%
X119000000Y-135000000D03*
X116925000Y-135000000D03*
%TD*%
D17*
%TO.C,R2*%
X121010000Y-110970000D03*
X119010000Y-110970000D03*
%TD*%
D13*
%TO.C,C14*%
X148400000Y-140137500D03*
X148400000Y-138062500D03*
%TD*%
D11*
%TO.C,C19*%
X137537500Y-148500000D03*
X135462500Y-148500000D03*
%TD*%
D12*
%TO.C,C9*%
X116962500Y-113000000D03*
X119037500Y-113000000D03*
%TD*%
D11*
%TO.C,C7*%
X114850000Y-120900000D03*
X112775000Y-120900000D03*
%TD*%
D13*
%TO.C,C1*%
X107500000Y-124600000D03*
X107500000Y-122525000D03*
%TD*%
D12*
%TO.C,C13*%
X140762500Y-133600000D03*
X142837500Y-133600000D03*
%TD*%
D19*
%TO.C,C4*%
X132500000Y-133162500D03*
X132500000Y-135237500D03*
%TD*%
%TO.C,C15*%
X111700000Y-126562500D03*
X111700000Y-128637500D03*
%TD*%
D20*
%TO.C,SW2*%
X115450000Y-107740000D03*
X110950000Y-107740000D03*
X110950000Y-103140000D03*
X115450000Y-103140000D03*
%TD*%
D21*
%TO.C,U4*%
X139337500Y-147250000D03*
X139337500Y-147750000D03*
X139337500Y-148250000D03*
X139337500Y-148750000D03*
D22*
X140000000Y-148912500D03*
X140500000Y-148912500D03*
X141000000Y-148912500D03*
D21*
X141662500Y-148750000D03*
X141662500Y-148250000D03*
X141662500Y-147750000D03*
X141662500Y-147250000D03*
D22*
X141000000Y-147087500D03*
X140500000Y-147087500D03*
X140000000Y-147087500D03*
%TD*%
D23*
%TO.C,Y1*%
X102850000Y-123512500D03*
X102850000Y-126412500D03*
X105150000Y-126412500D03*
X105150000Y-123512500D03*
%TD*%
D13*
%TO.C,C18*%
X144500000Y-148537500D03*
X144500000Y-146462500D03*
%TD*%
D12*
%TO.C,C17*%
X130562500Y-137200000D03*
X132637500Y-137200000D03*
%TD*%
D24*
%TO.C,J1*%
X143210000Y-128200000D03*
X143210000Y-127400000D03*
D25*
X143210000Y-126250000D03*
X143210000Y-125250000D03*
X143210000Y-124750000D03*
X143210000Y-123750000D03*
D24*
X143210000Y-122600000D03*
X143210000Y-121800000D03*
X143210000Y-121800000D03*
X143210000Y-122600000D03*
D25*
X143210000Y-123250000D03*
X143210000Y-124250000D03*
X143210000Y-125750000D03*
X143210000Y-126750000D03*
D24*
X143210000Y-127400000D03*
X143210000Y-128200000D03*
%TD*%
D26*
%TO.C,FB1*%
X115000000Y-130850000D03*
X115000000Y-133150000D03*
%TD*%
D11*
%TO.C,C6*%
X114850000Y-123200000D03*
X112775000Y-123200000D03*
%TD*%
D27*
%TO.C,U2*%
X145800000Y-136050000D03*
X143500000Y-136050000D03*
D28*
X143500000Y-142350000D03*
D27*
X141200000Y-136050000D03*
%TD*%
D13*
%TO.C,C16*%
X137200000Y-117362500D03*
X137200000Y-119437500D03*
%TD*%
D10*
%TO.C,R4*%
X142900000Y-131500000D03*
X144900000Y-131500000D03*
%TD*%
D19*
%TO.C,C2*%
X107500000Y-126425000D03*
X107500000Y-128500000D03*
%TD*%
D29*
%TO.C,D1*%
X148126000Y-145673000D03*
X148126000Y-147723000D03*
%TD*%
M02*
