%TF.GenerationSoftware,KiCad,Pcbnew,9.0.7-9.0.7~ubuntu25.10.1*%
%TF.CreationDate,2026-04-07T10:04:50+05:30*%
%TF.ProjectId,stm32f765-breakout-board,73746d33-3266-4373-9635-2d627265616b,rev?*%
%TF.SameCoordinates,Original*%
%TF.FileFunction,Soldermask,Bot*%
%TF.FilePolarity,Negative*%
%FSLAX46Y46*%
G04 Gerber Fmt 4.6, Leading zero omitted, Abs format (unit mm)*
G04 Created by KiCad (PCBNEW 9.0.7-9.0.7~ubuntu25.10.1) date 2026-04-07 10:04:50*
%MOMM*%
%LPD*%
G01*
G04 APERTURE LIST*
%ADD10C,4.400000*%
%ADD11R,1.700000X1.700000*%
%ADD12C,1.700000*%
%ADD13C,0.650000*%
%ADD14O,2.100000X1.000000*%
%ADD15O,1.800000X1.000000*%
G04 APERTURE END LIST*
D10*
%TO.C,H1*%
X103500000Y-105500000D03*
%TD*%
D11*
%TO.C,J7*%
X120100000Y-102050000D03*
D12*
X122640000Y-102050000D03*
X125180000Y-102050000D03*
X127720000Y-102050000D03*
X130260000Y-102050000D03*
X132800000Y-102050000D03*
X135340000Y-102050000D03*
X137880000Y-102050000D03*
X140420000Y-102050000D03*
X142960000Y-102050000D03*
X145500000Y-102050000D03*
X148040000Y-102050000D03*
%TD*%
D11*
%TO.C,J9*%
X130380000Y-144100000D03*
D12*
X132920000Y-144100000D03*
X135460000Y-144100000D03*
X138000000Y-144100000D03*
%TD*%
D11*
%TO.C,J3*%
X148000000Y-115810000D03*
D12*
X148000000Y-113270000D03*
X148000000Y-110730000D03*
X148000000Y-108190000D03*
%TD*%
D11*
%TO.C,J5*%
X137840000Y-129270000D03*
D12*
X137840000Y-131810000D03*
X137840000Y-134350000D03*
X137840000Y-136890000D03*
%TD*%
D11*
%TO.C,J4*%
X102000000Y-141080000D03*
D12*
X102000000Y-138540000D03*
X102000000Y-136000000D03*
X102000000Y-133460000D03*
X102000000Y-130920000D03*
%TD*%
D11*
%TO.C,J8*%
X102080000Y-112070000D03*
D12*
X102080000Y-114610000D03*
X102080000Y-117150000D03*
%TD*%
D11*
%TO.C,J6*%
X129970000Y-147900000D03*
D12*
X127430000Y-147900000D03*
X124890000Y-147900000D03*
X122350000Y-147900000D03*
X119810000Y-147900000D03*
X117270000Y-147900000D03*
X114730000Y-147900000D03*
X112190000Y-147900000D03*
X109650000Y-147900000D03*
X107110000Y-147900000D03*
X104570000Y-147900000D03*
X102030000Y-147900000D03*
%TD*%
D13*
%TO.C,J1*%
X144330000Y-127890000D03*
X144330000Y-122110000D03*
D14*
X143810000Y-129320000D03*
D15*
X148010000Y-129320000D03*
D14*
X143810000Y-120680000D03*
D15*
X148010000Y-120680000D03*
%TD*%
M02*
