M48
; DRILL file {KiCad 9.0.7-9.0.7~ubuntu25.10.1} date 2026-04-01T21:32:32+0530
; FORMAT={-:-/ absolute / metric / decimal}
; #@! TF.CreationDate,2026-04-01T21:32:32+05:30
; #@! TF.GenerationSoftware,Kicad,Pcbnew,9.0.7-9.0.7~ubuntu25.10.1
; #@! TF.FileFunction,Plated,1,2,PTH
FMAT,2
METRIC
; #@! TA.AperFunction,Plated,PTH,ViaDrill
T1C0.400
; #@! TA.AperFunction,Plated,PTH,ComponentDrill
T2C0.600
; #@! TA.AperFunction,Plated,PTH,ComponentDrill
T3C1.000
%
G90
G05
T1
X104.0Y-128.5
X110.15Y-122.35
X111.0Y-131.85
X113.137Y-128.637
X114.13Y-135.71
X116.65Y-133.15
X117.5Y-107.81
X118.0Y-136.5
X118.65Y-128.0
X119.0Y-123.5
X121.0Y-119.0
X129.25Y-118.85
X130.2Y-115.5
X130.5Y-131.2
X130.9Y-120.0
X133.65Y-137.95
X137.0Y-124.9
X139.2Y-117.35
X141.5Y-131.5
X143.0Y-117.0
X144.1Y-133.2
X144.1Y-134.05
X145.4Y-137.6
X146.15Y-137.6
X148.0Y-136.9
X148.8Y-136.9
X149.251Y-143.05
T3
X102.0Y-130.92
X102.0Y-133.46
X102.0Y-136.0
X102.0Y-138.54
X102.0Y-141.08
X102.03Y-147.9
X102.08Y-112.07
X102.08Y-114.61
X102.08Y-117.15
X104.57Y-147.9
X107.11Y-147.9
X109.65Y-147.9
X112.19Y-147.9
X114.73Y-147.9
X117.27Y-147.9
X119.81Y-147.9
X120.1Y-102.05
X122.35Y-147.9
X122.64Y-102.05
X124.89Y-147.9
X125.18Y-102.05
X127.43Y-147.9
X127.72Y-102.05
X129.97Y-147.9
X130.26Y-102.05
X130.38Y-144.1
X132.8Y-102.05
X132.92Y-144.1
X135.34Y-102.05
X135.46Y-144.1
X137.84Y-129.27
X137.84Y-131.81
X137.84Y-134.35
X137.84Y-136.89
X137.88Y-102.05
X138.0Y-144.1
X140.42Y-102.05
X142.96Y-102.05
X145.5Y-102.05
X148.0Y-108.19
X148.0Y-110.73
X148.0Y-113.27
X148.0Y-115.81
X148.04Y-102.05
T2
G00X143.26Y-120.68
M15
G01X144.36Y-120.68
M16
G05
G00X143.26Y-129.32
M15
G01X144.36Y-129.32
M16
G05
G00X147.61Y-120.68
M15
G01X148.41Y-120.68
M16
G05
G00X147.61Y-129.32
M15
G01X148.41Y-129.32
M16
G05
M30
