%TF.GenerationSoftware,KiCad,Pcbnew,9.0.7-9.0.7~ubuntu25.10.1*%
%TF.CreationDate,2026-04-07T10:04:49+05:30*%
%TF.ProjectId,stm32f765-breakout-board,73746d33-3266-4373-9635-2d627265616b,rev?*%
%TF.SameCoordinates,Original*%
%TF.FileFunction,Legend,Bot*%
%TF.FilePolarity,Positive*%
%FSLAX46Y46*%
G04 Gerber Fmt 4.6, Leading zero omitted, Abs format (unit mm)*
G04 Created by KiCad (PCBNEW 9.0.7-9.0.7~ubuntu25.10.1) date 2026-04-07 10:04:49*
%MOMM*%
%LPD*%
G01*
G04 APERTURE LIST*
%ADD10C,0.100000*%
%ADD11C,0.000000*%
G04 APERTURE END LIST*
D10*
X126696115Y-127872419D02*
X126696115Y-126872419D01*
X126696115Y-126872419D02*
X126124687Y-127872419D01*
X126124687Y-127872419D02*
X126124687Y-126872419D01*
X125791353Y-126872419D02*
X125458020Y-127872419D01*
X125458020Y-127872419D02*
X125124687Y-126872419D01*
X124791353Y-127872419D02*
X124791353Y-126872419D01*
X124791353Y-126872419D02*
X124410401Y-126872419D01*
X124410401Y-126872419D02*
X124315163Y-126920038D01*
X124315163Y-126920038D02*
X124267544Y-126967657D01*
X124267544Y-126967657D02*
X124219925Y-127062895D01*
X124219925Y-127062895D02*
X124219925Y-127205752D01*
X124219925Y-127205752D02*
X124267544Y-127300990D01*
X124267544Y-127300990D02*
X124315163Y-127348609D01*
X124315163Y-127348609D02*
X124410401Y-127396228D01*
X124410401Y-127396228D02*
X124791353Y-127396228D01*
X123219925Y-127777180D02*
X123267544Y-127824800D01*
X123267544Y-127824800D02*
X123410401Y-127872419D01*
X123410401Y-127872419D02*
X123505639Y-127872419D01*
X123505639Y-127872419D02*
X123648496Y-127824800D01*
X123648496Y-127824800D02*
X123743734Y-127729561D01*
X123743734Y-127729561D02*
X123791353Y-127634323D01*
X123791353Y-127634323D02*
X123838972Y-127443847D01*
X123838972Y-127443847D02*
X123838972Y-127300990D01*
X123838972Y-127300990D02*
X123791353Y-127110514D01*
X123791353Y-127110514D02*
X123743734Y-127015276D01*
X123743734Y-127015276D02*
X123648496Y-126920038D01*
X123648496Y-126920038D02*
X123505639Y-126872419D01*
X123505639Y-126872419D02*
X123410401Y-126872419D01*
X123410401Y-126872419D02*
X123267544Y-126920038D01*
X123267544Y-126920038D02*
X123219925Y-126967657D01*
D11*
%TO.C,G\u002A\u002A\u002A*%
G36*
X126109009Y-124050441D02*
G01*
X127237802Y-126018092D01*
X127122328Y-126217651D01*
X127006855Y-126417210D01*
X124746744Y-126417210D01*
X124653315Y-126417203D01*
X124399976Y-126417113D01*
X124155393Y-126416925D01*
X123921168Y-126416643D01*
X123698905Y-126416274D01*
X123490205Y-126415824D01*
X123296670Y-126415298D01*
X123119903Y-126414701D01*
X122961507Y-126414041D01*
X122823083Y-126413322D01*
X122706234Y-126412551D01*
X122612563Y-126411732D01*
X122543670Y-126410873D01*
X122501160Y-126409978D01*
X122486634Y-126409054D01*
X122491609Y-126399318D01*
X122510007Y-126366272D01*
X122540557Y-126312360D01*
X122581770Y-126240156D01*
X122632158Y-126152234D01*
X122690231Y-126051168D01*
X122754501Y-125939532D01*
X122823480Y-125819899D01*
X122895678Y-125694844D01*
X122969607Y-125566941D01*
X123043778Y-125438763D01*
X123116702Y-125312885D01*
X123186890Y-125191881D01*
X123252854Y-125078324D01*
X123313105Y-124974789D01*
X123366155Y-124883850D01*
X123410513Y-124808080D01*
X123444693Y-124750054D01*
X123467204Y-124712345D01*
X123476558Y-124697528D01*
X123482889Y-124701454D01*
X123502125Y-124726375D01*
X123531246Y-124770224D01*
X123567642Y-124829027D01*
X123608704Y-124898810D01*
X123730816Y-125111154D01*
X123597797Y-125338538D01*
X123559297Y-125404839D01*
X123522162Y-125469881D01*
X123493188Y-125521855D01*
X123474675Y-125556628D01*
X123468924Y-125570068D01*
X123478590Y-125570887D01*
X123514684Y-125571977D01*
X123574246Y-125573081D01*
X123653851Y-125574155D01*
X123750074Y-125575154D01*
X123859491Y-125576032D01*
X123978676Y-125576745D01*
X124484284Y-125579276D01*
X124581693Y-125748922D01*
X124585774Y-125756028D01*
X124624502Y-125823251D01*
X124659769Y-125884127D01*
X124687831Y-125932212D01*
X124704942Y-125961061D01*
X124730783Y-126003553D01*
X125106525Y-125352909D01*
X125126927Y-125317605D01*
X125199128Y-125193070D01*
X125266607Y-125077293D01*
X125327935Y-124972686D01*
X125381681Y-124881666D01*
X125426416Y-124806646D01*
X125460708Y-124750040D01*
X125483129Y-124714263D01*
X125492247Y-124701730D01*
X125497651Y-124707020D01*
X125516238Y-124733633D01*
X125544975Y-124778858D01*
X125581170Y-124838418D01*
X125622129Y-124908035D01*
X125742029Y-125114876D01*
X125610263Y-125340737D01*
X125478496Y-125566598D01*
X125980422Y-125579390D01*
X126071305Y-125581579D01*
X126183225Y-125583903D01*
X126282901Y-125585553D01*
X126366866Y-125586493D01*
X126431655Y-125586686D01*
X126473802Y-125586096D01*
X126489841Y-125584688D01*
X126489060Y-125581717D01*
X126477363Y-125557839D01*
X126453230Y-125512593D01*
X126418339Y-125448925D01*
X126374372Y-125369778D01*
X126323007Y-125278098D01*
X126265925Y-125176830D01*
X126204806Y-125068918D01*
X126141330Y-124957308D01*
X126077176Y-124844943D01*
X126014024Y-124734770D01*
X125953555Y-124629732D01*
X125897449Y-124532775D01*
X125847384Y-124446843D01*
X125805042Y-124374881D01*
X125772102Y-124319835D01*
X125750244Y-124284648D01*
X125741148Y-124272266D01*
X125736442Y-124277579D01*
X125718885Y-124304269D01*
X125691113Y-124349600D01*
X125655747Y-124409267D01*
X125615405Y-124478963D01*
X125497059Y-124685654D01*
X124983863Y-124689726D01*
X124470667Y-124693797D01*
X124601062Y-124921345D01*
X124731457Y-125148894D01*
X124613144Y-125354048D01*
X124586793Y-125399336D01*
X124549004Y-125462767D01*
X124517750Y-125513380D01*
X124495714Y-125546867D01*
X124485578Y-125558921D01*
X124484544Y-125557967D01*
X124471895Y-125538898D01*
X124446417Y-125497188D01*
X124409529Y-125435258D01*
X124362647Y-125355527D01*
X124307191Y-125260414D01*
X124244577Y-125152339D01*
X124176224Y-125033720D01*
X124103548Y-124906978D01*
X123730772Y-124255317D01*
X124105796Y-123609152D01*
X124124522Y-123576916D01*
X124196941Y-123452797D01*
X124264740Y-123337446D01*
X124326470Y-123233273D01*
X124380682Y-123142688D01*
X124425926Y-123068102D01*
X124460754Y-123011925D01*
X124483717Y-122976568D01*
X124493366Y-122964440D01*
X124498567Y-122969237D01*
X124517180Y-122995297D01*
X124545816Y-123040124D01*
X124581697Y-123099315D01*
X124622048Y-123168468D01*
X124738184Y-123371043D01*
X124609805Y-123593638D01*
X124574637Y-123655113D01*
X124538171Y-123720095D01*
X124509762Y-123772146D01*
X124491700Y-123807060D01*
X124486272Y-123820633D01*
X124487194Y-123821065D01*
X124508508Y-123823529D01*
X124554144Y-123825967D01*
X124619954Y-123828325D01*
X124701794Y-123830549D01*
X124795517Y-123832585D01*
X124896977Y-123834381D01*
X125002028Y-123835881D01*
X125106524Y-123837034D01*
X125206319Y-123837784D01*
X125297266Y-123838078D01*
X125375220Y-123837862D01*
X125436035Y-123837084D01*
X125475565Y-123835689D01*
X125489662Y-123833623D01*
X125487702Y-123829051D01*
X125473331Y-123801872D01*
X125446027Y-123752296D01*
X125406994Y-123682456D01*
X125357441Y-123594486D01*
X125298573Y-123490519D01*
X125231597Y-123372689D01*
X125157720Y-123243130D01*
X125078149Y-123103973D01*
X124994089Y-122957354D01*
X124949440Y-122879554D01*
X124867644Y-122736903D01*
X124790962Y-122603013D01*
X124720598Y-122479995D01*
X124657756Y-122369962D01*
X124603640Y-122275022D01*
X124559454Y-122197289D01*
X124526402Y-122138872D01*
X124505687Y-122101882D01*
X124498515Y-122088432D01*
X124505256Y-122087108D01*
X124536742Y-122085391D01*
X124589528Y-122084022D01*
X124658705Y-122083117D01*
X124739365Y-122082790D01*
X124980216Y-122082790D01*
X126109009Y-124050441D01*
G37*
%TD*%
M02*
